<svg width="2440" height="1627" viewBox="0 0 2440 1627" fill="none" xmlns="http://www.w3.org/2000/svg">
<g clip-path="url(#clip0_74_4714)">
<path d="M2104.74 1309.42C2101.86 1311.79 2098.92 1314.1 2095.93 1316.39C2093.42 1318.31 2090.82 1320.23 2088.13 1322.16C2083.72 1325.33 2079.07 1328.51 2074.22 1331.69C2073.78 1331.98 2073.35 1332.26 2072.91 1332.54C2070.73 1333.97 2068.5 1335.39 2066.24 1336.8C2065.78 1337.09 2065.33 1337.37 2064.88 1337.65C2063.51 1338.5 2062.13 1339.36 2060.73 1340.21C2060.27 1340.49 2059.8 1340.77 2059.33 1341.06C2058.87 1341.34 2058.4 1341.62 2057.93 1341.91C2057.46 1342.18 2056.98 1342.47 2056.51 1342.76C2056.04 1343.03 2055.56 1343.32 2055.08 1343.6C2053.13 1344.75 2051.15 1345.91 2049.15 1347.07C2048.58 1347.4 2048 1347.72 2047.43 1348.06C2047.07 1348.26 2046.71 1348.46 2046.36 1348.67C2045.86 1348.95 2045.37 1349.23 2044.87 1349.51C2044.38 1349.78 2043.88 1350.07 2043.38 1350.35C2042.97 1350.58 2042.56 1350.81 2042.14 1351.04C2037.46 1353.65 2032.67 1356.25 2027.78 1358.83C2027.03 1359.22 2026.27 1359.62 2025.52 1360.01C2023.63 1361 2021.73 1361.97 2019.82 1362.96C2018.85 1363.45 2017.88 1363.93 2016.91 1364.42C2009.78 1368.02 2002.47 1371.56 1995.01 1375.02C1994.03 1375.47 1993.04 1375.93 1992.05 1376.39C1990.92 1376.91 1989.78 1377.43 1988.64 1377.94C1987.51 1378.46 1986.38 1378.97 1985.25 1379.48C1985.24 1379.48 1985.23 1379.49 1985.22 1379.49C1984.08 1380 1982.93 1380.51 1981.78 1381.02C1980.63 1381.53 1979.48 1382.04 1978.32 1382.54L1975.34 1383.84C1974.46 1384.22 1973.57 1384.6 1972.68 1384.98C1971.91 1385.32 1971.13 1385.65 1970.35 1385.98C1969.51 1386.34 1968.67 1386.69 1967.82 1387.05C1966.66 1387.53 1965.5 1388.02 1964.34 1388.5C1963.16 1388.99 1961.98 1389.48 1960.8 1389.96C1959.77 1390.38 1958.74 1390.81 1957.7 1391.23C1956.32 1391.78 1954.95 1392.33 1953.57 1392.89C1952.43 1393.34 1951.28 1393.8 1950.14 1394.25C1948.89 1394.74 1947.64 1395.23 1946.39 1395.71C1945.25 1396.15 1944.11 1396.59 1942.98 1397.03C1942.77 1397.11 1942.55 1397.19 1942.34 1397.27C1941.35 1397.65 1940.37 1398.02 1939.38 1398.4C1938.18 1398.85 1936.98 1399.3 1935.78 1399.75C1933.37 1400.65 1930.96 1401.53 1928.55 1402.4C1927.34 1402.84 1926.14 1403.27 1924.93 1403.7C1923.83 1404.1 1922.72 1404.49 1921.62 1404.88C1921.51 1404.91 1921.41 1404.95 1921.3 1404.99C1920.09 1405.41 1918.88 1405.83 1917.67 1406.25C1909.2 1409.19 1900.68 1411.97 1892.19 1414.58V1414.58C1888.34 1415.76 1884.48 1416.92 1880.63 1418.03C1879.96 1418.22 1879.29 1418.41 1878.61 1418.61C1873.52 1420.06 1868.43 1421.45 1863.37 1422.77C1862.57 1422.98 1861.77 1423.19 1860.97 1423.39C1860.37 1423.55 1859.77 1423.7 1859.17 1423.85C1858.32 1424.07 1857.46 1424.28 1856.6 1424.5C1855.74 1424.71 1854.89 1424.92 1854.04 1425.13C1853.18 1425.34 1852.33 1425.55 1851.47 1425.75C1850.62 1425.96 1849.76 1426.16 1848.91 1426.36C1847.31 1426.74 1845.69 1427.11 1844.09 1427.47C1842.98 1427.73 1841.87 1427.97 1840.76 1428.22C1840.09 1428.36 1839.41 1428.51 1838.74 1428.66C1833.67 1429.75 1828.65 1430.76 1823.68 1431.69C1823.06 1431.8 1822.43 1431.92 1821.81 1432.03C1821.45 1432.1 1821.1 1432.16 1820.75 1432.22C1820.08 1432.35 1819.4 1432.47 1818.73 1432.58C1816.25 1433.02 1813.8 1433.43 1811.36 1433.81C1810.62 1433.93 1809.88 1434.05 1809.15 1434.16C1806.57 1434.56 1804.01 1434.93 1801.47 1435.27C1800.82 1435.36 1800.16 1435.45 1799.51 1435.53C1799.36 1435.55 1799.23 1435.57 1799.09 1435.59C1798.35 1435.68 1797.62 1435.78 1796.89 1435.86C1796.1 1435.96 1795.31 1436.05 1794.52 1436.15L1711.55 1438.44L1588.33 1438.48L1249.52 1438.59L994.18 1438.67L482.559 1438.84C471.781 1438.84 461.338 1437.88 451.266 1436.04C432.048 1432.54 414.201 1425.84 398.011 1416.58C307.15 1364.65 268.648 1232.13 335.327 1130.23C374.962 1069.64 404.313 996.145 357.135 861.231C351.682 845.638 349.931 829.346 347.366 813.815C346.197 806.812 345.178 799.871 344.308 792.986C344.061 791.158 343.829 789.33 343.617 787.512C343.478 786.39 343.349 785.262 343.221 784.119C338.972 746.595 338.71 710.761 341.943 676.682C350.723 584.395 385.301 505.022 436.388 440.155C537.869 311.333 704.508 239.771 863.784 238.02C870.164 237.948 876.539 237.99 882.898 238.139C884.973 238.19 887.044 238.252 889.113 238.324C892.368 238.447 895.622 238.587 898.856 238.762C915.952 239.704 932.893 241.465 949.598 244.071H949.603C955.726 245.013 961.823 246.095 967.878 247.279C972.827 248.242 977.745 249.282 982.641 250.415C989.779 252.047 996.859 253.834 1003.88 255.806C1006.89 256.656 1009.9 257.526 1012.89 258.433C1043.68 267.743 1073.12 280.302 1100.54 296.208C1110.85 302.187 1120.87 308.634 1130.57 315.575C1145.79 326.446 1160.21 338.48 1173.7 351.729C1195.35 372.981 1214.65 397.332 1231 424.866C1259.51 472.894 1294.1 511.921 1331.08 542.787C1334.03 545.253 1337 547.648 1339.97 550.011C1345.41 554.316 1234.13 319.375 1561.54 230.105C1723.18 186.031 1994.94 176.809 2139.84 474.83C2215.42 630.291 2353.9 1105.87 2104.74 1309.42Z" fill="#E4E9F4"/>
<path d="M467.379 1008.28C471.663 982.304 481.883 953.194 507.009 944.008C535.341 933.649 567.368 956.587 577.406 984.663C587.444 1012.74 581.7 1043.51 575.856 1072.61C568.642 1108.53 561.428 1144.46 554.214 1180.38C550.731 1197.72 547.249 1215.07 543.766 1232.41C541.228 1245.05 540.895 1271.16 531.053 1280C514.926 1270.4 502.905 1236.87 495.356 1219.91C485.396 1197.53 477.638 1174.23 472.178 1150.44C461.605 1104.36 458.77 1054.82 467.379 1008.28Z" fill="#89A6E9"/>
<path d="M540.129 1261.7C539.433 1261.7 538.808 1261.21 538.657 1260.51C529.713 1218.66 524.915 1175.65 524.398 1132.67C523.882 1089.7 527.644 1046.64 535.58 1004.69C535.734 1003.87 536.522 1003.34 537.34 1003.49C538.157 1003.65 538.694 1004.43 538.54 1005.25C530.64 1047 526.896 1089.86 527.411 1132.64C527.925 1175.41 532.7 1218.22 541.603 1259.88C541.778 1260.69 541.259 1261.49 540.446 1261.66C540.339 1261.69 540.233 1261.7 540.129 1261.7Z" fill="#5881E0"/>
<path d="M393.264 1252.48C379.255 1256.37 365.33 1262.49 350.793 1261.25C336.257 1260.02 321.233 1247.42 324.479 1233.5C327.584 1220.19 344.88 1213.72 347.958 1200.4C351.413 1185.45 335.562 1173.53 321.875 1165.99C296.262 1151.88 270.649 1137.78 245.035 1123.68C223.902 1112.04 200.879 1098.13 194.377 1075.27C189.282 1057.35 196.922 1036.73 212.524 1026.29C228.126 1015.85 250.549 1016.34 265.785 1027.47C276.383 1035.21 283.062 1046.93 291.899 1056.56C300.735 1066.2 313.958 1074.19 326.585 1070.57C342.573 1065.97 350.509 1044.87 367.141 1043.62C380.535 1042.62 391.037 1055.98 393.287 1068.98C395.537 1081.97 392.366 1095.24 392.818 1108.41C393.863 1138.8 414.078 1165.69 437.664 1185.58C461.249 1205.48 488.79 1220.48 512.241 1240.53C518.927 1246.25 543.413 1268.71 533.044 1277.97C524.907 1285.24 499.672 1265 492.64 1261.67C462.002 1247.19 425.967 1243.4 393.264 1252.48Z" fill="#BECEF3"/>
<path d="M471.186 1246.28C454.68 1235.69 438.024 1224.97 424.272 1211.1C410.521 1197.23 399.724 1179.73 397.569 1160.55C394.687 1134.89 407.306 1108.7 400.742 1083.68C394.463 1059.75 372.347 1043.29 350.656 1030.64C328.966 1017.98 305.257 1006.27 291.327 985.631C276.165 963.17 275.737 932.962 286.966 908.528C298.195 884.093 319.894 865.252 344.515 853.603C368.291 842.352 397.911 837.755 420.547 851.322C440.2 863.102 450.193 885.938 454.049 908.16C457.906 930.381 456.861 953.177 460.652 975.409C464.443 997.641 474.283 1020.51 493.832 1032.46C506.508 1040.21 522.635 1043.01 532.527 1053.99C543.862 1066.57 543.04 1085.93 536.952 1101.53C530.865 1117.12 520.413 1130.73 513.761 1146.1C495.828 1187.54 510.284 1240.28 547.067 1267.61C547.112 1267.64 535.273 1281.15 532.431 1281.83C527.382 1283.03 522.975 1279.37 518.937 1276.93C502.771 1267.14 487.084 1256.48 471.186 1246.28Z" fill="#9FB7ED"/>
<path d="M548.659 1275.23C548.378 1275.23 548.093 1275.15 547.839 1274.99C505.378 1247.34 475.303 1201.42 467.388 1152.15C466.134 1144.35 465.394 1136.36 464.678 1128.63C463.539 1116.34 462.361 1103.63 459.089 1091.58C451.384 1063.19 432.399 1038.97 414.039 1015.55C395.379 991.742 376.083 967.125 368.327 937.925C368.114 937.12 368.593 936.296 369.396 936.082C370.201 935.868 371.026 936.348 371.239 937.152C378.835 965.754 397.937 990.124 416.41 1013.69C434.955 1037.35 454.131 1061.82 461.996 1090.79C465.337 1103.1 466.526 1115.93 467.677 1128.35C468.389 1136.03 469.125 1143.97 470.363 1151.68C478.145 1200.12 507.723 1245.28 549.483 1272.46C550.18 1272.92 550.377 1273.85 549.923 1274.55C549.635 1274.99 549.152 1275.23 548.659 1275.23Z" fill="#7093E4"/>
<path d="M525.959 1266.33C525.727 1266.33 525.492 1266.27 525.271 1266.16C474.434 1240.01 421.865 1212.97 381.028 1171.51C375.265 1165.66 369.682 1159.45 364.283 1153.45C353.382 1141.33 342.111 1128.79 328.953 1118.78C328.291 1118.28 328.162 1117.33 328.666 1116.67C329.169 1116.01 330.115 1115.88 330.777 1116.39C344.161 1126.57 355.529 1139.21 366.523 1151.43C371.9 1157.41 377.459 1163.59 383.174 1169.4C423.673 1210.52 476.022 1237.44 526.648 1263.48C527.388 1263.86 527.68 1264.77 527.299 1265.51C527.032 1266.03 526.505 1266.33 525.959 1266.33Z" fill="#7093E4"/>
<path d="M479.357 1250.63C464.476 1248.85 449.402 1247.08 434.566 1249.02C419.73 1250.96 404.91 1257.06 395.597 1268.51C386.284 1279.96 383.812 1297.32 392.247 1309.5C400.002 1320.7 415.012 1325.31 428.743 1324.35C442.475 1323.38 455.334 1317.78 467.869 1312.26C482.958 1305.62 498.047 1298.97 513.137 1292.33C522.157 1288.35 546.74 1282.76 549.345 1272.4C556.019 1245.86 489.73 1259.28 479.357 1250.63Z" fill="#7093E4"/>
<path d="M434.276 1283.08C433.547 1283.08 432.907 1282.55 432.79 1281.81C432.661 1280.99 433.222 1280.22 434.044 1280.09C445.842 1278.23 457.958 1278.3 469.675 1278.36C476.219 1278.4 482.986 1278.43 489.597 1278.13C512.244 1277.1 528.765 1271.68 540.104 1261.55C540.724 1261 541.677 1261.05 542.231 1261.67C542.785 1262.29 542.731 1263.25 542.111 1263.8C530.234 1274.41 513.101 1280.08 489.735 1281.14C483.046 1281.44 476.241 1281.41 469.659 1281.37C458.062 1281.31 446.068 1281.25 434.512 1283.06C434.433 1283.08 434.354 1283.08 434.276 1283.08Z" fill="#5881E0"/>
<path d="M1494.47 1309.29L1258.92 1009.62L1265.36 1004.43L1494.47 1295.93L1723.59 1004.43L1730.02 1009.62L1494.47 1309.29Z" fill="#6A8EE3"/>
<path d="M1515.49 1007.21H1473.45V1272.64H1515.49V1007.21Z" fill="#6A8EE3"/>
<path d="M1962.4 356.609H1026.54V978.614H1962.4V356.609Z" fill="white"/>
<path d="M2002.65 315.707H986.289V356.61H2002.65V315.707Z" fill="#87A4E8"/>
<path d="M2002.65 978.695H986.289V1019.6H2002.65V978.695Z" fill="#87A4E8"/>
<path d="M1337.07 487.43H1058.79V870.255H1337.07V487.43Z" fill="#C5D3F4"/>
<path d="M1309.72 511.199H1085.68V764.013H1309.72V511.199Z" fill="white"/>
<path d="M1130.74 853.103C1152.99 853.103 1171.03 834.84 1171.03 812.311C1171.03 789.783 1152.99 771.52 1130.74 771.52C1108.48 771.52 1090.44 789.783 1090.44 812.311C1090.44 834.84 1108.48 853.103 1130.74 853.103Z" fill="#F8FAFE"/>
<path d="M1164.8 812.311C1164.8 793.268 1149.55 777.828 1130.74 777.828C1111.92 777.828 1096.68 793.268 1096.68 812.311C1096.68 831.354 1111.93 846.794 1130.74 846.794C1138.51 846.794 1145.67 844.162 1151.39 839.727L1130.74 812.311L1162.57 824.609C1164.01 820.789 1164.8 816.644 1164.8 812.311Z" fill="#6A8EE3"/>
<path d="M1268.02 853.103C1290.27 853.103 1308.31 834.84 1308.31 812.311C1308.31 789.783 1290.27 771.52 1268.02 771.52C1245.77 771.52 1227.73 789.783 1227.73 812.311C1227.73 834.84 1245.77 853.103 1268.02 853.103Z" fill="#F8FAFE"/>
<path d="M1268.02 777.828C1249.21 777.828 1233.96 793.268 1233.96 812.311C1233.96 821.736 1237.69 830.274 1243.75 836.498L1268.02 812.311L1299.85 824.609C1301.29 820.789 1302.08 816.644 1302.08 812.311C1302.08 793.268 1286.83 777.828 1268.02 777.828Z" fill="#6A8EE3"/>
<path d="M1263.04 794.801H1248.54C1247.97 794.801 1247.51 795.273 1247.51 795.849C1247.51 796.426 1247.97 796.897 1248.54 796.897H1263.04C1263.61 796.897 1264.08 796.426 1264.08 795.849C1264.08 795.273 1263.61 794.801 1263.04 794.801Z" fill="#EDF2FC"/>
<path d="M1263.04 798.125H1248.54C1247.97 798.125 1247.51 798.597 1247.51 799.173C1247.51 799.75 1247.97 800.222 1248.54 800.222H1263.04C1263.61 800.222 1264.08 799.75 1264.08 799.173C1264.08 798.597 1263.61 798.125 1263.04 798.125Z" fill="#EDF2FC"/>
<path d="M1254.53 801.441H1248.54C1247.97 801.441 1247.51 801.913 1247.51 802.49C1247.51 803.066 1247.97 803.538 1248.54 803.538H1254.53C1255.1 803.538 1255.57 803.066 1255.57 802.49C1255.57 801.913 1255.1 801.441 1254.53 801.441Z" fill="#EDF2FC"/>
<path d="M1125.48 794.801H1110.98C1110.41 794.801 1109.95 795.273 1109.95 795.849C1109.95 796.426 1110.41 796.897 1110.98 796.897H1125.48C1126.05 796.897 1126.52 796.426 1126.52 795.849C1126.52 795.273 1126.05 794.801 1125.48 794.801Z" fill="#EDF2FC"/>
<path d="M1125.48 798.125H1110.98C1110.41 798.125 1109.95 798.597 1109.95 799.173C1109.95 799.75 1110.41 800.222 1110.98 800.222H1125.48C1126.05 800.222 1126.52 799.75 1126.52 799.173C1126.52 798.597 1126.05 798.125 1125.48 798.125Z" fill="#EDF2FC"/>
<path d="M1116.97 801.441H1110.98C1110.41 801.441 1109.95 801.913 1109.95 802.49C1109.95 803.066 1110.41 803.538 1110.98 803.538H1116.97C1117.54 803.538 1118.01 803.066 1118.01 802.49C1118.01 801.913 1117.54 801.441 1116.97 801.441Z" fill="#EDF2FC"/>
<path d="M1129.27 594.988H1105.63V744.086H1129.27V594.988Z" fill="#87A4E8"/>
<path d="M1168.01 553.43H1144.37V744.087H1168.01V553.43Z" fill="#87A4E8"/>
<path d="M1210.27 631.047H1186.63V744.088H1210.27V631.047Z" fill="#87A4E8"/>
<path d="M1251.39 578.883H1227.75V744.086H1251.39V578.883Z" fill="#87A4E8"/>
<path d="M1292.73 653.172H1269.09V744.088H1292.73V653.172Z" fill="#87A4E8"/>
<path d="M1250.27 557.395H1230.25C1229.11 557.395 1228.18 558.338 1228.18 559.491C1228.18 560.644 1229.11 561.588 1230.25 561.588H1250.27C1251.41 561.588 1252.34 560.644 1252.34 559.491C1252.34 558.338 1251.41 557.395 1250.27 557.395Z" fill="#7799E5"/>
<path d="M1234.81 565.02H1230.25C1229.11 565.02 1228.18 565.963 1228.18 567.117C1228.18 568.27 1229.11 569.214 1230.25 569.214H1234.81C1235.95 569.214 1236.88 568.27 1236.88 567.117C1236.88 565.963 1235.95 565.02 1234.81 565.02Z" fill="#7799E5"/>
<path d="M1167.77 524.922H1147.74C1146.61 524.922 1145.67 525.866 1145.67 527.019C1145.67 528.172 1146.61 529.116 1147.74 529.116H1167.77C1168.91 529.116 1169.84 528.172 1169.84 527.019C1169.84 525.866 1168.91 524.922 1167.77 524.922Z" fill="#7799E5"/>
<path d="M1152.31 532.551H1147.74C1146.61 532.551 1145.67 533.494 1145.67 534.648C1145.67 535.801 1146.61 536.745 1147.74 536.745H1152.31C1153.44 536.745 1154.38 535.801 1154.38 534.648C1154.38 533.494 1153.44 532.551 1152.31 532.551Z" fill="#7799E5"/>
<path d="M1208.46 608.793H1188.43C1187.3 608.793 1186.36 609.737 1186.36 610.889C1186.36 612.043 1187.3 612.987 1188.43 612.987H1208.46C1209.6 612.987 1210.53 612.043 1210.53 610.889C1210.53 609.737 1209.6 608.793 1208.46 608.793Z" fill="#7799E5"/>
<path d="M1193 616.426H1188.44C1187.3 616.426 1186.37 617.369 1186.37 618.523C1186.37 619.676 1187.3 620.62 1188.44 620.62H1193C1194.14 620.62 1195.07 619.676 1195.07 618.523C1195.07 617.369 1194.14 616.426 1193 616.426Z" fill="#7799E5"/>
<path d="M1290.92 631.047H1270.9C1269.76 631.047 1268.83 631.991 1268.83 633.144C1268.83 634.297 1269.76 635.24 1270.9 635.24H1290.92C1292.06 635.24 1292.99 634.297 1292.99 633.144C1292.99 631.991 1292.06 631.047 1290.92 631.047Z" fill="#7799E5"/>
<path d="M1275.46 638.68H1270.9C1269.76 638.68 1268.83 639.623 1268.83 640.777C1268.83 641.93 1269.76 642.874 1270.9 642.874H1275.46C1276.6 642.874 1277.53 641.93 1277.53 640.777C1277.53 639.623 1276.6 638.68 1275.46 638.68Z" fill="#7799E5"/>
<path d="M1636.36 487.43H1358.09V870.255H1636.36V487.43Z" fill="#C5D3F4"/>
<path d="M1609.01 511.195H1384.97V764.009H1609.01V511.195Z" fill="white"/>
<path d="M1430.03 853.103C1452.28 853.103 1470.32 834.84 1470.32 812.311C1470.32 789.783 1452.28 771.52 1430.03 771.52C1407.77 771.52 1389.73 789.783 1389.73 812.311C1389.73 834.84 1407.77 853.103 1430.03 853.103Z" fill="#F8FAFE"/>
<path d="M1464.09 812.311C1464.09 793.268 1448.84 777.828 1430.03 777.828C1411.22 777.828 1395.97 793.268 1395.97 812.311C1395.97 831.354 1411.22 846.794 1430.03 846.794C1437.8 846.794 1444.96 844.162 1450.69 839.727L1430.03 812.311L1461.86 824.609C1463.3 820.789 1464.09 816.644 1464.09 812.311Z" fill="#6A8EE3"/>
<path d="M1567.31 853.103C1589.56 853.103 1607.6 834.84 1607.6 812.311C1607.6 789.783 1589.56 771.52 1567.31 771.52C1545.06 771.52 1527.02 789.783 1527.02 812.311C1527.02 834.84 1545.06 853.103 1567.31 853.103Z" fill="#F8FAFE"/>
<path d="M1567.31 777.828C1548.5 777.828 1533.25 793.268 1533.25 812.311C1533.25 821.736 1536.98 830.274 1543.04 836.498L1567.31 812.311L1599.14 824.609C1600.58 820.789 1601.37 816.644 1601.37 812.311C1601.37 793.268 1586.12 777.828 1567.31 777.828Z" fill="#6A8EE3"/>
<path d="M1562.33 794.801H1547.83C1547.26 794.801 1546.8 795.273 1546.8 795.849C1546.8 796.426 1547.26 796.897 1547.83 796.897H1562.33C1562.9 796.897 1563.37 796.426 1563.37 795.849C1563.37 795.273 1562.9 794.801 1562.33 794.801Z" fill="#EDF2FC"/>
<path d="M1562.33 798.125H1547.83C1547.26 798.125 1546.8 798.597 1546.8 799.173C1546.8 799.75 1547.26 800.222 1547.83 800.222H1562.33C1562.9 800.222 1563.37 799.75 1563.37 799.173C1563.37 798.597 1562.9 798.125 1562.33 798.125Z" fill="#EDF2FC"/>
<path d="M1553.82 801.441H1547.83C1547.26 801.441 1546.8 801.913 1546.8 802.49C1546.8 803.066 1547.26 803.538 1547.83 803.538H1553.82C1554.39 803.538 1554.86 803.066 1554.86 802.49C1554.86 801.913 1554.39 801.441 1553.82 801.441Z" fill="#EDF2FC"/>
<path d="M1424.77 794.801H1410.27C1409.7 794.801 1409.24 795.273 1409.24 795.849C1409.24 796.426 1409.7 796.897 1410.27 796.897H1424.77C1425.34 796.897 1425.81 796.426 1425.81 795.849C1425.81 795.273 1425.34 794.801 1424.77 794.801Z" fill="#EDF2FC"/>
<path d="M1424.77 798.125H1410.27C1409.7 798.125 1409.24 798.597 1409.24 799.173C1409.24 799.75 1409.7 800.222 1410.27 800.222H1424.77C1425.34 800.222 1425.81 799.75 1425.81 799.173C1425.81 798.597 1425.34 798.125 1424.77 798.125Z" fill="#EDF2FC"/>
<path d="M1416.26 801.441H1410.27C1409.7 801.441 1409.24 801.913 1409.24 802.49C1409.24 803.066 1409.7 803.538 1410.27 803.538H1416.26C1416.83 803.538 1417.3 803.066 1417.3 802.49C1417.3 801.913 1416.83 801.441 1416.26 801.441Z" fill="#EDF2FC"/>
<path d="M1428.57 594.988H1404.92V744.086H1428.57V594.988Z" fill="#87A4E8"/>
<path d="M1467.3 553.43H1443.66V744.087H1467.3V553.43Z" fill="#87A4E8"/>
<path d="M1509.56 631.047H1485.92V744.088H1509.56V631.047Z" fill="#87A4E8"/>
<path d="M1550.68 578.883H1527.04V744.086H1550.68V578.883Z" fill="#87A4E8"/>
<path d="M1592.02 653.172H1568.38V744.088H1592.02V653.172Z" fill="#87A4E8"/>
<path d="M1549.56 557.395H1529.54C1528.4 557.395 1527.47 558.338 1527.47 559.491C1527.47 560.644 1528.4 561.588 1529.54 561.588H1549.56C1550.7 561.588 1551.63 560.644 1551.63 559.491C1551.63 558.338 1550.7 557.395 1549.56 557.395Z" fill="#7799E5"/>
<path d="M1534.1 565.02H1529.54C1528.4 565.02 1527.47 565.963 1527.47 567.117C1527.47 568.27 1528.4 569.214 1529.54 569.214H1534.1C1535.24 569.214 1536.17 568.27 1536.17 567.117C1536.17 565.963 1535.24 565.02 1534.1 565.02Z" fill="#7799E5"/>
<path d="M1467.06 524.922H1447.04C1445.9 524.922 1444.96 525.866 1444.96 527.019C1444.96 528.172 1445.9 529.116 1447.04 529.116H1467.06C1468.2 529.116 1469.13 528.172 1469.13 527.019C1469.13 525.866 1468.2 524.922 1467.06 524.922Z" fill="#7799E5"/>
<path d="M1451.6 532.551H1447.04C1445.9 532.551 1444.96 533.494 1444.96 534.648C1444.96 535.801 1445.9 536.745 1447.04 536.745H1451.6C1452.73 536.745 1453.67 535.801 1453.67 534.648C1453.67 533.494 1452.74 532.551 1451.6 532.551Z" fill="#7799E5"/>
<path d="M1507.75 608.793H1487.73C1486.59 608.793 1485.65 609.737 1485.65 610.889C1485.65 612.043 1486.59 612.987 1487.73 612.987H1507.75C1508.89 612.987 1509.82 612.043 1509.82 610.889C1509.82 609.737 1508.89 608.793 1507.75 608.793Z" fill="#7799E5"/>
<path d="M1492.29 616.426H1487.73C1486.59 616.426 1485.66 617.369 1485.66 618.523C1485.66 619.676 1486.59 620.62 1487.73 620.62H1492.29C1493.43 620.62 1494.36 619.676 1494.36 618.523C1494.36 617.369 1493.43 616.426 1492.29 616.426Z" fill="#7799E5"/>
<path d="M1590.21 631.047H1570.19C1569.05 631.047 1568.12 631.991 1568.12 633.144C1568.12 634.297 1569.05 635.24 1570.19 635.24H1590.21C1591.35 635.24 1592.28 634.297 1592.28 633.144C1592.28 631.991 1591.35 631.047 1590.21 631.047Z" fill="#7799E5"/>
<path d="M1574.75 638.68H1570.19C1569.05 638.68 1568.12 639.623 1568.12 640.777C1568.12 641.93 1569.05 642.874 1570.19 642.874H1574.75C1575.89 642.874 1576.82 641.93 1576.82 640.777C1576.82 639.623 1575.89 638.68 1574.75 638.68Z" fill="#7799E5"/>
<path d="M1935.65 487.43H1657.38V870.255H1935.65V487.43Z" fill="#C5D3F4"/>
<path d="M1908.31 511.199H1684.27V764.013H1908.31V511.199Z" fill="white"/>
<path d="M1729.32 853.103C1751.57 853.103 1769.61 834.84 1769.61 812.311C1769.61 789.783 1751.57 771.52 1729.32 771.52C1707.07 771.52 1689.03 789.783 1689.03 812.311C1689.03 834.84 1707.07 853.103 1729.32 853.103Z" fill="#F8FAFE"/>
<path d="M1763.38 812.311C1763.38 793.268 1748.13 777.828 1729.32 777.828C1710.51 777.828 1695.26 793.268 1695.26 812.311C1695.26 831.354 1710.51 846.794 1729.32 846.794C1737.09 846.794 1744.25 844.162 1749.98 839.727L1729.32 812.311L1761.15 824.609C1762.59 820.789 1763.38 816.644 1763.38 812.311Z" fill="#6A8EE3"/>
<path d="M1866.6 853.103C1888.86 853.103 1906.9 834.84 1906.9 812.311C1906.9 789.783 1888.86 771.52 1866.6 771.52C1844.35 771.52 1826.31 789.783 1826.31 812.311C1826.31 834.84 1844.35 853.103 1866.6 853.103Z" fill="#F8FAFE"/>
<path d="M1866.6 777.828C1847.79 777.828 1832.54 793.268 1832.54 812.311C1832.54 821.736 1836.27 830.274 1842.33 836.498L1866.6 812.311L1898.43 824.609C1899.87 820.789 1900.66 816.644 1900.66 812.311C1900.66 793.268 1885.41 777.828 1866.6 777.828Z" fill="#6A8EE3"/>
<path d="M1861.63 794.801H1847.13C1846.56 794.801 1846.09 795.273 1846.09 795.849C1846.09 796.426 1846.56 796.897 1847.13 796.897H1861.63C1862.2 796.897 1862.66 796.426 1862.66 795.849C1862.66 795.273 1862.2 794.801 1861.63 794.801Z" fill="#EDF2FC"/>
<path d="M1861.63 798.125H1847.13C1846.56 798.125 1846.09 798.597 1846.09 799.173C1846.09 799.75 1846.56 800.222 1847.13 800.222H1861.63C1862.2 800.222 1862.66 799.75 1862.66 799.173C1862.66 798.597 1862.2 798.125 1861.63 798.125Z" fill="#EDF2FC"/>
<path d="M1853.11 801.441H1847.13C1846.56 801.441 1846.09 801.913 1846.09 802.49C1846.09 803.066 1846.56 803.538 1847.13 803.538H1853.11C1853.68 803.538 1854.15 803.066 1854.15 802.49C1854.15 801.913 1853.68 801.441 1853.11 801.441Z" fill="#EDF2FC"/>
<path d="M1724.07 794.801H1709.57C1709 794.801 1708.53 795.273 1708.53 795.849C1708.53 796.426 1709 796.897 1709.57 796.897H1724.07C1724.64 796.897 1725.1 796.426 1725.1 795.849C1725.1 795.273 1724.64 794.801 1724.07 794.801Z" fill="#EDF2FC"/>
<path d="M1724.07 798.125H1709.57C1709 798.125 1708.53 798.597 1708.53 799.173C1708.53 799.75 1709 800.222 1709.57 800.222H1724.07C1724.64 800.222 1725.1 799.75 1725.1 799.173C1725.1 798.597 1724.64 798.125 1724.07 798.125Z" fill="#EDF2FC"/>
<path d="M1715.55 801.441H1709.57C1709 801.441 1708.53 801.913 1708.53 802.49C1708.53 803.066 1709 803.538 1709.57 803.538H1715.55C1716.12 803.538 1716.59 803.066 1716.59 802.49C1716.59 801.913 1716.12 801.441 1715.55 801.441Z" fill="#EDF2FC"/>
<path d="M1727.86 594.988H1704.22V744.086H1727.86V594.988Z" fill="#87A4E8"/>
<path d="M1766.59 553.43H1742.95V744.087H1766.59V553.43Z" fill="#87A4E8"/>
<path d="M1808.85 631.047H1785.21V744.088H1808.85V631.047Z" fill="#87A4E8"/>
<path d="M1849.98 578.883H1826.33V744.086H1849.98V578.883Z" fill="#87A4E8"/>
<path d="M1891.32 653.172H1867.67V744.088H1891.32V653.172Z" fill="#87A4E8"/>
<path d="M1848.85 557.395H1828.83C1827.69 557.395 1826.76 558.338 1826.76 559.491C1826.76 560.644 1827.69 561.588 1828.83 561.588H1848.85C1849.99 561.588 1850.92 560.644 1850.92 559.491C1850.92 558.338 1849.99 557.395 1848.85 557.395Z" fill="#7799E5"/>
<path d="M1833.39 565.02H1828.83C1827.69 565.02 1826.76 565.963 1826.76 567.117C1826.76 568.27 1827.69 569.214 1828.83 569.214H1833.39C1834.53 569.214 1835.46 568.27 1835.46 567.117C1835.46 565.963 1834.53 565.02 1833.39 565.02Z" fill="#7799E5"/>
<path d="M1766.35 524.922H1746.33C1745.19 524.922 1744.26 525.866 1744.26 527.019C1744.26 528.172 1745.19 529.116 1746.33 529.116H1766.35C1767.49 529.116 1768.42 528.172 1768.42 527.019C1768.42 525.866 1767.49 524.922 1766.35 524.922Z" fill="#7799E5"/>
<path d="M1750.89 532.551H1746.33C1745.19 532.551 1744.26 533.494 1744.26 534.648C1744.26 535.801 1745.19 536.745 1746.33 536.745H1750.89C1752.03 536.745 1752.96 535.801 1752.96 534.648C1752.96 533.494 1752.03 532.551 1750.89 532.551Z" fill="#7799E5"/>
<path d="M1807.04 608.793H1787.02C1785.88 608.793 1784.95 609.737 1784.95 610.889C1784.95 612.043 1785.88 612.987 1787.02 612.987H1807.04C1808.18 612.987 1809.11 612.043 1809.11 610.889C1809.11 609.737 1808.18 608.793 1807.04 608.793Z" fill="#7799E5"/>
<path d="M1791.58 616.426H1787.02C1785.88 616.426 1784.95 617.369 1784.95 618.523C1784.95 619.676 1785.88 620.62 1787.02 620.62H1791.58C1792.72 620.62 1793.65 619.676 1793.65 618.523C1793.65 617.369 1792.72 616.426 1791.58 616.426Z" fill="#7799E5"/>
<path d="M1889.5 631.047H1869.48C1868.34 631.047 1867.41 631.991 1867.41 633.144C1867.41 634.297 1868.34 635.24 1869.48 635.24H1889.5C1890.64 635.24 1891.57 634.297 1891.57 633.144C1891.57 631.991 1890.64 631.047 1889.5 631.047Z" fill="#7799E5"/>
<path d="M1874.04 638.68H1869.48C1868.34 638.68 1867.41 639.623 1867.41 640.777C1867.41 641.93 1868.34 642.874 1869.48 642.874H1874.04C1875.18 642.874 1876.11 641.93 1876.11 640.777C1876.11 639.623 1875.18 638.68 1874.04 638.68Z" fill="#7799E5"/>
<path d="M1588.16 621.722C1589.05 621.722 1589.05 620.344 1588.16 620.344C1587.27 620.344 1587.27 621.722 1588.16 621.722Z" fill="#B1C4F0"/>
<path d="M1387.64 1250.5L984.361 1250.79L926.269 989.334C923.893 978.636 930.321 969.958 940.629 969.951L1306.58 969.695C1316.89 969.688 1327.17 978.354 1329.55 989.053L1387.64 1250.5Z" fill="#6A8EE3"/>
<path d="M983.361 1214.42L937.822 1009.47C935.322 998.213 942.085 989.084 952.927 989.076L1302.72 988.832C1313.57 988.824 1324.38 997.941 1326.88 1009.19L1372.42 1214.15C1374.92 1225.4 1368.16 1234.53 1357.32 1234.54L1007.52 1234.79C996.678 1234.79 985.862 1225.68 983.361 1214.42Z" fill="#87A4E8"/>
<path d="M1360.33 1222.61C1358.75 1224.02 1356.66 1224.85 1354.21 1224.85L1219.51 1224.94L1066.64 1225.05L1006.32 1225.1C999.745 1225.1 993.1 1219.16 991.468 1211.82L970.893 1119.21L947.085 1012.06C945.453 1004.73 949.457 998.771 956.032 998.771L971.011 998.76L1303.93 998.527C1310.5 998.522 1317.15 1004.47 1318.77 1011.8L1363.16 1211.56C1364.18 1216.16 1362.98 1220.22 1360.33 1222.61Z" fill="#E4EBFA"/>
<g opacity="0.36">
<path d="M1318.78 1011.8L1345.17 1130.58L1164.62 998.624L1303.93 998.527C1310.5 998.522 1317.15 1004.47 1318.78 1011.8Z" fill="white"/>
</g>
<g opacity="0.36">
<path d="M1219.51 1224.94L1066.64 1225.05L970.893 1119.2L947.085 1012.05C945.453 1004.72 949.457 998.765 956.032 998.765L971.011 998.754L1219.51 1224.94Z" fill="white"/>
</g>
<path d="M1615.05 1259.17L1615.18 1259.75C1616.72 1266.69 1612.93 1272.31 1606.72 1272.32L997.581 1272.63C991.367 1272.63 985.081 1267.02 983.54 1260.08L983.41 1259.5C981.869 1252.56 985.657 1246.94 991.871 1246.93L1601.01 1246.62C1602.41 1246.62 1603.83 1246.9 1605.18 1247.43C1609.82 1249.23 1613.86 1253.8 1615.05 1259.17Z" fill="#87A4E8"/>
<path d="M1157.74 981.511L1059.59 981.58C1059.19 981.58 1058.78 981.217 1058.68 980.77C1058.58 980.323 1058.83 979.959 1059.23 979.959L1157.38 979.891C1157.78 979.89 1158.18 980.253 1158.28 980.7C1158.38 981.149 1158.14 981.511 1157.74 981.511Z" fill="#C7D5F5"/>
<path d="M1328.76 1256.35L1210.68 1256.44C1210.28 1256.44 1209.88 1256.07 1209.78 1255.63C1209.68 1255.18 1209.92 1254.82 1210.32 1254.82L1328.4 1254.73C1328.8 1254.73 1329.21 1255.1 1329.31 1255.54C1329.41 1255.99 1329.16 1256.35 1328.76 1256.35Z" fill="#AFC3F0"/>
<path d="M1219.84 1238.53L1150.88 1238.58C1149.29 1238.58 1147.69 1237.14 1147.29 1235.37C1146.9 1233.6 1147.87 1232.16 1149.46 1232.16L1218.42 1232.11C1220 1232.11 1221.61 1233.55 1222 1235.32C1222.4 1237.09 1221.43 1238.53 1219.84 1238.53Z" fill="#AFC3F0"/>
<path d="M1615.05 1259.17L1615.18 1259.76C1616.72 1266.69 1612.93 1272.32 1606.72 1272.32L997.579 1272.64C991.365 1272.64 985.079 1267.02 983.538 1260.09L983.408 1259.5C981.867 1252.57 985.655 1246.94 991.869 1246.94L997.112 1246.93C995.708 1251.67 995.557 1257.06 1000.99 1258.97C1011.47 1262.65 1600.8 1258.67 1600.8 1258.67C1600.8 1258.67 1607.43 1254.71 1605.18 1247.44C1609.82 1249.23 1613.85 1253.81 1615.05 1259.17Z" fill="#6A8EE3"/>
<path d="M1487.05 402.801C1545.72 402.801 1593.29 354.649 1593.29 295.252C1593.29 235.854 1545.72 187.703 1487.05 187.703C1428.38 187.703 1380.82 235.854 1380.82 295.252C1380.82 354.649 1428.38 402.801 1487.05 402.801Z" fill="#809FE7"/>
<path d="M1487.05 385.161C1536.1 385.161 1575.86 344.907 1575.86 295.25C1575.86 245.594 1536.1 205.34 1487.05 205.34C1438 205.34 1398.24 245.594 1398.24 295.25C1398.24 344.907 1438 385.161 1487.05 385.161Z" fill="#FBFCFE"/>
<path d="M1487.05 368.617C1527.08 368.617 1559.52 335.769 1559.52 295.248C1559.52 254.727 1527.08 221.879 1487.05 221.879C1447.03 221.879 1414.58 254.727 1414.58 295.248C1414.58 335.769 1447.03 368.617 1487.05 368.617Z" fill="#809FE7"/>
<path d="M1487.05 345.491C1514.46 345.491 1536.68 322.999 1536.68 295.253C1536.68 267.508 1514.46 245.016 1487.05 245.016C1459.65 245.016 1437.43 267.508 1437.43 295.253C1437.43 322.999 1459.65 345.491 1487.05 345.491Z" fill="#FBFCFE"/>
<path d="M1487.05 328.162C1505.01 328.162 1519.56 313.426 1519.56 295.249C1519.56 277.072 1505.01 262.336 1487.05 262.336C1469.1 262.336 1454.54 277.072 1454.54 295.249C1454.54 313.426 1469.1 328.162 1487.05 328.162Z" fill="#809FE7"/>
<path d="M1487.05 311.201C1495.75 311.201 1502.8 304.061 1502.8 295.255C1502.8 286.448 1495.75 279.309 1487.05 279.309C1478.35 279.309 1471.3 286.448 1471.3 295.255C1471.3 304.061 1478.35 311.201 1487.05 311.201Z" fill="#FBFCFE"/>
<path d="M1483.91 303.341C1488.32 305.101 1493.31 302.905 1495.04 298.438C1496.78 293.971 1494.61 288.922 1490.2 287.162C1485.79 285.402 1480.8 287.597 1479.06 292.065C1477.32 296.532 1479.49 301.581 1483.91 303.341Z" fill="#809FE7"/>
<path d="M1330.92 364.385C1334.23 362.928 1410.34 329.426 1410.34 329.426L1399.38 357.056L1320.62 391.724L1330.92 364.385Z" fill="#9FB7ED"/>
<path d="M1330.92 364.38C1334.23 362.924 1410.34 329.421 1410.34 329.421L1382.91 318.688L1304.15 353.355L1330.92 364.38Z" fill="#9FB7ED"/>
<path d="M1490.72 297.417C1491.13 296.374 1491.14 295.172 1490.66 294.063C1489.71 291.842 1487.16 290.825 1484.97 291.791L1330.64 359.722C1328.45 360.686 1327.44 363.271 1328.39 365.489C1329.35 367.71 1331.9 368.727 1334.09 367.762L1488.42 299.831C1489.52 299.348 1490.32 298.461 1490.72 297.417Z" fill="#7799E5"/>
<path d="M697.444 312.262C697.444 312.262 600.441 320.974 596.97 468.332C593.499 615.689 498.455 666.769 513.719 673.51C716.65 763.128 893.469 623.291 893.469 623.291C893.469 623.291 836.834 552.437 842.958 482.894C849.083 413.35 798.178 361.408 785.212 356.613C772.246 351.818 697.444 312.262 697.444 312.262Z" fill="#3D6DDA"/>
<path d="M900.194 1152.25C900.194 1152.25 736.347 1313.32 490.051 1180.25L496.621 1139.98L895.225 1115.4L900.194 1152.25Z" fill="#537EDF"/>
<path d="M866.528 1265.9C864.136 1287.39 861.651 1306.64 859.503 1322.16H469.322L483.627 1265.9L544.053 1028.24H870.622C881.658 1094.17 874.642 1192.93 866.528 1265.9Z" fill="#658BE2"/>
<path d="M872.854 1044.08C872.21 1038.63 871.472 1033.33 870.62 1028.25H544.05L528.592 1089.05L872.854 1044.08Z" fill="#4875DD"/>
<path d="M1188.35 703.2C1188.35 703.2 1145.61 777.5 1105.8 862.006C1100.12 874.066 1094.5 886.342 1089.07 898.634C1064.08 955.217 1021.84 957.575 990.45 949.36C970.931 944.249 953.036 934.133 937.839 920.722L887.215 876.063L873.325 953.037L900.197 1152.25C805.366 1118.65 816.428 1028.24 816.428 1028.24H658.376L642.572 1106.65C634.649 1134.99 616.697 1152.79 595.793 1163.89C550.015 1188.17 490.051 1180.25 490.051 1180.25L519.293 1001.04L483.778 1006.26C467.973 1008.58 451.635 1006.07 437.813 997.979C386.224 967.75 409.447 886.631 409.447 886.631C420.706 820.236 489.859 690.84 508.288 650.556C511.827 642.824 531.74 630.627 539.87 628.41L648.829 597.918H742.144L835.994 624.161C842.568 625.773 848.358 629.702 852.327 635.244L993.096 798.153C993.096 798.153 993.102 798.148 993.112 798.133L1099.34 610.619L1188.35 703.2Z" fill="#9BB3EC"/>
<path d="M832.081 815.115C830.904 879.881 816.428 1028.24 816.428 1028.24H658.376C677.63 946.67 675.213 838.926 668 751.656C660.799 664.597 648.829 597.918 648.829 597.918H742.144C767.433 634.351 826.748 735.782 831.703 793.295C832.149 798.453 832.247 805.949 832.081 815.115Z" fill="#FDFDFF"/>
<path d="M832.081 815.115C830.904 879.881 816.428 1028.24 816.428 1028.24H658.376C677.63 946.671 675.213 838.926 668 751.656C707.702 786.004 768.387 824.896 832.081 815.115Z" fill="#EFF3FC"/>
<path d="M797.417 693.493C768.647 699.712 736.763 703.2 703.163 703.2C689.506 703.2 676.157 702.595 663.16 701.503C660.887 680.859 657.307 654.963 654.292 634.225C651.278 613.492 648.829 597.918 648.829 597.918H742.144C755.442 617.081 778.147 654.223 797.417 693.493Z" fill="#DEE6F9"/>
<path d="M787.242 673.513C785.826 670.828 784.404 668.171 782.982 665.539C784.409 668.165 785.831 670.828 787.242 673.513Z" fill="#FDFDFF"/>
<path d="M662.942 699.557C660.664 679.249 657.214 654.32 654.292 634.228C651.922 617.918 649.898 604.802 649.145 599.948C649.016 599.108 648.922 598.514 648.876 598.199C648.938 598.525 649.042 599.134 649.198 600.022C650.775 609.146 657.147 647.281 662.942 699.557Z" fill="#DEE6F9"/>
<path d="M700.724 977.93C700.724 977.93 581.254 996.242 519.293 1001.04L452.911 908.237C452.911 908.237 463.973 859.433 528.772 851.433C593.577 843.433 664.695 849.033 692.355 840.234L700.724 977.93Z" fill="#9BB3EC"/>
<path d="M530.67 850.838C530.67 850.838 538.235 831.681 552.677 769.348L550.131 849.533L530.67 850.838Z" fill="#809FE7"/>
<path d="M1105.8 862.01C1100.12 874.071 1094.5 886.347 1089.07 898.638C1064.08 955.221 1021.84 957.579 990.45 949.364C970.931 944.253 953.036 934.137 937.839 920.726L887.215 876.067C887.215 876.067 900.015 829.07 900.197 793.031C900.316 769.351 877.279 740.23 870.622 712.228L863.639 692.855C863.639 692.855 930.747 785.257 929.346 795.457C927.94 805.659 918.657 893.695 983.711 914.427C1048.77 935.165 1105.8 862.01 1105.8 862.01Z" fill="#809FE7"/>
<path d="M901.533 936.792H736.37L766.4 718.379H931.563L901.533 936.792Z" fill="#4170DB"/>
<path d="M938.918 725.824L920.758 857.89L908.887 944.24H743.722L765.466 786.09L773.753 725.824H938.918Z" fill="#BCCDF2"/>
<path d="M920.758 857.89L908.887 944.24H743.722L765.467 786.09C791.606 814.297 846.247 860.737 920.758 857.89Z" fill="#AABFEF"/>
<path d="M852.75 876.365C851.774 876.365 850.804 876.28 849.841 876.11C842.864 874.88 837.129 869.393 833.691 860.661C830.393 852.28 829.583 841.811 831.412 831.182C833.83 817.123 840.46 805.082 849.145 798.973C853.877 795.646 858.938 794.337 863.778 795.192C870.756 796.422 876.491 801.909 879.928 810.642C883.227 819.022 884.036 829.491 882.208 840.12C879.789 854.18 873.16 866.221 864.474 872.33C860.684 874.995 856.682 876.365 852.75 876.365ZM860.887 799.116C857.81 799.116 854.622 800.227 851.548 802.389C843.868 807.791 837.729 819.095 835.528 831.889C832.08 851.935 838.826 869.927 850.566 871.997C854.291 872.653 858.269 871.588 862.071 868.913C869.752 863.511 875.891 852.207 878.092 839.412C881.54 819.367 874.794 801.375 863.054 799.304C862.34 799.178 861.616 799.116 860.887 799.116Z" fill="#D9E2F8"/>
<path d="M736.37 936.792L743.724 944.236L773.754 725.824L766.4 718.379L736.37 936.792Z" fill="#8DA9EA"/>
<path d="M700.724 977.93C665.079 978.682 670.72 934.333 658.376 901.54C646.033 868.747 590.605 868.895 564.474 869.618C528.592 870.612 452.911 908.237 452.911 908.237C452.911 908.237 463.973 859.433 528.772 851.433C593.577 843.433 664.695 849.033 692.355 840.234L700.724 977.93Z" fill="#809FE7"/>
<path d="M692.819 846.999C692.819 846.999 718.83 835.031 727.128 824.23C735.426 813.43 754.715 803.362 754.715 803.362L752.283 822.247C752.283 822.247 848.433 794.229 859.496 798.629C870.56 803.03 849.223 816.23 849.223 816.23C849.223 816.23 869.77 808.73 870.56 813.08C871.35 817.43 864.238 829.031 859.892 832.231C859.892 832.231 865.423 830.631 865.818 836.231C866.214 841.831 837.369 865.433 813.662 874.633C813.662 874.633 840.135 869.033 847.643 874.633C847.643 874.633 808.92 894.234 794.696 898.634C780.471 903.035 697.304 912.621 697.304 912.621L692.819 846.999Z" fill="#DEE6F9"/>
<path d="M848.806 815.046L777.291 839.051L778.078 841.396L849.593 817.392L848.806 815.046Z" fill="#C3D2F4"/>
<path d="M785.538 859.826L784.889 857.44C810.991 850.34 858.953 831.274 859.434 831.082L860.35 833.38C859.867 833.572 811.775 852.691 785.538 859.826Z" fill="#C3D2F4"/>
<path d="M813.3 873.444L789.594 880.246L790.276 882.624L813.983 875.822L813.3 873.444Z" fill="#C3D2F4"/>
<path d="M692.819 847L697.304 912.622L712.233 910.848L692.819 847Z" fill="#B5C8F1"/>
<path d="M766.4 718.379L773.754 725.824H938.917L931.564 718.379H766.4Z" fill="#CEDAF6"/>
<path d="M1119.99 632.937L1170.61 684.804C1170.61 684.804 1177.31 669.96 1183.93 667.784C1190.54 665.606 1221.28 671.711 1231.93 659.894C1242.57 648.084 1247.58 636.25 1247.58 636.25C1247.58 636.25 1276.87 616.151 1295.29 609.613C1313.72 603.079 1306.48 596.263 1294.36 593.277C1282.24 590.282 1258.39 599.325 1258.39 599.325C1258.39 599.325 1280.05 554.532 1274.96 551.56C1269.88 548.591 1262.84 547.149 1249.68 570.576C1249.68 570.576 1256.12 551.628 1245.94 549.955C1235.77 548.287 1216.57 602.844 1216.57 602.844L1188.42 599.923C1188.42 599.923 1203.33 568.162 1195.01 560.138C1186.69 552.113 1180.41 555.934 1179.63 564.925C1178.84 573.912 1175.01 591.776 1160.92 594.593C1146.84 597.407 1133.56 605.974 1119.99 632.937Z" fill="#DEE6F9"/>
<path d="M1232.94 630.78C1232.74 630.78 1232.53 630.722 1232.35 630.601C1231.89 630.299 1231.74 629.71 1231.97 629.232C1232.7 627.313 1244.24 586.083 1248.65 570.288C1248.81 569.716 1249.4 569.379 1249.97 569.54C1250.55 569.7 1250.88 570.294 1250.72 570.868C1239.87 609.774 1234.19 629.768 1233.84 630.297C1233.63 630.61 1233.29 630.78 1232.94 630.78Z" fill="#B5C8F1"/>
<path d="M1210.07 628.54C1209.98 628.54 1209.88 628.529 1209.79 628.504C1209.22 628.352 1208.87 627.762 1209.03 627.187L1215.53 602.568C1215.69 601.994 1216.27 601.649 1216.85 601.802C1217.43 601.954 1217.77 602.544 1217.62 603.119L1211.11 627.738C1210.98 628.221 1210.55 628.54 1210.07 628.54Z" fill="#B5C8F1"/>
<path d="M1152.93 630.875C1152.72 630.875 1152.51 630.814 1152.32 630.684C1151.83 630.346 1151.71 629.675 1152.05 629.186C1159.93 617.785 1169.95 615.561 1176.95 615.714C1184.5 615.872 1190.12 618.684 1190.36 618.804C1190.89 619.073 1191.1 619.722 1190.83 620.252C1190.56 620.783 1189.91 620.994 1189.38 620.725C1189.33 620.698 1183.9 617.996 1176.82 617.867C1167.43 617.71 1159.69 621.916 1153.82 630.41C1153.61 630.713 1153.27 630.875 1152.93 630.875Z" fill="#B5C8F1"/>
<path d="M1258.39 599.324L1247.58 636.249C1247.58 636.249 1276.87 616.15 1295.29 609.612C1313.72 603.078 1306.48 596.262 1294.36 593.276C1282.24 590.282 1258.39 599.324 1258.39 599.324Z" fill="#B5C8F1"/>
<path d="M595.793 1163.89C550.015 1188.16 490.051 1180.25 490.051 1180.25L519.293 1001.04L576.818 995.035C576.818 995.035 512.128 1114.07 538.164 1144.88C553.19 1162.65 578.629 1162.94 595.793 1163.89Z" fill="#809FE7"/>
<path d="M900.195 1152.25C805.365 1118.64 816.427 1028.24 816.427 1028.24C816.427 1028.24 841.503 1075.76 859.891 1077.33C878.279 1078.9 873.324 953.035 873.324 953.035L900.195 1152.25Z" fill="#809FE7"/>
<path d="M1188.35 703.197C1188.35 703.197 1116.05 678.704 1098.1 674.375C1080.29 670.079 994.431 796.193 993.113 798.131L1099.34 610.617L1188.35 703.197Z" fill="#809FE7"/>
<path d="M672.981 843.8L641.731 845.434L612.483 777.826L639.1 731.428L612.483 706.556L648.829 597.918C648.829 597.918 648.803 599.473 649.146 599.945C649.161 599.967 649.177 599.993 649.197 600.019C650.775 609.143 657.146 647.278 662.942 699.553C663.015 700.205 663.087 700.856 663.16 701.502C667.689 742.743 671.83 792.56 672.981 843.8Z" fill="#BACBF2"/>
<path d="M849.224 695.668V718.376H808.987C805.36 710.082 801.469 701.741 797.417 693.489C796.815 692.259 796.208 691.035 795.601 689.812C795.295 689.202 794.993 688.594 794.687 687.984C794.636 687.89 794.589 687.795 794.547 687.701C793.976 686.571 793.411 685.452 792.846 684.333C792.825 684.296 792.809 684.26 792.793 684.228C792.202 683.072 791.616 681.922 791.029 680.777C789.774 678.34 788.508 675.913 787.242 673.507C785.825 670.823 784.404 668.165 782.982 665.534C782.826 665.25 782.671 664.966 782.52 664.682C781.887 663.521 781.26 662.361 780.626 661.21C779.999 660.06 779.366 658.915 778.738 657.78C778.105 656.64 777.477 655.511 776.849 654.387C776.532 653.83 776.221 653.268 775.904 652.711C775.271 651.587 774.639 650.469 774.01 649.355C773.699 648.819 773.398 648.279 773.092 647.742C772.781 647.201 772.47 646.655 772.158 646.113C771.536 645.031 770.918 643.955 770.301 642.894C769.989 642.358 769.683 641.827 769.377 641.302C768.76 640.247 768.148 639.196 767.54 638.161C767.234 637.641 766.933 637.126 766.627 636.612C766.02 635.588 765.418 634.568 764.821 633.565C764.219 632.557 763.623 631.564 763.031 630.577C762.439 629.595 761.848 628.618 761.267 627.656C760.629 626.606 759.996 625.571 759.373 624.547C758.849 623.696 758.33 622.855 757.816 622.025C757.531 621.568 757.25 621.116 756.97 620.664C756.69 620.213 756.415 619.766 756.135 619.32C755.616 618.479 755.097 617.655 754.583 616.84C754.547 616.793 754.516 616.741 754.49 616.693C754.002 615.921 753.52 615.165 753.048 614.414C752.192 613.069 751.351 611.756 750.526 610.485C750.018 609.691 749.509 608.914 749.011 608.152C748.757 607.758 748.498 607.364 748.243 606.976L753.442 587.281L820.291 652.659L813.66 675.976L849.224 695.668Z" fill="#BACBF2"/>
<path d="M672.981 1272.38L705.094 1158.59L723.123 1272.38H672.981Z" fill="#4875DD"/>
<path fill-rule="evenodd" clip-rule="evenodd" d="M630.747 479.698C634.123 485.319 643.062 488.898 644.679 495.286C644.867 496.143 645.046 497.06 645.137 497.962L645.132 497.992L660.058 541.922L654.224 588.624C653.81 591.769 653.386 594.85 653.027 597.411C652.469 601.385 654.398 605.253 657.871 607.187C670.844 614.416 702.458 630.963 719.015 630.384C735.226 629.816 749.955 621.71 751.435 605.358L754.79 568.306C790.398 578.261 801.191 566.606 817.837 548.284C825.445 539.963 831.116 530.242 835.14 519.717C839.572 508.194 842.06 495.665 842.959 482.895C845.885 442.666 850.734 399.42 834.802 377.928C818.698 356.192 763.976 339.618 738.792 333.925C687.278 322.344 657.388 348.753 640.845 391.536C635.32 405.805 632.765 427.581 635.614 439.954C620.133 444.634 624.102 468.537 630.747 479.698Z" fill="#DEE6F9"/>
<path fill-rule="evenodd" clip-rule="evenodd" d="M751.671 612.256C698.765 586.356 689.477 530.012 689.477 530.012C720.016 558.689 754.797 568.277 754.797 568.277L751.671 612.256Z" fill="#B5C8F1"/>
<path fill-rule="evenodd" clip-rule="evenodd" d="M824.045 429.885C814.39 427.64 806.09 427.883 805.498 430.424C804.924 432.987 812.29 436.883 821.95 439.12C831.606 441.38 839.913 441.134 840.496 438.577C841.073 436.023 833.706 432.122 824.045 429.885Z" fill="#3F6FDB"/>
<path fill-rule="evenodd" clip-rule="evenodd" d="M769.847 424.743C759.384 425.305 751.013 427.999 751.148 430.755C751.291 433.511 759.908 435.306 770.351 434.739C780.813 434.196 789.171 431.507 789.027 428.752C788.881 425.975 780.3 424.197 769.847 424.743Z" fill="#3F6FDB"/>
<path d="M802.631 476.134C801.904 468.544 801.075 459.941 801.586 450.929C801.682 449.276 800.418 447.823 798.782 447.756C797.148 447.654 795.746 448.93 795.643 450.593C795.11 460.072 795.966 468.903 796.71 476.714C797.687 486.806 798.512 495.531 795.404 499.273C794.112 500.803 792.011 501.659 788.971 501.867C787.336 501.997 786.081 503.427 786.204 505.09C786.304 506.568 787.446 507.713 788.847 507.871C789.032 507.891 789.208 507.899 789.386 507.874C794.122 507.543 797.572 505.992 799.934 503.167C804.69 497.477 803.785 488.054 802.631 476.134Z" fill="#B5C8F1"/>
<path d="M797.421 519.237C797.17 517.603 795.625 516.466 794.017 516.743C776.769 519.488 772.421 509.03 772.236 508.595C771.627 507.055 769.903 506.296 768.396 506.898C766.853 507.5 766.1 509.216 766.683 510.752C766.88 511.28 770.899 521.493 784.786 523.048C787.711 523.369 791.072 523.312 794.946 522.694C796.564 522.42 797.673 520.892 797.421 519.237Z" fill="#B5C8F1"/>
<path d="M760.305 490.721C758.558 501.167 748.777 508.202 738.459 506.433C728.141 504.664 721.192 494.762 722.939 484.315C724.686 473.869 734.468 466.835 744.786 468.604C755.104 470.372 762.052 480.274 760.305 490.721Z" fill="#B5C8F1"/>
<path d="M816.881 497.337C815.132 507.793 822.078 517.691 832.377 519.457C833.316 519.618 834.235 519.714 835.141 519.717C839.572 508.194 842.061 495.665 842.959 482.894C841.64 482.301 840.203 481.872 838.706 481.615C828.408 479.85 818.629 486.882 816.881 497.337Z" fill="#B5C8F1"/>
<path d="M780.959 462.131C780.421 465.825 777.027 468.379 773.378 467.835C769.729 467.29 767.207 463.854 767.744 460.16C768.282 456.465 771.675 453.912 775.325 454.456C778.974 455 781.497 458.436 780.959 462.131Z" fill="#3F6FDB"/>
<path d="M826.858 465.908C826.32 469.603 822.926 472.156 819.277 471.612C815.628 471.068 813.105 467.631 813.642 463.937C814.18 460.242 817.574 457.689 821.224 458.233C824.874 458.778 827.395 462.214 826.858 465.908Z" fill="#3F6FDB"/>
<path d="M652.969 597.928C661.869 597.407 683.055 501.874 691.479 456.569C696.921 447.848 708.755 422.926 709.924 386.889C709.924 386.889 737.961 407.462 761.896 414.314C785.83 421.168 800.473 420.958 802.209 419.24C803.921 417.486 768.751 406.171 759.206 395.032C761.028 395.864 823.249 425.168 852.2 427.474C855.594 427.75 859.787 357.032 814.456 326.894C781.94 305.309 730.879 304.194 697.444 312.273C697.444 312.273 697.42 312.239 697.386 312.263C684.208 315.443 673.81 320.046 668.332 325.371C668.332 325.371 641.346 342.897 627.015 376.251C624.707 381.569 620.555 426.833 619.076 432.966C609.119 473.913 638.951 598.734 652.969 597.928Z" fill="#3D6DDA"/>
<path fill-rule="evenodd" clip-rule="evenodd" d="M652.452 463.664C651.512 476.443 663.61 506.577 677.593 505.706C688.086 505.068 689.54 479.207 690.47 466.427C690.5 466.028 690.522 465.63 690.54 465.232C691.075 452.374 679.695 441.753 667.245 444.357C666.763 444.457 666.289 444.579 665.818 444.728C655.147 448.084 653.099 454.794 652.452 463.664Z" fill="#DEE6F9"/>
<path d="M681.497 484.245C681.695 484.26 681.897 484.23 682.082 484.201C683.378 483.975 684.233 482.717 683.995 481.388C682.265 470.893 676.801 463.258 668.622 459.864C667.414 459.365 666.043 459.958 665.544 461.209C665.055 462.442 665.638 463.863 666.83 464.354C673.465 467.111 677.915 473.471 679.368 482.232C679.563 483.353 680.455 484.164 681.497 484.245Z" fill="#B5C8F1"/>
<path d="M665.737 483.432C666.876 483.514 667.959 482.68 668.177 481.463C669.055 477.007 672.291 473.484 677.307 471.512C678.5 471.03 679.125 469.63 678.65 468.356C678.191 467.117 676.858 466.471 675.638 466.97C669.059 469.555 664.765 474.374 663.582 480.528C663.333 481.859 664.173 483.137 665.427 483.386C665.513 483.406 665.609 483.408 665.737 483.432Z" fill="#B5C8F1"/>
<path fill-rule="evenodd" clip-rule="evenodd" d="M833.17 389.211C833.17 389.211 803.107 338.074 744.245 322.664L772.247 351.816C772.247 351.816 727.537 345.988 710.753 327.36C710.753 327.36 727.567 361.091 776.89 368.074C776.89 368.074 812.735 370.169 833.17 389.211Z" fill="#4D79DD"/>
<path d="M625.677 604.395L590.988 711.521L627.446 734.196L590.988 778.655L641.732 845.431L612.484 777.822L639.101 731.424L612.484 706.553L625.677 604.395Z" fill="#809FE7"/>
<path d="M773.74 606.746L832.082 648.869L825.53 673.504L856.81 689.75L849.224 718.373V695.665L813.663 675.973L820.293 652.655L773.74 606.746Z" fill="#809FE7"/>
<path d="M665.632 569.098C665.632 569.098 638.597 577.266 629.133 590.41C624.342 597.064 612.483 706.555 612.483 706.555L650.256 608.853C650.256 608.853 660.784 588.833 665.632 569.098Z" fill="#BACBF2"/>
<path d="M2088.13 1322.16C2083.71 1325.33 2079.07 1328.51 2074.22 1331.69C2073.78 1331.98 2073.35 1332.26 2072.91 1332.54C2070.73 1333.96 2068.5 1335.38 2066.24 1336.8C2065.78 1337.08 2065.33 1337.37 2064.88 1337.65C2063.51 1338.5 2062.13 1339.35 2060.73 1340.2C2060.27 1340.49 2059.8 1340.77 2059.33 1341.05C2058.87 1341.34 2058.4 1341.62 2057.93 1341.9C2057.46 1342.18 2056.98 1342.47 2056.51 1342.75C2056.04 1343.03 2055.56 1343.31 2055.08 1343.6C2053.13 1344.75 2051.15 1345.91 2049.15 1347.07C2048.58 1347.4 2048 1347.72 2047.43 1348.05C2047.07 1348.26 2046.71 1348.46 2046.36 1348.66C2045.86 1348.94 2045.37 1349.23 2044.87 1349.51C2044.38 1349.78 2043.88 1350.07 2043.38 1350.35C2042.97 1350.57 2042.56 1350.81 2042.14 1351.04C2037.46 1353.65 2032.67 1356.25 2027.78 1358.82C2027.03 1359.22 2026.27 1359.62 2025.52 1360.01C2023.63 1360.99 2021.73 1361.97 2019.82 1362.95C2018.85 1363.44 2017.88 1363.93 2016.91 1364.42C2009.78 1368.02 2002.47 1371.55 1995.01 1375.02C1994.03 1375.47 1993.04 1375.93 1992.05 1376.38C1990.92 1376.91 1989.78 1377.42 1988.64 1377.94C1987.51 1378.45 1986.38 1378.97 1985.25 1379.47C1985.24 1379.48 1985.23 1379.48 1985.22 1379.48C1984.08 1380 1982.93 1380.51 1981.78 1381.02C1980.63 1381.53 1979.48 1382.03 1978.32 1382.54L1975.34 1383.84C1974.46 1384.22 1973.57 1384.6 1972.68 1384.98C1971.91 1385.31 1971.13 1385.64 1970.35 1385.97C1969.51 1386.33 1968.67 1386.69 1967.82 1387.04C1966.66 1387.53 1965.5 1388.02 1964.34 1388.5C1963.16 1388.98 1961.98 1389.47 1960.8 1389.96C1959.77 1390.38 1958.74 1390.8 1957.7 1391.22C1956.32 1391.78 1954.95 1392.33 1953.57 1392.88C1952.43 1393.34 1951.28 1393.79 1950.14 1394.24C1948.89 1394.74 1947.64 1395.23 1946.39 1395.71C1945.25 1396.15 1944.11 1396.58 1942.98 1397.03C1942.77 1397.11 1942.55 1397.19 1942.34 1397.27C1941.35 1397.65 1940.37 1398.02 1939.38 1398.39C1938.18 1398.85 1936.98 1399.3 1935.78 1399.75C1933.37 1400.64 1930.96 1401.52 1928.55 1402.4C1927.34 1402.84 1926.14 1403.27 1924.93 1403.7C1923.83 1404.09 1922.72 1404.48 1921.62 1404.88C1921.51 1404.91 1921.41 1404.95 1921.3 1404.98C1920.09 1405.41 1918.88 1405.83 1917.67 1406.25C1909.19 1409.19 1900.68 1411.97 1892.19 1414.57V1414.58C1888.33 1415.76 1884.48 1416.92 1880.63 1418.02C1879.96 1418.22 1879.29 1418.41 1878.61 1418.6C1873.52 1420.06 1868.43 1421.45 1863.37 1422.77C1862.57 1422.98 1861.77 1423.19 1860.97 1423.39C1860.37 1423.55 1859.77 1423.7 1859.17 1423.85C1858.32 1424.07 1857.46 1424.28 1856.6 1424.49C1855.74 1424.71 1854.89 1424.92 1854.04 1425.13C1853.18 1425.34 1852.32 1425.55 1851.47 1425.75C1850.62 1425.96 1849.76 1426.16 1848.91 1426.35C1847.3 1426.73 1845.69 1427.11 1844.09 1427.47C1842.98 1427.72 1841.87 1427.97 1840.76 1428.21C1840.09 1428.36 1839.41 1428.51 1838.74 1428.65C1833.67 1429.75 1828.65 1430.76 1823.68 1431.68C1823.06 1431.8 1822.43 1431.91 1821.81 1432.03C1821.45 1432.1 1821.1 1432.16 1820.75 1432.22C1820.07 1432.34 1819.4 1432.47 1818.73 1432.58C1816.25 1433.01 1813.8 1433.42 1811.36 1433.81C1810.62 1433.93 1809.88 1434.04 1809.15 1434.16C1806.57 1434.56 1804.01 1434.93 1801.47 1435.26C1800.82 1435.36 1800.16 1435.44 1799.51 1435.53C1799.36 1435.55 1799.22 1435.57 1799.09 1435.58C1798.35 1435.67 1797.62 1435.77 1796.89 1435.86C1796.1 1435.96 1795.31 1436.05 1794.52 1436.15L1711.55 1438.43L1588.33 1438.48L1249.52 1438.58L994.179 1438.67L482.558 1438.84C471.78 1438.84 461.337 1437.88 451.265 1436.04C432.048 1432.53 414.2 1425.84 398.01 1416.58V1322.16H2088.13Z" fill="#B8C9F2"/>
<path d="M1946.39 1316.19V1322.16H397.68V1316.19C397.68 1292.14 416.943 1272.64 440.7 1272.64H1903.36C1927.12 1272.64 1946.39 1292.14 1946.39 1316.19Z" fill="#658BE2"/>
<path d="M295.985 562.519V599.71C295.985 620.613 312.752 637.587 333.399 637.587H407.059C427.481 649.602 468.427 669.716 470.537 671.852C472.421 673.759 456.154 653.417 449.07 636.977C466.515 633.734 479.702 618.286 479.702 599.709V562.519C479.702 541.615 462.973 524.641 442.288 524.641H333.399C312.752 524.641 295.985 541.615 295.985 562.519Z" fill="#6A8EE3"/>
<path d="M310.581 555.221V592.412C310.581 613.315 327.348 630.29 347.995 630.29H421.655C442.077 642.305 475.408 662.722 477.518 664.858C479.402 666.765 470.75 646.12 463.666 629.68C481.111 626.438 494.298 610.989 494.298 592.412V555.222C494.298 534.318 477.569 517.344 456.884 517.344H347.995C327.348 517.343 310.581 534.317 310.581 555.221Z" fill="#90ABEA"/>
<path d="M367.838 582.63C372.904 582.63 377.01 578.473 377.01 573.344C377.01 568.216 372.904 564.059 367.838 564.059C362.772 564.059 358.666 568.216 358.666 573.344C358.666 578.473 362.772 582.63 367.838 582.63Z" fill="white"/>
<path d="M403.638 582.63C408.703 582.63 412.81 578.473 412.81 573.344C412.81 568.216 408.703 564.059 403.638 564.059C398.572 564.059 394.466 568.216 394.466 573.344C394.466 578.473 398.572 582.63 403.638 582.63Z" fill="white"/>
<path d="M438.241 582.579C443.307 582.579 447.413 578.422 447.413 573.294C447.413 568.165 443.307 564.008 438.241 564.008C433.176 564.008 429.069 568.165 429.069 573.294C429.069 578.422 433.176 582.579 438.241 582.579Z" fill="white"/>
<path d="M477.946 664.433L470.537 671.856L407.059 637.591L421.655 630.293L477.946 664.433Z" fill="#6A8EE3"/>
<path d="M2133.96 696.3V733.491C2133.96 754.394 2117.2 771.368 2096.55 771.368H2022.89C2002.47 783.384 1961.52 803.497 1959.41 805.633C1957.53 807.54 1973.8 787.198 1980.88 770.758C1963.44 767.515 1950.25 752.067 1950.25 733.491V696.3C1950.25 675.396 1966.98 658.422 1987.66 658.422H2096.55C2117.2 658.422 2133.96 675.396 2133.96 696.3Z" fill="#6A8EE3"/>
<path d="M2119.37 689.002V726.193C2119.37 747.096 2102.6 764.071 2081.96 764.071H2008.3C1987.87 776.086 1954.54 796.503 1952.43 798.639C1950.55 800.546 1959.2 779.901 1966.28 763.461C1948.84 760.219 1935.65 744.77 1935.65 726.194V689.003C1935.65 668.1 1952.38 651.125 1973.07 651.125H2081.95C2102.6 651.124 2119.37 668.099 2119.37 689.002Z" fill="#90ABEA"/>
<path d="M2062.11 716.411C2057.05 716.411 2052.94 712.254 2052.94 707.126C2052.94 701.997 2057.05 697.84 2062.11 697.84C2067.18 697.84 2071.28 701.997 2071.28 707.126C2071.28 712.254 2067.18 716.411 2062.11 716.411Z" fill="white"/>
<path d="M2026.31 716.411C2021.24 716.411 2017.14 712.254 2017.14 707.126C2017.14 701.997 2021.24 697.84 2026.31 697.84C2031.38 697.84 2035.48 701.997 2035.48 707.126C2035.48 712.254 2031.38 716.411 2026.31 716.411Z" fill="white"/>
<path d="M1991.71 716.36C1986.64 716.36 1982.54 712.203 1982.54 707.075C1982.54 701.946 1986.64 697.789 1991.71 697.789C1996.77 697.789 2000.88 701.946 2000.88 707.075C2000.88 712.203 1996.77 716.36 1991.71 716.36Z" fill="white"/>
<path d="M1952 798.21L1959.41 805.633L2022.89 771.369L2008.29 764.07L1952 798.21Z" fill="#6A8EE3"/>
<path d="M2026.22 1250.85C1984.99 1351.46 1916.59 1312.32 1915.89 1311.76C1994.91 1293.62 2012.79 1210.01 2012.79 1210.01C2012.79 1210.01 2019.02 1229.07 2026.22 1250.85Z" fill="#B5C8F1"/>
<path d="M1654.85 1365.48C1650.34 1365.48 1647.05 1365.29 1646.78 1365.28L1646.99 1361.7C1647.11 1361.71 1659.52 1362.4 1669.31 1361.07C1684.11 1359.05 1709.91 1346.54 1710.17 1346.42L1711.74 1349.64C1710.67 1350.17 1685.17 1362.53 1669.79 1364.62C1664.79 1365.3 1659.24 1365.48 1654.85 1365.48Z" fill="#B5C8F1"/>
<path d="M1672.45 1378.2L1672.01 1374.64C1672.3 1374.61 1701.1 1370.92 1716.7 1360.98L1718.62 1364C1711.77 1368.37 1701.9 1372.09 1689.31 1375.06C1679.98 1377.25 1672.75 1378.16 1672.45 1378.2Z" fill="#B5C8F1"/>
<path d="M1490.76 1270.69L1444.54 1307.14C1419.54 1322.2 1395.87 1314.33 1395.87 1314.33L1198.09 1272.64L1209.91 1214.41L1410.92 1176.45L1450.06 1128.8C1450.3 1134.86 1454.37 1222.47 1490.76 1270.69Z" fill="#DEE6F9"/>
<path d="M1490.76 1270.69L1468.58 1288.18C1435.8 1236.92 1448.98 1136.18 1449.99 1128.88L1450.06 1128.8C1450.3 1134.86 1454.37 1222.46 1490.76 1270.69Z" fill="#B5C8F1"/>
<path d="M2015.67 1207.01C1982.64 1304.83 1915.89 1311.76 1915.89 1311.76L1891.81 1240.13C1891.81 1240.13 1878.74 1260.15 1873.92 1275.56C1873.92 1275.56 1873.92 1275.57 1873.91 1275.58C1873.77 1276.05 1873.65 1276.66 1873.56 1277.37C1873.56 1277.38 1873.55 1277.4 1873.55 1277.41C1872.71 1284.22 1874.31 1301.41 1876.97 1322.16C1880.71 1351.33 1886.55 1387.52 1890.62 1411.79C1876.31 1417.83 1861.51 1422.91 1846.29 1426.97C1828.46 1431.07 1811.07 1434.21 1794.52 1436.14L1711.55 1438.43L1588.33 1438.48L1585.49 1396.05L1580.54 1322.16L1578.03 1284.8C1550.51 1259.38 1550.51 1235.51 1550.51 1235.51L1499.59 1280.95C1453.49 1234.74 1450.04 1128.45 1450.04 1128.45C1505.78 1071.45 1563.38 970.181 1608.11 940.914C1652.83 911.648 1711.53 940.523 1711.53 940.523C1841.58 880.452 1874.23 962.862 1874.23 962.862C1932.33 971.333 1943.41 1016 1943.41 1016L1973.34 1095.13L1992.35 1145.38L2009.36 1190.35L2015.67 1207.01Z" fill="#C7D5F5"/>
<path d="M1513.4 1099.15C1513.4 1099.15 1598.72 959.775 1646.89 970.158L1513.4 1099.15Z" fill="#E6EDFA"/>
<path d="M2015.66 1207.01C1982.63 1304.83 1915.89 1311.76 1915.89 1311.76L1891.8 1240.13C1891.8 1240.13 1912.71 1260.28 1949.78 1243.57C1969.03 1234.88 1998.95 1204.94 2009.36 1190.36L2015.66 1207.01Z" fill="#5C84E0"/>
<path d="M1874.23 962.863C1851.7 973.242 1827.23 977.343 1802.99 974.569C1749.21 968.418 1711.53 940.524 1711.53 940.524C1841.58 880.452 1874.23 962.863 1874.23 962.863Z" fill="#6A8EE3"/>
<path d="M1630.37 1160.55L1550.51 1235.51L1499.59 1280.96C1453.49 1234.74 1450.04 1128.46 1450.04 1128.46C1450.04 1128.46 1469.13 1213.47 1490.76 1222.15C1512.3 1230.8 1629.51 1161.06 1630.37 1160.55Z" fill="#A8BDEF"/>
<path d="M1411.37 1174.54L1393.48 1200.6L1396.44 1202.63L1414.33 1176.57L1411.37 1174.54Z" fill="#B5C8F1"/>
<path fill-rule="evenodd" clip-rule="evenodd" d="M1813.71 824.826C1810.95 835.152 1805.37 844.1 1798.11 851.834C1798.4 852.512 1798.64 853.113 1798.81 853.596C1800.9 859.411 1797.77 876.295 1795.68 888.468C1794.35 896.197 1786.5 909.276 1776.8 919.991C1758.41 922.555 1736.81 928.847 1711.53 940.522L1703.97 895.942C1677.38 881.113 1661.89 858.517 1672.6 815.26C1670.97 807.899 1663.92 806.121 1663.64 798.333C1663.44 793.948 1673.12 787.249 1677.6 783.634C1682.18 779.997 1685.7 775.851 1688.87 771.921C1689.79 770.756 1690.71 769.58 1691.62 768.452C1705.48 751.184 1703.33 722.262 1716.81 713.249C1728.04 705.758 1753.69 701.64 1772.54 704.198C1782.91 729.108 1824.21 785.482 1813.71 824.826Z" fill="#DEE6F9"/>
<path d="M1766.43 822.186C1766.26 822.199 1766.09 822.173 1765.94 822.148C1764.85 821.948 1764.13 820.841 1764.33 819.671C1765.79 810.433 1770.38 803.712 1777.26 800.726C1778.28 800.286 1779.43 800.809 1779.85 801.91C1780.26 802.995 1779.77 804.246 1778.77 804.677C1773.19 807.104 1769.44 812.703 1768.22 820.414C1768.06 821.401 1767.31 822.114 1766.43 822.186Z" fill="#B5C8F1"/>
<path d="M1779.69 821.467C1778.73 821.54 1777.82 820.805 1777.64 819.734C1776.9 815.812 1774.17 812.711 1769.96 810.975C1768.95 810.551 1768.43 809.318 1768.83 808.198C1769.21 807.107 1770.33 806.538 1771.36 806.977C1776.89 809.252 1780.51 813.493 1781.5 818.911C1781.71 820.083 1781 821.207 1779.95 821.426C1779.88 821.445 1779.8 821.447 1779.69 821.467Z" fill="#B5C8F1"/>
<path fill-rule="evenodd" clip-rule="evenodd" d="M1709.38 751.586C1707.39 753.55 1718.46 754.542 1725.54 762.642C1732.57 770.73 1734.53 778.65 1736.49 776.696C1738.48 774.737 1736.39 762.545 1729.32 754.411C1722.24 746.343 1711.36 749.633 1709.38 751.586Z" fill="#3D6DDA"/>
<path d="M1717.75 780.964C1716.72 784.591 1713.11 786.647 1709.69 785.556C1706.26 784.465 1704.32 780.64 1705.35 777.013C1706.38 773.386 1709.99 771.331 1713.42 772.421C1716.84 773.513 1718.78 777.338 1717.75 780.964Z" fill="#3F6FDB"/>
<path d="M1663.64 798.332C1663.92 806.121 1670.97 807.896 1672.6 815.256C1672.6 815.256 1679.55 811.242 1673.82 804.559C1668.07 797.921 1668.98 798.629 1674.61 792.328C1679.67 786.673 1692.22 778.878 1688.87 771.922C1685.7 775.844 1682.18 779.994 1677.6 783.631C1673.12 787.251 1663.44 793.945 1663.64 798.332Z" fill="#B5C8F1"/>
<path d="M1702.33 813.148C1700.14 820.316 1703.84 828.011 1710.61 830.336C1717.37 832.662 1724.64 828.736 1726.83 821.568C1729.03 814.401 1725.32 806.706 1718.56 804.381C1711.79 802.055 1704.53 805.981 1702.33 813.148Z" fill="#B5C8F1"/>
<path d="M1708.45 836.414C1707.47 835.212 1705.73 835.082 1704.58 836.127C1704.24 836.416 1696.25 843.421 1683.26 833.233C1682.06 832.265 1680.31 832.538 1679.41 833.828C1678.5 835.134 1678.77 836.95 1679.98 837.919C1682.9 840.209 1685.63 841.784 1688.16 842.837C1700.22 847.809 1707.84 840.864 1708.22 840.5C1709.35 839.446 1709.46 837.632 1708.45 836.414Z" fill="#B5C8F1"/>
<path d="M1928.28 957.042C1928.28 957.042 1862.45 1073.86 1723.18 999.147C1723.18 999.147 1775.25 875.86 1770 839.454C1770.44 839.561 1770.88 839.689 1771.34 839.769C1784.56 842.006 1797.28 830.543 1799.75 814.159C1802.22 797.78 1793.51 782.683 1780.29 780.447C1770.4 778.77 1760.79 784.773 1755.54 794.767C1698.61 736.794 1716.24 641.114 1743.34 659.921C1752.84 666.515 1765.06 671.117 1778.25 674.791C1785.59 676.837 1793.23 678.599 1800.87 680.258C1804.11 680.96 1807.35 681.648 1810.56 682.327C1819.02 684.11 1827.32 685.868 1835.05 687.847C1841.88 689.599 1848.27 691.53 1853.93 693.806C1853.93 693.806 1901.28 711.33 1903.16 775.494C1903.22 777.487 1903.24 779.524 1903.21 781.605C1903.16 785.061 1902.98 788.647 1902.66 792.362C1902.16 798.109 1901.33 804.17 1900.1 810.556C1899.11 815.766 1897.86 821.197 1896.32 826.851C1895.72 829.078 1895.07 831.342 1894.38 833.64C1863.96 934.428 1928.28 957.042 1928.28 957.042Z" fill="#4875DD"/>
<path d="M1903.21 781.606C1903.16 785.063 1902.98 788.649 1902.66 792.363C1896.89 796.193 1890.68 798.691 1884.16 799.774C1877.71 800.839 1871.6 796.317 1870.13 789.577C1868.86 783.803 1868.12 778.922 1868.15 776.504C1868.24 768.889 1837.52 784.274 1830.82 767.291C1824.13 750.313 1809.95 727.299 1802.88 726.119C1780.44 722.355 1782.33 690.192 1778.25 674.793C1785.59 676.839 1793.23 678.601 1800.87 680.26C1804.11 680.961 1807.35 681.649 1810.56 682.328C1814.43 692.725 1814.03 706.074 1819.29 704.299C1830.29 700.567 1838.58 728.457 1838.15 738.677C1837.73 748.902 1849.28 754.528 1849.28 754.528C1849.28 754.528 1880.15 740.133 1883.35 758.092C1886.35 774.99 1893.02 780.231 1903.16 775.496C1903.22 777.488 1903.24 779.525 1903.21 781.606Z" fill="#5C84E0"/>
<path d="M1753.69 841.261C1753.69 847.45 1758.42 852.468 1764.27 852.468C1770.11 852.468 1774.85 847.45 1774.85 841.261C1774.85 835.072 1770.11 830.055 1764.27 830.055C1758.42 830.055 1753.69 835.072 1753.69 841.261Z" fill="white"/>
<path d="M1703.92 896.089C1703.92 896.089 1712.87 897.37 1723.56 896.141C1730.68 895.323 1753.38 888.91 1753.38 888.91C1753.38 888.91 1738.16 913.352 1708.1 920.319L1703.92 896.089Z" fill="#B5C8F1"/>
<path d="M1873.55 1277.41C1872.71 1284.22 1874.31 1301.41 1876.97 1322.16C1880.71 1351.33 1888.12 1390.3 1892.19 1414.57V1414.58C1858.52 1424.92 1825.07 1432.56 1794.52 1436.15L1711.55 1438.43L1588.33 1438.48L1580.54 1322.16L1578.03 1284.8L1584.65 1322.16L1597.33 1393.81C1600.17 1409.89 1614.25 1421.4 1630.37 1420.83C1650.63 1420.13 1679.66 1418.9 1709.98 1416.93C1738.94 1415.04 1769.08 1412.48 1793.92 1409.02C1810.85 1406.67 1825.32 1403.91 1835.26 1400.67C1860.84 1392.33 1855.74 1365.35 1848.41 1322.16C1843.91 1295.59 1841.29 1272.02 1850.83 1264.86C1882.65 1240.96 1907.41 1187.37 1919.72 1156.39C1925.26 1142.44 1928.28 1133.08 1928.28 1133.08C1927.84 1140.16 1926.59 1147.75 1924.8 1155.5C1915.52 1195.72 1891.81 1240.13 1891.81 1240.13C1891.81 1240.13 1878.74 1260.15 1873.92 1275.56C1873.92 1275.56 1873.92 1275.57 1873.91 1275.59C1873.77 1276.05 1873.65 1276.66 1873.56 1277.37C1873.56 1277.38 1873.55 1277.4 1873.55 1277.41Z" fill="#A8BDEF"/>
<path d="M1202.87 1271.15C1172.17 1281.89 1141.23 1270.45 1124.7 1243.92C1124.7 1243.92 1082.28 1258.99 1076.74 1245.88C1074.44 1240.44 1081.7 1235.21 1090.24 1231.14C1078.04 1234.8 1064.78 1237.16 1062.04 1231.34C1059.44 1225.82 1064.25 1220.66 1071.36 1216.36C1060.83 1219.21 1051.2 1219.8 1049.25 1213.38C1046.26 1203.57 1064.15 1195.61 1077.39 1191.16C1064.11 1194.53 1045.58 1197.66 1044.48 1189.33C1042.57 1174.89 1095.56 1164.84 1108.27 1164.6C1116.75 1164.45 1133.91 1170.89 1143.54 1175.61C1151.91 1179.71 1201.44 1209.86 1209.91 1214.41L1202.87 1271.15Z" fill="#DEE6F9"/>
<path d="M1104.32 1182.99C1069.79 1188.04 1054.23 1202.36 1054.71 1202.07C1066.1 1195.3 1085.21 1189.28 1090.57 1187.69C1095.92 1186.11 1099.03 1184.81 1104.38 1183.22C1104.52 1183.18 1104.45 1182.97 1104.32 1182.99Z" fill="#B5C8F1"/>
<path d="M1111.97 1203.96C1095.48 1205.16 1077.33 1212.52 1071.43 1216.15C1070.96 1216.45 1071.18 1216.6 1071.7 1216.42C1078.47 1214.19 1105.19 1206 1112.02 1204.14C1112.12 1204.11 1112.08 1203.95 1111.97 1203.96Z" fill="#B5C8F1"/>
<path d="M1119.64 1221.52C1104.97 1223.84 1098.61 1226.53 1088.51 1232C1088.02 1232.26 1088.37 1232.49 1088.9 1232.3C1099.19 1228.6 1107.24 1225.62 1119.7 1221.94C1119.9 1221.88 1119.87 1221.49 1119.64 1221.52Z" fill="#B5C8F1"/>
<path d="M2104.74 1309.43C2101.86 1311.79 2098.92 1314.1 2095.93 1316.39C2089.29 1321.46 2082.02 1326.58 2074.22 1331.69C2073.78 1331.98 2073.35 1332.26 2072.91 1332.55C2070.73 1333.97 2068.5 1335.39 2066.24 1336.81C2065.78 1337.09 2065.33 1337.37 2064.88 1337.66C2063.51 1338.51 2062.13 1339.36 2060.73 1340.21C2060.27 1340.49 2059.8 1340.77 2059.33 1341.06C2058.87 1341.34 2058.39 1341.62 2057.93 1341.9C2057.46 1342.19 2056.98 1342.47 2056.51 1342.75C2056.04 1343.04 2055.56 1343.32 2055.08 1343.6C2053.13 1344.76 2051.15 1345.91 2049.15 1347.07C2048.58 1347.4 2048 1347.73 2047.43 1348.06C2047.07 1348.26 2046.71 1348.46 2046.36 1348.67C2045.86 1348.95 2045.37 1349.23 2044.87 1349.51C2044.38 1349.79 2043.88 1350.07 2043.38 1350.35C2042.97 1350.58 2042.56 1350.81 2042.14 1351.04C2037.46 1353.66 2032.67 1356.25 2027.78 1358.83C2027.03 1359.22 2026.27 1359.62 2025.52 1360.01C2023.63 1361 2021.73 1361.98 2019.82 1362.96C2018.85 1363.45 2017.88 1363.94 2016.91 1364.43C2009.78 1368.02 2002.47 1371.56 1995.01 1375.02C1994.03 1375.48 1993.04 1375.94 1992.05 1376.39C1990.92 1376.91 1989.78 1377.43 1988.64 1377.94C1987.51 1378.46 1986.38 1378.97 1985.25 1379.48C1985.24 1379.48 1985.23 1379.49 1985.22 1379.49C1984.08 1380 1982.93 1380.51 1981.78 1381.02C1980.63 1381.53 1979.48 1382.04 1978.32 1382.54L1975.34 1383.84C1974.45 1384.22 1973.57 1384.6 1972.68 1384.98C1971.91 1385.31 1971.13 1385.65 1970.35 1385.98C1969.51 1386.34 1968.67 1386.69 1967.82 1387.05C1966.66 1387.53 1965.5 1388.02 1964.34 1388.5C1963.16 1388.99 1961.98 1389.48 1960.8 1389.96C1959.77 1390.38 1958.74 1390.8 1957.7 1391.23C1956.32 1391.78 1954.95 1392.34 1953.57 1392.88C1952.43 1393.34 1951.28 1393.8 1950.14 1394.25C1948.89 1394.74 1947.64 1395.23 1946.39 1395.72C1945.25 1396.15 1944.11 1396.59 1942.98 1397.03C1942.77 1397.11 1942.55 1397.19 1942.34 1397.27C1941.35 1397.65 1940.37 1398.02 1939.38 1398.39C1938.18 1398.85 1936.98 1399.3 1935.78 1399.75C1933.37 1400.65 1930.96 1401.53 1928.55 1402.4C1927.34 1402.84 1926.14 1403.27 1924.93 1403.71C1923.82 1404.1 1922.72 1404.49 1921.62 1404.88C1921.51 1404.91 1921.41 1404.95 1921.3 1404.99C1920.09 1405.41 1918.88 1405.83 1917.67 1406.26C1909.19 1409.19 1900.68 1411.97 1892.19 1414.58V1414.58C1888.33 1415.77 1884.48 1416.92 1880.63 1418.03C1879.96 1418.22 1879.29 1418.41 1878.61 1418.61C1873.52 1420.07 1868.43 1421.45 1863.37 1422.77C1862.57 1422.99 1861.77 1423.19 1860.97 1423.39C1860.37 1423.55 1859.77 1423.7 1859.17 1423.85C1858.32 1424.07 1857.46 1424.28 1856.6 1424.5C1855.74 1424.71 1854.89 1424.92 1854.03 1425.13C1853.18 1425.34 1852.32 1425.55 1851.47 1425.75C1850.62 1425.96 1849.76 1426.16 1848.91 1426.36C1848.04 1426.57 1847.16 1426.77 1846.29 1426.97C1846.27 1426.98 1846.24 1426.98 1846.22 1426.99C1845.51 1427.15 1844.8 1427.32 1844.09 1427.47C1842.98 1427.73 1841.87 1427.97 1840.76 1428.21C1840.09 1428.37 1839.41 1428.51 1838.74 1428.66C1833.67 1429.75 1828.65 1430.76 1823.68 1431.69C1823.06 1431.81 1822.43 1431.92 1821.8 1432.03C1821.45 1432.1 1821.1 1432.16 1820.75 1432.22C1820.07 1432.35 1819.39 1432.47 1818.73 1432.58C1816.25 1433.02 1813.8 1433.43 1811.36 1433.81C1810.62 1433.93 1809.88 1434.05 1809.15 1434.16C1806.57 1434.56 1804.01 1434.93 1801.47 1435.27C1800.82 1435.36 1800.16 1435.44 1799.51 1435.53C1799.36 1435.55 1799.22 1435.57 1799.09 1435.59C1798.35 1435.68 1797.62 1435.77 1796.89 1435.86C1796.1 1435.96 1795.31 1436.05 1794.52 1436.15L1711.55 1438.44C1711.55 1438.44 1710.78 1430.43 1709.98 1416.93C1708.71 1395.69 1707.33 1360.84 1708.66 1322.16C1710.16 1278.29 1715.13 1229.48 1727.68 1189.99C1739.85 1151.7 1771.8 1123.28 1810.83 1115.75C1853.2 1107.58 1919.28 1096.55 1973.34 1095.13C2007.61 1094.24 2037.05 1097.21 2052.56 1107.24C2062.14 1113.44 2070 1125.04 2076.45 1139.97C2095.95 1185.12 2102.53 1260.73 2104.74 1309.43Z" fill="#87A4E8"/>
<path d="M2104.74 1309.43C2101.86 1311.79 2098.92 1314.1 2095.93 1316.38C2048.68 1352.48 1969.84 1390.72 1892.19 1414.57V1414.58C1876.76 1419.32 1861.37 1423.49 1846.29 1426.97C1846.27 1426.98 1846.24 1426.98 1846.22 1426.99C1828.42 1431.08 1811.05 1434.21 1794.52 1436.15C1794.23 1427.86 1794.01 1418.75 1793.92 1409.02C1793.67 1382.99 1794.37 1352.62 1797.22 1322.16C1800.07 1291.75 1805.07 1261.27 1813.44 1234.92C1825.61 1196.63 1857.56 1168.21 1896.59 1160.68C1903.69 1159.31 1911.46 1157.86 1919.72 1156.39C1921.4 1156.1 1923.08 1155.79 1924.8 1155.5C1945.38 1151.9 1968.71 1148.25 1992.35 1145.38C2021.4 1141.86 2050.93 1139.53 2076.45 1139.97C2095.95 1185.12 2102.53 1260.73 2104.74 1309.43Z" fill="#6A8EE3"/>
</g>
<defs>
<clipPath id="clip0_74_4714">
<rect width="2439.76" height="1626.51" fill="white"/>
</clipPath>
</defs>
</svg>
