<svg width="2440" height="1627" viewBox="0 0 2440 1627" fill="none" xmlns="http://www.w3.org/2000/svg">
<g clip-path="url(#clip0_74_5627)">
<path d="M1797.07 441.655V1057.32C1797.07 1082.3 1783.43 1103.8 1763.95 1113.31C1763.69 1113.42 1763.45 1113.54 1763.19 1113.66C1758.41 1115.87 1753.34 1117.38 1748.04 1118.08C1745.93 1118.37 1743.76 1118.49 1741.62 1118.49H761.155C758.964 1118.49 756.8 1118.37 754.715 1118.08C749.41 1117.38 744.316 1115.87 739.566 1113.69C739.302 1113.54 739.038 1113.42 738.774 1113.31C719.271 1103.8 705.652 1082.3 705.652 1057.32V441.655C705.652 407.947 730.567 380.52 761.155 380.52H1741.62C1772.19 380.52 1797.07 407.947 1797.07 441.655Z" fill="#6188E1"/>
<path d="M1739.46 419.891H763.319C750.229 419.891 739.566 431.176 739.566 445.053V1082.93C744.317 1085.02 749.411 1086.47 754.715 1087.14C756.8 1087.42 758.965 1087.53 761.155 1087.53H1741.62C1743.76 1087.53 1745.93 1087.42 1748.04 1087.14C1753.34 1086.47 1758.41 1085.02 1763.19 1082.91V445.053C1763.19 431.176 1752.55 419.891 1739.46 419.891Z" fill="white"/>
<path d="M1763.94 445.745V475.648H738.781V445.745C738.781 429.068 748.819 415.484 761.143 415.484H1741.61C1753.9 415.484 1763.94 429.068 1763.94 445.745Z" fill="#A8BDEF"/>
<path d="M806.695 453.232C810.612 453.232 813.788 449.879 813.788 445.743C813.788 441.607 810.612 438.254 806.695 438.254C802.777 438.254 799.602 441.607 799.602 445.743C799.602 449.879 802.777 453.232 806.695 453.232Z" fill="white"/>
<path d="M829.185 453.232C833.102 453.232 836.278 449.879 836.278 445.743C836.278 441.607 833.102 438.254 829.185 438.254C825.267 438.254 822.092 441.607 822.092 445.743C822.092 449.879 825.267 453.232 829.185 453.232Z" fill="white"/>
<path d="M1702.63 450.609H870.356C867.252 450.609 864.736 448.093 864.736 444.99V444.354C864.736 441.25 867.252 438.734 870.356 438.734H1702.63C1705.74 438.734 1708.25 441.25 1708.25 444.354V444.99C1708.25 448.093 1705.74 450.609 1702.63 450.609Z" fill="#7597E5"/>
<path d="M1009.83 450.326H959.077C955.986 450.326 953.48 447.821 953.48 444.73V444.331C953.48 441.24 955.986 438.734 959.077 438.734H1009.83C1012.92 438.734 1015.43 441.24 1015.43 444.331V444.73C1015.43 447.821 1012.92 450.326 1009.83 450.326Z" fill="white"/>
<path d="M784.204 453.232C788.122 453.232 791.297 449.879 791.297 445.743C791.297 441.607 788.122 438.254 784.204 438.254C780.287 438.254 777.111 441.607 777.111 445.743C777.111 449.879 780.287 453.232 784.204 453.232Z" fill="white"/>
<path d="M542.654 1122.21C542.654 1122.21 409.056 1094.58 372.104 949.723C335.153 804.863 441.57 690.08 480.324 691.752C519.078 693.425 585.865 824.102 587.299 924.902C588.733 1025.7 572.327 1100.91 542.654 1122.21Z" fill="#7093E4"/>
<path d="M490.537 796.141L428.551 732.873L429.693 731.762L491.094 794.27L490.537 796.141Z" fill="#5A83E0"/>
<path d="M488.653 814.203C471.254 817.118 402.126 773.819 399.129 771.934L399.982 770.59C400.726 771.059 474.564 817.328 489.223 812.433L489.728 813.942C489.396 814.052 489.036 814.139 488.653 814.203Z" fill="#5A83E0"/>
<path d="M485.343 861.647L484.637 860.22C487.925 858.606 526.464 812.968 551.565 782.688L552.797 783.7C546.383 791.437 489.998 859.362 485.343 861.647Z" fill="#5A83E0"/>
<path d="M482.633 889.733L392.453 783.865L393.671 782.836L483.851 888.704L482.633 889.733Z" fill="#5A83E0"/>
<path d="M483.422 952.177C472.009 944.086 388.207 806.787 384.752 801.031L386.123 800.215C386.967 801.621 473.145 942.024 484.287 949.923L483.422 952.177Z" fill="#5A83E0"/>
<path d="M457.855 914.274C432.945 918.447 368.961 879.106 366.25 877.429L367.093 876.078C367.752 876.485 433.273 916.779 457.591 912.706L457.855 914.274Z" fill="#5A83E0"/>
<path d="M486.358 970.483C452.73 973.122 370.968 905.994 367.504 903.135L368.523 901.91C369.367 902.606 453.248 971.486 486.232 968.897L486.358 970.483Z" fill="#5A83E0"/>
<path d="M491.091 1006.69C467.982 1010.56 380.505 954.061 376.768 951.637L377.639 950.305C378.549 950.894 468.322 1008.89 490.796 1005.13C490.945 1005.11 491.088 1005.08 491.231 1005.05L491.564 1006.6C491.41 1006.64 491.251 1006.67 491.091 1006.69Z" fill="#5A83E0"/>
<path d="M461.518 1009.33C440.108 1012.91 401.627 1003.4 399.713 1002.93L400.102 1001.38C400.649 1001.52 451.439 1014.36 472.784 1003.15L474.674 1004.02C472.233 1005.66 465.405 1008.68 461.518 1009.33Z" fill="#5A83E0"/>
<path d="M509.602 1070L426.846 1044.85L427.305 1043.33L509.302 1067.74L509.602 1070Z" fill="#5A83E0"/>
<path d="M499.096 846.428L499.339 844.794C499.909 844.669 557.843 831.881 567.616 825.848L568.459 827.2C558.455 833.374 501.433 845.913 499.096 846.428Z" fill="#5A83E0"/>
<path d="M493.52 936.714L492.346 934.926L571.194 842.379L572.418 843.399L493.52 936.714Z" fill="#5A83E0"/>
<path d="M528.971 913.399C521.289 914.685 514.989 914.572 512.037 911.888L513.114 910.714C523.288 919.962 581.148 894.198 581.73 893.938L582.385 895.389C580.619 896.18 549.755 909.917 528.971 913.399Z" fill="#5A83E0"/>
<path d="M500.248 990.552L499.719 988.159C500.441 987.729 576.16 942.74 582.956 919.156L584.492 919.595C577.522 943.78 503.22 988.783 500.248 990.552Z" fill="#5A83E0"/>
<path d="M523.181 1063.84L522.115 1062.45C522.671 1061.76 579.709 991.415 582.466 978.773L584.027 979.11C581.191 992.117 525.458 1061.03 523.181 1063.84Z" fill="#5A83E0"/>
<path d="M533.93 974.798C527.167 975.931 522.656 976.412 522.524 976.425L522.359 974.843C522.747 974.804 561.415 970.678 582.882 957.762L583.708 959.123C569.268 967.811 547.242 972.568 533.93 974.798Z" fill="#5A83E0"/>
<path d="M576.977 1231.61L607.005 1229.59C607.005 1229.59 539.059 1145.31 507.119 1015.69C475.178 886.066 500.355 743.879 500.355 743.879C500.355 743.879 462.644 886.166 493.941 1020.89C525.19 1155.41 576.977 1231.61 576.977 1231.61Z" fill="#5A83E0"/>
<path d="M509.745 1139.91C509.745 1139.91 557.548 1028.66 470.111 927.975C382.675 827.29 244.25 846.202 225.731 875.241C207.213 904.279 269.042 1019.44 342.256 1071.84C415.469 1124.24 479 1150.63 509.745 1139.91Z" fill="#84A3E8"/>
<path d="M297.104 935.851L282.276 858.531L280.879 858.796L295.448 935.303L297.104 935.851Z" fill="#7093E4"/>
<path d="M311.314 943.689C322.318 932.52 325.778 860.182 325.922 857.041L324.501 856.977C324.465 857.756 320.784 935.034 309.725 943.202L310.574 944.338C310.825 944.153 311.072 943.935 311.314 943.689Z" fill="#7093E4"/>
<path d="M347.8 965.452L347.112 964.211C344.253 965.78 291.138 970.556 256.135 973.383L256.249 974.795C265.194 974.073 343.75 967.673 347.8 965.452Z" fill="#7093E4"/>
<path d="M369.785 977.792L338.073 858.262L336.697 858.623L368.409 978.153L369.785 977.792Z" fill="#7093E4"/>
<path d="M415.191 1010.19C415.071 997.764 357.052 866.856 354.59 861.41L353.293 861.992C353.895 863.322 412.979 997.539 413.096 1009.67L415.191 1010.19Z" fill="#7093E4"/>
<path d="M400.412 972.275C416.165 956.285 419.907 889.703 420.059 886.876L418.638 886.801C418.601 887.487 414.775 955.672 399.396 971.283L400.412 972.275Z" fill="#7093E4"/>
<path d="M427.121 1021.65C446.191 998.533 438.609 904.863 438.276 900.887L436.859 901.004C436.939 901.972 444.728 998.075 426.021 1020.75L427.121 1021.65Z" fill="#7093E4"/>
<path d="M451.274 1043.54C465.888 1028.7 469.011 936.291 469.138 932.338L467.717 932.293C467.685 933.255 464.49 1028.1 450.278 1042.53C450.184 1042.62 450.091 1042.71 449.996 1042.8L450.968 1043.84C451.07 1043.74 451.173 1043.64 451.274 1043.54Z" fill="#7093E4"/>
<path d="M468.276 1023.38C481.816 1009.63 494.447 976.799 495.071 975.163L493.741 974.66C493.563 975.128 477.103 1018.61 458.006 1028.42L457.676 1030.24C460.128 1029.3 465.818 1025.87 468.276 1023.38Z" fill="#7093E4"/>
<path d="M488.285 1089.26L512.003 1016.25L510.652 1015.81L486.775 1087.89L488.285 1089.26Z" fill="#7093E4"/>
<path d="M329.629 967.698L328.307 967.043C327.925 967.393 289.024 1003.01 279.619 1007.05L280.182 1008.35C289.808 1004.22 328.061 969.137 329.629 967.698Z" fill="#7093E4"/>
<path d="M398.703 1009.65L397.989 1007.88L289.924 1018.07L290.049 1019.48L398.703 1009.65Z" fill="#7093E4"/>
<path d="M363.533 1023.55C368.39 1018.62 371.518 1013.98 371.052 1010.46L369.642 1010.65C371.242 1022.76 322.862 1051.72 322.373 1052.01L323.104 1053.22C324.586 1052.34 350.389 1036.89 363.533 1023.55Z" fill="#7093E4"/>
<path d="M434.767 1041.97L433.281 1040.37C432.597 1040.67 361.014 1072.82 340.251 1065.75L339.791 1067.09C361.083 1074.34 431.955 1043.23 434.767 1041.97Z" fill="#7093E4"/>
<path d="M476.846 1096L476.367 1094.51C475.581 1094.57 394.914 1100.21 384.236 1095.77L383.688 1097.08C394.673 1101.64 473.62 1096.22 476.846 1096Z" fill="#7093E4"/>
<path d="M406.046 1058.44C410.323 1054.1 412.974 1051.07 413.051 1050.98L411.974 1050.05C411.748 1050.31 389.019 1076.33 368.605 1085.37L369.183 1086.66C382.915 1080.58 397.627 1066.99 406.046 1058.44Z" fill="#7093E4"/>
<path d="M539.59 1233.61L519.767 1233.11C519.767 1233.11 525.036 1151.42 449.705 1059.78C374.092 967.802 253.762 916.367 253.762 916.367C253.762 916.367 377.354 961.439 460.238 1052.85C542.991 1144.11 539.59 1233.61 539.59 1233.61Z" fill="#7093E4"/>
<path d="M482.171 1180.86C482.171 1180.86 476.992 1087.67 381.945 1047.85C286.898 1008.03 197.698 1068.27 194.873 1094.65C192.049 1121.04 274.367 1179.59 342.989 1190.87C411.612 1202.16 464.602 1198.76 482.171 1180.86Z" fill="#DBE4F8"/>
<path d="M265.046 1112.24L228.225 1063.84L227.35 1064.5L263.711 1112.43L265.046 1112.24Z" fill="#C3D2F4"/>
<path d="M277.561 1112.82C281.33 1101.35 258.864 1050.16 257.885 1047.94L256.881 1048.38C257.124 1048.93 281.135 1103.61 276.295 1113.02L277.273 1113.52C277.382 1113.3 277.478 1113.07 277.561 1112.82Z" fill="#C3D2F4"/>
<path d="M310.264 1115.43L309.362 1114.81C307.924 1116.87 272.845 1138.27 249.617 1152.15L250.182 1153.08C256.117 1149.54 308.228 1118.35 310.264 1115.43Z" fill="#C3D2F4"/>
<path d="M329.704 1116.47L266.706 1044.64L265.879 1045.36L328.877 1117.19L329.704 1116.47Z" fill="#C3D2F4"/>
<path d="M372.225 1123.4C367.873 1114.85 282.778 1044.12 279.205 1041.19L278.508 1042.04C279.38 1042.75 366.35 1115.41 370.599 1123.76L372.225 1123.4Z" fill="#C3D2F4"/>
<path d="M348.982 1102.22C354.378 1085.8 334.085 1038.49 333.219 1036.49L332.211 1036.92C332.421 1037.41 353.206 1085.85 347.939 1101.88L348.982 1102.22Z" fill="#C3D2F4"/>
<path d="M384.413 1127.25C389.655 1104.78 352.225 1042.6 350.629 1039.97L349.689 1040.53C350.078 1041.17 388.486 1104.96 383.344 1127.01L384.413 1127.25Z" fill="#C3D2F4"/>
<path d="M408.633 1134.16C413.638 1118.93 384.042 1053.98 382.772 1051.2L381.773 1051.65C382.083 1052.33 412.465 1118.99 407.597 1133.8C407.565 1133.9 407.532 1133.99 407.497 1134.09L408.524 1134.47C408.562 1134.37 408.598 1134.27 408.633 1134.16Z" fill="#C3D2F4"/>
<path d="M413.458 1114.43C418.096 1100.31 415.546 1073.31 415.416 1071.97L414.323 1072.07C414.362 1072.46 417.923 1108.13 408.094 1121.42L408.488 1122.79C409.862 1121.3 412.616 1116.99 413.458 1114.43Z" fill="#C3D2F4"/>
<path d="M449.932 1153.16L441.244 1094.61L440.158 1094.76L448.417 1152.73L449.932 1153.16Z" fill="#C3D2F4"/>
<path d="M298.474 1123.17L297.335 1123.17C297.191 1123.54 282.538 1161.42 277.422 1167.42L278.258 1168.12C283.495 1161.99 297.884 1124.7 298.474 1123.17Z" fill="#C3D2F4"/>
<path d="M360.642 1128.64L359.542 1127.67L288.334 1171.53L288.905 1172.46L360.642 1128.64Z" fill="#C3D2F4"/>
<path d="M341.106 1150.24C342.77 1145.18 343.337 1140.9 341.808 1138.63L340.897 1139.24C346.165 1147.07 322.667 1183.57 322.43 1183.94L323.353 1184.53C324.073 1183.41 336.604 1163.94 341.106 1150.24Z" fill="#C3D2F4"/>
<path d="M396.683 1138.71L395.104 1138.11C394.737 1138.55 356.295 1185.16 339.51 1187.35L339.652 1188.43C356.865 1186.19 395.172 1140.54 396.683 1138.71Z" fill="#C3D2F4"/>
<path d="M444.338 1161.72L443.496 1160.86C442.971 1161.16 389.141 1192.54 380.234 1193.11L380.304 1194.2C389.468 1193.62 442.184 1162.97 444.338 1161.72Z" fill="#C3D2F4"/>
<path d="M382.486 1159.88C383.951 1155.42 384.741 1152.42 384.763 1152.33L383.701 1152.05C383.634 1152.31 376.863 1178.05 365.854 1191.25L366.698 1191.94C374.103 1183.06 379.603 1168.65 382.486 1159.88Z" fill="#C3D2F4"/>
<path d="M535.828 1235.11L516.508 1234.86C516.508 1234.86 498.294 1180.79 413.131 1145.92C327.968 1111.05 228.387 1113.53 228.387 1113.53C228.387 1113.53 329.319 1102.59 418.032 1137.54C506.604 1172.44 535.828 1235.11 535.828 1235.11Z" fill="#C3D2F4"/>
<path d="M589.338 1148.33C589.338 1148.33 528.687 1085.6 561.756 995.646C594.824 905.692 692.826 883.285 712.723 898.127C732.62 912.97 720.49 1006.16 684.633 1060.02C648.776 1113.87 612.775 1147.75 589.338 1148.33Z" fill="#84A3E8"/>
<path d="M680.21 957.039L670.395 901.239L671.402 901.062L681.184 956.249L680.21 957.039Z" fill="#7093E4"/>
<path d="M672.65 965.917C662.386 961.193 641.538 913.387 640.637 911.31L641.577 910.906C641.8 911.422 664.061 962.496 673.595 965.185L673.314 966.166C673.099 966.104 672.877 966.021 672.65 965.917Z" fill="#7093E4"/>
<path d="M653.668 989.823L653.812 988.814C656.138 989.144 693.107 978.877 717.389 971.895L717.673 972.874C711.468 974.658 656.962 990.29 653.668 989.823Z" fill="#7093E4"/>
<path d="M633.85 915.104L632.832 915.211L642.094 1003.71L643.113 1003.6L633.85 915.104Z" fill="#7093E4"/>
<path d="M619.765 1037.03C616.665 1028.64 622.199 925.813 622.461 921.523L623.483 921.586C623.419 922.634 618.015 1027.96 621.041 1036.15L619.765 1037.03Z" fill="#7093E4"/>
<path d="M620.006 1007.77C605.311 1001 585.747 957.143 584.922 955.278L585.859 954.867C586.059 955.32 606.09 1000.24 620.437 1006.84L620.006 1007.77Z" fill="#7093E4"/>
<path d="M614.67 1047.77C595.919 1037.06 577.042 972.092 576.248 969.332L577.232 969.051C577.426 969.723 596.787 1036.38 615.18 1046.89L614.67 1047.77Z" fill="#7093E4"/>
<path d="M604.02 1068.64C590.387 1062.36 564.627 1000.96 563.529 998.333L564.474 997.941C564.742 998.581 591.173 1061.6 604.431 1067.7C604.519 1067.74 604.604 1067.78 604.691 1067.82L604.302 1068.76C604.209 1068.72 604.114 1068.68 604.02 1068.64Z" fill="#7093E4"/>
<path d="M587.415 1059.38C574.784 1053.57 557.878 1034.68 557.039 1033.73L557.805 1033.06C558.045 1033.33 580.254 1058.41 595.619 1060.17L596.306 1061.31C594.416 1061.3 589.708 1060.44 587.415 1059.38Z" fill="#7093E4"/>
<path d="M590.816 1108.8L556.164 1065.69L556.961 1065.05L591.481 1107.49L590.816 1108.8Z" fill="#7093E4"/>
<path d="M666.471 986.725L667.193 985.949C667.54 986.088 702.839 1000.19 710.201 1000.51L710.156 1001.53C702.62 1001.2 667.894 987.295 666.471 986.725Z" fill="#7093E4"/>
<path d="M630.725 1032.49L630.753 1031.12L706.09 1010.55L706.367 1011.53L630.725 1032.49Z" fill="#7093E4"/>
<path d="M657.951 1032.92C653.42 1030.83 650.127 1028.5 649.541 1026.02L650.537 1025.79C652.562 1034.34 692.534 1041.55 692.937 1041.62L692.757 1042.62C691.534 1042.41 670.213 1038.56 657.951 1032.92Z" fill="#7093E4"/>
<path d="M614.729 1063.39L615.318 1061.94C615.856 1061.97 672.261 1065.44 684.424 1055.41L685.077 1056.19C672.605 1066.48 616.944 1063.53 614.729 1063.39Z" fill="#7093E4"/>
<path d="M600.239 1110.43L600.182 1109.31C600.725 1109.15 656.458 1092.47 662.508 1086.77L663.212 1087.51C656.986 1093.37 602.467 1109.76 600.239 1110.43Z" fill="#7093E4"/>
<path d="M638.272 1067.19C634.283 1065.35 631.722 1063.98 631.646 1063.94L632.134 1063.04C632.354 1063.16 654.312 1074.91 670.362 1075.8L670.305 1076.82C659.508 1076.22 646.126 1070.8 638.272 1067.19Z" fill="#7093E4"/>
<path d="M597.446 1231.07L613.271 1228.61C613.271 1228.61 579.047 1159.26 609.232 1079.17C639.416 999.086 704.387 932.922 704.387 932.922C704.387 932.922 632.748 994.625 600.368 1077.18C568.04 1159.61 597.446 1231.07 597.446 1231.07Z" fill="#7093E4"/>
<path d="M1931.51 1121.41C1931.51 1121.41 1856.03 992.653 1947.51 856.273C2038.99 719.894 2211.13 721.996 2238.22 754.687C2265.31 787.378 2207.35 937.564 2125.87 1012.75C2044.38 1087.94 1970.74 1129.85 1931.51 1121.41Z" fill="#7093E4"/>
<path d="M2160.24 839.634L2166.53 742.848L2168.28 742.959L2162.18 838.711L2160.24 839.634Z" fill="#5A83E0"/>
<path d="M2144.07 851.371C2128.9 839.386 2113.59 751.468 2112.94 747.651L2114.66 747.355C2114.83 748.303 2131.16 842.227 2145.94 850.534L2145.07 852.052C2144.74 851.863 2144.4 851.635 2144.07 851.371Z" fill="#5A83E0"/>
<path d="M2102.79 883.52L2103.44 881.899C2107.18 883.383 2172.85 881.156 2216.08 879.297L2216.16 881.041C2205.11 881.516 2108.08 885.621 2102.79 883.52Z" fill="#5A83E0"/>
<path d="M2077.8 901.95L2098.27 750.992L2100 751.225L2079.54 902.183L2077.8 901.95Z" fill="#5A83E0"/>
<path d="M2027.25 948.447C2025.49 933.239 2076.38 764.376 2078.55 757.344L2080.23 757.858C2079.7 759.577 2028.02 932.647 2029.73 947.494L2027.25 948.447Z" fill="#5A83E0"/>
<path d="M2039.51 899.853C2017.8 882.694 2003.03 801.858 2002.41 798.425L2004.14 798.117C2004.29 798.951 2019.41 881.735 2040.6 898.486L2039.51 899.853Z" fill="#5A83E0"/>
<path d="M2014.42 964.272C1987.56 938.91 1982.49 823.234 1982.28 818.322L1984.03 818.25C1984.08 819.446 1989.28 938.128 2015.62 963.005L2014.42 964.272Z" fill="#5A83E0"/>
<path d="M1988.24 994.704C1968.1 978.785 1950.13 866.273 1949.37 861.459L1951.1 861.188C1951.28 862.359 1969.72 977.835 1989.3 993.316C1989.43 993.419 1989.56 993.514 1989.69 993.609L1988.66 995.021C1988.52 994.921 1988.38 994.814 1988.24 994.704Z" fill="#5A83E0"/>
<path d="M1964.37 972.632C1945.71 957.884 1925.23 919.66 1924.22 917.754L1925.77 916.938C1926.06 917.482 1952.84 968.144 1977.7 977.244L1978.38 979.412C1975.24 978.64 1967.75 975.31 1964.37 972.632Z" fill="#5A83E0"/>
<path d="M1949.99 1056.22L1909.81 970.57L1911.4 969.824L1951.63 1054.32L1949.99 1056.22Z" fill="#5A83E0"/>
<path d="M2125.35 883.51L2126.87 882.508C2127.39 882.878 2180.41 920.521 2192.52 924.024L2192.03 925.701C2179.63 922.115 2127.49 885.029 2125.35 883.51Z" fill="#5A83E0"/>
<path d="M2047.33 945.291L2047.93 943.024L2181.62 939.074L2181.68 940.818L2047.33 945.291Z" fill="#5A83E0"/>
<path d="M2092.46 956.947C2085.76 951.656 2081.23 946.457 2081.26 942.09L2083.01 942.102C2082.91 957.153 2146.5 985.207 2147.14 985.489L2146.43 987.086C2144.48 986.232 2110.57 971.264 2092.46 956.947Z" fill="#5A83E0"/>
<path d="M2008.18 990.284L2009.75 988.098C2010.64 988.369 2103.08 1016.8 2127.38 1005L2128.15 1006.57C2103.23 1018.67 2011.81 991.399 2008.18 990.284Z" fill="#5A83E0"/>
<path d="M1965.01 1062.72L1965.37 1060.84C1966.34 1060.78 2065.83 1055.43 2078.21 1048.38L2079.08 1049.9C2066.34 1057.15 1968.99 1062.5 1965.01 1062.72Z" fill="#5A83E0"/>
<path d="M2045.82 1006.06C2039.93 1001.4 2036.22 998.092 2036.11 997.995L2037.29 996.699C2037.61 996.984 2069.38 1025.35 2095.72 1033.29L2095.21 1034.96C2077.49 1029.62 2057.42 1015.23 2045.82 1006.06Z" fill="#5A83E0"/>
<path d="M1863.18 1245.63L1890.69 1244.07C1890.69 1244.07 1909.97 1135.44 1992.65 1014.32C2075.33 893.204 2210.25 809.227 2210.25 809.227C2210.25 809.227 2066.04 883.102 1978.71 1007.45C1891.51 1131.6 1863.18 1245.63 1863.18 1245.63Z" fill="#5A83E0"/>
<path d="M1892.87 1107.68C1892.87 1107.68 2019.07 1064.79 2037.3 919.864C2055.54 774.939 1938.4 676.447 1901.02 682.738C1863.64 689.028 1814.75 823.793 1825.61 921.715C1836.46 1019.64 1861.51 1090.59 1892.87 1107.68Z" fill="#84A3E8"/>
<path d="M1903.79 785.193L1956.22 716.374L1954.98 715.434L1903.03 783.445L1903.79 785.193Z" fill="#7093E4"/>
<path d="M1907.82 802.485C1925.04 803.216 1986.82 752.902 1989.5 750.713L1988.5 749.512C1987.84 750.055 1921.86 803.817 1907.05 800.836L1906.74 802.361C1907.08 802.427 1907.44 802.469 1907.82 802.485Z" fill="#7093E4"/>
<path d="M1916.79 848.086L1917.3 846.617C1913.92 845.448 1871 805.833 1842.98 779.492L1841.91 780.623C1849.07 787.353 1912 846.43 1916.79 848.086Z" fill="#7093E4"/>
<path d="M1922.83 874.994L1997.42 761.469L1996.11 760.617L1921.52 874.142L1922.83 874.994Z" fill="#7093E4"/>
<path d="M1929.65 935.644C1939.73 926.423 2004.32 783.186 2006.97 777.188L2005.54 776.562C2004.89 778.028 1938.38 924.56 1928.54 933.562L1929.65 935.644Z" fill="#7093E4"/>
<path d="M1949.84 895.808C1974.5 896.854 2031.77 850.997 2034.19 849.044L2033.21 847.836C2032.62 848.31 1973.98 895.276 1949.9 894.256L1949.84 895.808Z" fill="#7093E4"/>
<path d="M1929.03 953.751C1961.96 952.261 2033.09 877.316 2036.1 874.127L2034.97 873.062C2034.23 873.839 1961.26 950.737 1928.96 952.199L1929.03 953.751Z" fill="#7093E4"/>
<path d="M1928.84 989.436C1951.72 990.406 2029.68 925.077 2033.01 922.277L2032 921.09C2031.19 921.771 1951.18 988.829 1928.93 987.885C1928.79 987.878 1928.64 987.87 1928.5 987.857L1928.37 989.406C1928.52 989.419 1928.68 989.429 1928.84 989.436Z" fill="#7093E4"/>
<path d="M1957.83 988.43C1979.03 989.329 2015.19 975.472 2016.99 974.777L2016.42 973.328C2015.91 973.527 1968.22 992.095 1946.16 983.799L1944.43 984.863C1947 986.167 1953.99 988.266 1957.83 988.43Z" fill="#7093E4"/>
<path d="M1918.58 1053.06L1995.77 1018.7L1995.14 1017.28L1918.59 1050.82L1918.58 1053.06Z" fill="#7093E4"/>
<path d="M1901.6 834.985L1901.17 833.431C1900.6 833.378 1842.87 827.954 1832.66 823.281L1832 824.694C1842.45 829.477 1899.27 834.767 1901.6 834.985Z" fill="#7093E4"/>
<path d="M1917.98 921.867L1918.9 919.991L1831.2 839.742L1830.13 840.879L1917.98 921.867Z" fill="#7093E4"/>
<path d="M1880.77 903.525C1888.37 903.848 1894.47 902.979 1897 900.02L1895.82 899.012C1887.08 909.205 1827.84 891.19 1827.24 891.008L1826.78 892.494C1828.59 893.049 1860.19 902.652 1880.77 903.525Z" fill="#7093E4"/>
<path d="M1917.99 974.885L1918.22 972.502C1917.46 972.172 1838.57 937.664 1829.12 915.613L1827.68 916.224C1837.38 938.837 1914.9 973.529 1917.99 974.885Z" fill="#7093E4"/>
<path d="M1904.66 1048.72L1905.53 1047.24C1904.9 1046.64 1841.05 985.294 1836.84 973.367L1835.36 973.882C1839.69 986.153 1902.11 1046.26 1904.66 1048.72Z" fill="#7093E4"/>
<path d="M1883.42 963.664C1890.11 963.948 1894.55 963.871 1894.68 963.868L1894.64 962.314C1894.26 962.322 1856.26 962.98 1833.88 953.039L1833.24 954.459C1848.3 961.145 1870.24 963.105 1883.42 963.664Z" fill="#7093E4"/>
<path d="M1823.87 1214.2L1804.15 1199.86C1804.15 1199.86 1899.16 1129.64 1914.39 1000.09C1929.61 870.55 1887.92 735.699 1887.92 735.699C1887.92 735.699 1941.78 869.137 1927.8 1003.56C1913.84 1137.76 1823.87 1214.2 1823.87 1214.2Z" fill="#7093E4"/>
<path d="M1839.08 1115.37C1839.08 1115.37 1911.59 1042.72 1874.39 936.319C1837.2 829.913 1722.37 801.731 1698.69 818.814C1675.01 835.897 1687.52 945.723 1728.67 1009.72C1769.83 1073.72 1811.53 1114.24 1839.08 1115.37Z" fill="#DBE4F8"/>
<path d="M1735.82 888.7L1748.41 823.261L1747.23 823.035L1734.69 887.753L1735.82 888.7Z" fill="#C3D2F4"/>
<path d="M1744.54 899.281C1756.7 893.917 1782.12 838.087 1783.22 835.661L1782.12 835.168C1781.85 835.77 1754.7 895.418 1743.44 898.403L1743.75 899.561C1744.01 899.493 1744.27 899.399 1744.54 899.281Z" fill="#C3D2F4"/>
<path d="M1766.41 927.751L1766.26 926.562C1763.52 926.907 1720.24 914.141 1691.81 905.477L1691.46 906.623C1698.72 908.837 1762.53 928.239 1766.41 927.751Z" fill="#C3D2F4"/>
<path d="M1791.26 840.238L1778.7 944.137L1779.9 944.281L1792.46 840.382L1791.26 840.238Z" fill="#C3D2F4"/>
<path d="M1805.39 983.906C1809.2 974.096 1804.63 853.066 1804.4 848.016L1803.2 848.07C1803.25 849.304 1807.62 973.268 1803.91 982.846L1805.39 983.906Z" fill="#C3D2F4"/>
<path d="M1805.66 949.489C1823.07 941.809 1846.9 890.595 1847.91 888.419L1846.82 887.918C1846.57 888.447 1822.17 940.896 1805.17 948.392L1805.66 949.489Z" fill="#C3D2F4"/>
<path d="M1811.18 996.634C1833.44 984.384 1856.86 908.338 1857.85 905.107L1856.69 904.758C1856.45 905.544 1832.43 983.569 1810.6 995.585L1811.18 996.634Z" fill="#C3D2F4"/>
<path d="M1823.31 1021.37C1839.46 1014.24 1870.92 942.517 1872.26 939.447L1871.15 938.969C1870.83 939.716 1838.55 1013.33 1822.85 1020.26C1822.74 1020.31 1822.64 1020.35 1822.54 1020.39L1822.98 1021.51C1823.09 1021.46 1823.2 1021.42 1823.31 1021.37Z" fill="#C3D2F4"/>
<path d="M1843.01 1010.8C1857.98 1004.2 1878.22 982.296 1879.22 981.204L1878.33 980.395C1878.05 980.707 1851.46 1009.79 1833.35 1011.57L1832.52 1012.9C1834.75 1012.92 1840.3 1011.99 1843.01 1010.8Z" fill="#C3D2F4"/>
<path d="M1838.09 1068.85L1879.65 1018.8L1878.72 1018.04L1837.33 1067.31L1838.09 1068.85Z" fill="#C3D2F4"/>
<path d="M1751.41 923.872L1750.58 922.945C1750.17 923.102 1708.39 939.023 1699.73 939.27L1699.76 940.469C1708.63 940.215 1749.73 924.515 1751.41 923.872Z" fill="#C3D2F4"/>
<path d="M1792.59 978.354L1792.58 976.743L1704.37 951.145L1704.03 952.293L1792.59 978.354Z" fill="#C3D2F4"/>
<path d="M1760.56 978.35C1765.93 975.982 1769.85 973.304 1770.58 970.395L1769.42 970.102C1766.87 980.127 1719.73 987.855 1719.25 987.933L1719.45 989.117C1720.89 988.883 1746.03 984.757 1760.56 978.35Z" fill="#C3D2F4"/>
<path d="M1810.82 1015L1810.15 1013.28C1809.52 1013.31 1743.12 1016.33 1729.01 1004.3L1728.22 1005.22C1742.7 1017.55 1808.21 1015.12 1810.82 1015Z" fill="#C3D2F4"/>
<path d="M1826.97 1070.59L1827.06 1069.28C1826.42 1069.07 1761.19 1048.42 1754.19 1041.61L1753.35 1042.46C1760.56 1049.47 1824.36 1069.76 1826.97 1070.59Z" fill="#C3D2F4"/>
<path d="M1783.06 1019.03C1787.79 1016.94 1790.82 1015.38 1790.91 1015.33L1790.36 1014.27C1790.1 1014.4 1764.05 1027.81 1745.16 1028.56L1745.21 1029.76C1757.91 1029.25 1773.75 1023.13 1783.06 1019.03Z" fill="#C3D2F4"/>
<path d="M1827.98 1212.52L1812.14 1204.98C1812.14 1204.98 1850.97 1128.41 1816.99 1033.66C1783 938.916 1707.84 859.891 1707.84 859.891C1707.84 859.891 1790.92 933.794 1827.45 1031.49C1863.91 1129.02 1827.98 1212.52 1827.98 1212.52Z" fill="#C3D2F4"/>
<path d="M1944.42 1178.48C1944.42 1178.48 1951.25 1083.17 2049.19 1043.96C2147.13 1004.75 2237.45 1067.86 2239.91 1094.91C2242.36 1121.96 2157.14 1180.56 2086.72 1190.99C2016.29 1201.43 1962.11 1197.08 1944.42 1178.48Z" fill="#84A3E8"/>
<path d="M2167.79 1111.77L2206.27 1062.83L2207.16 1063.52L2169.15 1111.99L2167.79 1111.77Z" fill="#7093E4"/>
<path d="M2154.97 1112.16C2151.3 1100.36 2175.14 1048.32 2176.17 1046.07L2177.2 1046.53C2176.94 1047.09 2151.46 1102.67 2156.26 1112.39L2155.25 1112.88C2155.15 1112.66 2155.05 1112.42 2154.97 1112.16Z" fill="#7093E4"/>
<path d="M2121.45 1114.3L2122.38 1113.68C2123.82 1115.81 2159.38 1138.28 2182.93 1152.87L2182.33 1153.82C2176.32 1150.09 2123.49 1117.32 2121.45 1114.3Z" fill="#7093E4"/>
<path d="M2101.54 1115.05L2167.2 1042.55L2168.03 1043.3L2102.37 1115.8L2101.54 1115.05Z" fill="#7093E4"/>
<path d="M2057.9 1121.45C2062.49 1112.77 2150.76 1041.75 2154.46 1038.81L2155.16 1039.69C2154.25 1040.41 2064.04 1113.36 2059.55 1121.84L2057.9 1121.45Z" fill="#7093E4"/>
<path d="M2082.04 1100.16C2076.78 1083.26 2098.33 1035.17 2099.25 1033.13L2100.27 1033.59C2100.05 1034.08 2077.98 1083.33 2083.11 1099.83L2082.04 1100.16Z" fill="#7093E4"/>
<path d="M2045.36 1125.2C2040.36 1102.11 2079.7 1039.07 2081.37 1036.4L2082.33 1037C2081.92 1037.65 2041.56 1102.31 2046.46 1124.96L2045.36 1125.2Z" fill="#7093E4"/>
<path d="M2020.45 1131.88C2015.58 1116.2 2046.94 1050.2 2048.29 1047.38L2049.3 1047.85C2048.97 1048.54 2016.78 1116.28 2021.52 1131.52C2021.55 1131.63 2021.58 1131.72 2021.62 1131.82L2020.56 1132.19C2020.52 1132.09 2020.49 1131.98 2020.45 1131.88Z" fill="#7093E4"/>
<path d="M2015.84 1111.6C2011.32 1097.07 2014.38 1069.47 2014.53 1068.1L2015.65 1068.23C2015.6 1068.62 2011.37 1105.07 2021.22 1118.84L2020.79 1120.23C2019.41 1118.69 2016.66 1114.23 2015.84 1111.6Z" fill="#7093E4"/>
<path d="M1977.87 1150.65L1987.72 1090.86L1988.83 1091.04L1979.43 1150.23L1977.87 1150.65Z" fill="#7093E4"/>
<path d="M2133.39 1122.42L2134.56 1122.44C2134.7 1122.82 2149.08 1161.83 2154.21 1168.05L2153.35 1168.76C2148.09 1162.4 2133.97 1124 2133.39 1122.42Z" fill="#7093E4"/>
<path d="M2069.67 1127.01L2070.81 1126.03L2142.98 1172.08L2142.38 1173.03L2069.67 1127.01Z" fill="#7093E4"/>
<path d="M2089.31 1149.43C2087.69 1144.22 2087.18 1139.83 2088.78 1137.54L2089.71 1138.17C2084.19 1146.1 2107.64 1183.84 2107.88 1184.22L2106.92 1184.81C2106.2 1183.66 2093.7 1163.53 2089.31 1149.43Z" fill="#7093E4"/>
<path d="M2032.61 1136.72L2034.24 1136.13C2034.61 1136.59 2073.19 1184.93 2090.34 1187.44L2090.17 1188.54C2072.59 1185.97 2034.13 1138.62 2032.61 1136.72Z" fill="#7093E4"/>
<path d="M1983.46 1159.5L1984.33 1158.63C1984.86 1158.95 2039.45 1191.95 2048.56 1192.68L2048.47 1193.79C2039.1 1193.04 1985.64 1160.82 1983.46 1159.5Z" fill="#7093E4"/>
<path d="M2046.8 1158.62C2045.37 1154.03 2044.61 1150.95 2044.59 1150.86L2045.68 1150.59C2045.74 1150.86 2052.25 1177.31 2063.31 1191L2062.43 1191.7C2055 1182.49 2049.6 1167.65 2046.8 1158.62Z" fill="#7093E4"/>
<path d="M1882.62 1245.83L1898.4 1242.24C1898.4 1242.24 1927.91 1178.15 2015.66 1143.84C2103.4 1109.54 2205.29 1113.69 2205.29 1113.69C2205.29 1113.69 2102.16 1100.85 2010.78 1135.19C1919.54 1169.47 1882.62 1245.83 1882.62 1245.83Z" fill="#7093E4"/>
<path d="M679.511 564.532C679.511 564.532 638.976 519.782 580.357 566.107C548.56 591.237 538.653 639.564 549.542 675.951H549.536C549.536 675.951 549.549 675.98 549.554 675.99C550.119 677.875 550.741 679.724 551.418 681.541C554.371 692.806 544.321 709.454 590.862 731.426L664.285 765.384C731.868 726.121 731.684 683.693 731.684 683.693C784.758 624.023 738.771 546.736 679.511 564.532Z" fill="#4472DC"/>
<path d="M678.733 598.49C721.761 578.881 757.331 610.731 743.612 660.006C728.547 714.121 675.984 697.768 675.984 697.768L678.733 598.49Z" fill="#3466D9"/>
<path d="M612.87 686.898L611.293 783.807C611.293 783.807 626.719 795.366 652.086 795.366C682.643 795.366 689.396 787.712 689.396 787.712L688.055 727.621L686.982 695.543L612.87 686.898Z" fill="#D0DCF6"/>
<path d="M630.148 735.012L689.395 783.664L688.052 727.633L630.148 735.012Z" fill="#B8C9F2"/>
<path d="M611.293 593.66L623.246 723.992C623.797 729.816 627.781 734.712 633.377 736.485L689.371 754.001C694.118 755.478 699.332 754.422 703.147 751.215L730.233 728.255C733.835 725.216 735.743 720.615 735.319 715.93L734.895 711.456L730.105 659.331L727.35 629.07C725.018 603.872 702.638 585.344 677.332 587.623L611.293 593.66Z" fill="#D0DCF6"/>
<g opacity="0.24">
<path d="M713.828 684.571C713.828 697.571 722.814 708.46 734.894 711.457L730.104 659.332C720.482 663.679 713.828 673.345 713.828 684.571Z" fill="#ACC1EF"/>
</g>
<path d="M695.772 698.214C695.038 698.214 694.339 697.79 694.023 697.079C693.596 696.118 694.033 694.994 694.999 694.57L712.522 686.861L696.556 642.036C696.203 641.046 696.724 639.958 697.719 639.607C698.714 639.254 699.806 639.773 700.159 640.764L716.718 687.252C717.052 688.191 716.604 689.227 715.689 689.629L696.544 698.05C696.292 698.161 696.03 698.214 695.772 698.214Z" fill="#9FB7ED"/>
<path d="M615.878 670.289L615.016 665.581C646.31 659.896 667.497 647.662 677.987 629.218C691.938 604.688 681.826 577.209 681.722 576.934L686.219 575.242C686.676 576.445 697.242 605.018 682.196 631.529C670.981 651.292 648.668 664.333 615.878 670.289Z" fill="#4472DC"/>
<path d="M604.002 669.761C604.002 669.761 686.116 652.475 689.075 587.448L683.261 570.574L590.932 582.407L604.002 669.761Z" fill="#4472DC"/>
<path d="M636.02 688.866C637.362 703.497 626.54 716.441 611.846 717.778C597.152 719.114 584.152 708.338 582.81 693.708C581.467 679.077 592.29 666.132 606.983 664.796C621.677 663.458 634.676 674.235 636.02 688.866Z" fill="#D0DCF6"/>
<path d="M730.36 627.523C728.619 632.885 709.633 631 710.222 625.799C711.199 617.166 733.116 619.028 730.36 627.523Z" fill="#3B6BDA"/>
<path d="M646.742 635.592C649.732 640.378 667.698 633.982 665.866 629.077C662.825 620.935 642.007 628.012 646.742 635.592Z" fill="#3B6BDA"/>
<g opacity="0.24">
<path d="M625.51 691.289C625.51 706.612 637.985 719.035 653.375 719.035C668.764 719.035 681.239 706.613 681.239 691.289C681.239 675.965 668.764 663.543 653.375 663.543C637.986 663.543 625.51 675.965 625.51 691.289Z" fill="#ACC1EF"/>
</g>
<path d="M666.061 667.4C666.519 672.382 669.251 676.206 672.165 675.941C675.08 675.676 677.072 671.422 676.614 666.44C676.157 661.458 673.425 657.634 670.51 657.9C667.597 658.165 665.604 662.419 666.061 667.4Z" fill="#3B6BDA"/>
<path d="M715.128 662.931C715.585 667.914 718.318 671.738 721.232 671.472C724.147 671.207 726.138 666.953 725.681 661.971C725.224 656.989 722.491 653.166 719.577 653.431C716.663 653.696 714.671 657.949 715.128 662.931Z" fill="#3B6BDA"/>
<path d="M677.895 722.713C678.509 723.451 679.207 724.085 679.952 724.713C684.887 728.76 692.418 730.452 699.068 728.764C702 728.038 704.707 726.623 706.938 724.834C710.517 721.886 712.965 717.877 713.377 713.679C713.618 711.266 712.842 708.352 710.21 707.564C709.614 707.395 708.942 707.379 708.322 707.404C707.189 707.537 705.988 707.917 704.876 708.238C698.773 710.1 692.241 710.772 685.848 710.187C683.567 709.93 681.365 709.951 679.598 710.397C677.783 710.848 676.402 711.726 675.724 713.285C674.327 716.453 675.659 720.017 677.895 722.713Z" fill="#517CDE"/>
<path d="M679.598 710.395C679.834 711.989 680.355 713.55 681.528 714.557C682.812 715.694 684.574 716.011 686.267 716.147C692.377 716.765 698.661 716.026 704.453 713.963C705.831 713.467 707.287 712.819 708.051 711.584C708.815 710.35 708.684 708.839 708.323 707.402C707.189 707.535 705.988 707.915 704.876 708.236C698.773 710.099 692.242 710.77 685.849 710.185C683.566 709.929 681.365 709.949 679.598 710.395Z" fill="white"/>
<path d="M679.953 724.715C684.888 728.762 692.418 730.454 699.069 728.767C702.001 728.04 704.707 726.625 706.939 724.837C704.262 722.051 700.034 720.735 696.028 720.49C690.378 720.104 684.502 721.462 679.953 724.715Z" fill="#ACC1EF"/>
<path d="M616.23 699.387L599.662 685.247L601.438 683.184L618.006 697.323L616.23 699.387Z" fill="#B8C9F2"/>
<path d="M603.541 699.258L601.502 697.452L607.813 690.383L609.853 692.188L603.541 699.258Z" fill="#B8C9F2"/>
<path d="M550.133 606.418C573.563 606.418 592.557 587.506 592.557 564.176C592.557 540.846 573.563 521.934 550.133 521.934C526.703 521.934 507.709 540.846 507.709 564.176C507.709 587.506 526.703 606.418 550.133 606.418Z" fill="#4472DC"/>
<path d="M790.262 1163.43L779.635 1114.99C778.759 1115.17 777.847 1115.24 776.9 1115.2L746.881 1114.68L492.206 1110.18L487.051 1142.93L478.051 1202.03L801.474 1209.34L790.262 1163.43Z" fill="#517CDE"/>
<path d="M491.865 1110L489.602 1126L594.528 1125.9C624.173 1127.42 624.935 1108.48 624.935 1108.48L721.522 1108.59L720.97 1113.59C720.233 1120.21 725.442 1125.98 732.122 1125.98L780.81 1125.9L794.515 1017.52C804.747 1017.34 813.401 1015.76 820.661 1013.41C843.229 1006.05 855.619 981.925 848.806 959.296L818.083 857.125C792.227 772.318 716.183 785.964 699.454 781.406L583.402 779.887H583.376C569.514 784.811 563.929 795.764 547.384 798.986C516.214 805.036 486.908 838.409 486.908 838.409C486.908 838.409 445.492 910.135 437.127 1007.04C428.762 1103.95 491.865 1110 491.865 1110Z" fill="#D0DCF6"/>
<path d="M711.561 782.672C739.185 784.111 796.352 785.858 818.08 857.124L848.798 959.283C855.606 981.926 843.222 1006.05 820.662 1013.39C813.396 1015.76 804.752 1017.33 794.508 1017.51L782.018 1126.09L732.127 1125.97C725.448 1125.98 720.242 1120.21 720.964 1113.6L721.512 1108.58C721.511 1108.58 764.733 896.679 711.561 782.672Z" fill="#809FE7"/>
<path d="M593.86 1125.24L488.927 1125.33L491.208 1109.34C491.208 1109.34 428.097 1103.28 436.461 1006.37C444.825 909.459 484.449 836.787 484.449 836.787C484.449 836.787 505.806 802.307 535.31 790.591C548.606 785.31 566.061 779.219 582.713 779.219C591.571 802.696 630.343 917.149 624.274 1107.83L624.229 1108.31C623.87 1111.24 620.7 1126.61 593.86 1125.24Z" fill="#809FE7"/>
<path d="M624.898 1108.97L624.943 1108.49C629.251 973.15 610.968 876.227 596.826 822.965C610.493 838.033 632.63 854.258 664.863 854.854C696.974 855.448 715.543 839.273 725.911 823.925C755.648 941.2 721.512 1108.58 721.512 1108.58C721.512 1108.58 624.538 1111.9 624.898 1108.97Z" fill="#EDF2FC"/>
<path d="M592.419 1001.56L639.241 996.625L653.246 1073.1L587.305 1084.07L592.419 1001.56Z" fill="#A8BDEF"/>
<path d="M559.074 892.454L547.812 1004.29L551.738 1004.68L563 892.849L559.074 892.454Z" fill="#6C90E3"/>
<path d="M492.017 1111.96L491.738 1108.04C549.882 1103.95 623.536 1076.24 624.273 1075.96L625.677 1079.64C624.934 1079.92 550.747 1107.83 492.017 1111.96Z" fill="#8BA8E9"/>
<path d="M1172.85 1057.35H1371.88C1374.36 1057.35 1376.37 1055.34 1376.37 1052.86V854.226C1376.37 851.745 1374.36 849.734 1371.88 849.734H1172.85C1170.37 849.734 1168.36 851.745 1168.36 854.226V1052.86C1168.36 1055.34 1170.37 1057.35 1172.85 1057.35Z" fill="#678DE2"/>
<path d="M1165.6 1046.71H1359.01C1363.04 1046.71 1366.31 1043.45 1366.31 1039.42V846.392C1366.31 842.361 1363.04 839.094 1359.01 839.094H1165.6C1161.57 839.094 1158.3 842.361 1158.3 846.392V1039.42C1158.3 1043.45 1161.57 1046.71 1165.6 1046.71Z" fill="#9DB5ED"/>
<path d="M1520.6 989.044H1625.98C1627.57 989.044 1628.86 987.751 1628.86 986.157V898.063C1628.86 896.468 1627.57 895.176 1625.98 895.176H1520.6C1519.01 895.176 1517.71 896.469 1517.71 898.063V986.157C1517.71 987.751 1519.01 989.044 1520.6 989.044Z" fill="#6E92E4"/>
<path d="M1418.31 907.804C1426.37 907.804 1432.91 901.249 1432.91 893.164C1432.91 885.078 1426.37 878.523 1418.31 878.523C1410.24 878.523 1403.7 885.078 1403.7 893.164C1403.7 901.249 1410.24 907.804 1418.31 907.804Z" fill="#A4BAEE"/>
<path d="M1368.11 893.366L1368.08 897.691L1374.55 897.748L1374.59 893.422L1368.11 893.366Z" fill="#A4BAEE"/>
<path d="M1387.18 893.495L1387.14 897.82L1399.79 897.93L1399.83 893.605L1387.18 893.495Z" fill="#A4BAEE"/>
<path d="M1421.08 898.198L1412.45 898.124L1412.49 893.798L1416.8 893.836L1416.84 889.512L1421.15 889.547L1421.08 898.198Z" fill="#A4BAEE"/>
<path d="M1417.03 861.699L1416.92 875.562L1421.23 875.597L1421.35 861.734L1417.03 861.699Z" fill="#A4BAEE"/>
<path d="M1421.49 847.954L1417.18 847.92L1417.25 839.301L1425.84 839.242L1425.87 843.568L1421.53 843.597L1421.49 847.954Z" fill="#A4BAEE"/>
<path d="M1438 843.484L1437.97 839.158L1450.09 839.076L1450.12 843.401L1438 843.484ZM1462.24 843.319L1462.22 838.994L1474.34 838.911L1474.37 843.237L1462.24 843.319ZM1486.49 843.154L1486.46 838.829L1498.59 838.746L1498.61 843.071L1486.49 843.154Z" fill="#A4BAEE"/>
<path d="M1515.1 847.294L1515.06 842.961L1510.74 842.99L1510.71 838.664L1519.33 838.605L1519.42 847.249L1515.1 847.294Z" fill="#A4BAEE"/>
<path d="M1516.17 949.135L1516.03 936.405L1520.35 936.36L1520.48 949.09L1516.17 949.135ZM1515.9 923.675L1515.77 910.945L1520.08 910.9L1520.22 923.63L1515.9 923.675ZM1515.64 898.214L1515.5 885.485L1519.82 885.44L1519.95 898.17L1515.64 898.214ZM1515.37 872.755L1515.24 860.025L1519.55 859.98L1519.69 872.711L1515.37 872.755Z" fill="#A4BAEE"/>
<path d="M1520.53 961.795L1516.22 961.84L1516.28 968.328L1520.6 968.283L1520.53 961.795Z" fill="#A4BAEE"/>
<path d="M1616.86 982.446H1513.17C1510.56 982.446 1508.44 980.327 1508.44 977.714V892.4C1508.44 889.787 1510.56 887.668 1513.17 887.668H1616.86C1619.47 887.668 1621.59 889.787 1621.59 892.4V977.714C1621.59 980.327 1619.47 982.446 1616.86 982.446Z" fill="#8DA9EA"/>
<path d="M1604.22 920.881H1530.2C1529.31 920.881 1528.59 920.16 1528.59 919.271V911.485C1528.59 910.595 1529.31 909.875 1530.2 909.875H1604.22C1605.11 909.875 1605.83 910.596 1605.83 911.485V919.271C1605.83 920.16 1605.11 920.881 1604.22 920.881Z" fill="#C3D2F4"/>
<path d="M1604.48 938.092H1530.46C1529.57 938.092 1528.85 937.371 1528.85 936.482V928.696C1528.85 927.806 1529.57 927.086 1530.46 927.086H1604.48C1605.36 927.086 1606.09 927.807 1606.09 928.696V936.482C1606.09 937.371 1605.36 938.092 1604.48 938.092Z" fill="#C3D2F4"/>
<path d="M1605.25 958.287H1531.23C1530.34 958.287 1529.62 957.566 1529.62 956.677V948.891C1529.62 948.002 1530.34 947.281 1531.23 947.281H1605.25C1606.14 947.281 1606.86 948.002 1606.86 948.891V956.677C1606.86 957.566 1606.14 958.287 1605.25 958.287Z" fill="#C3D2F4"/>
<path d="M1075.14 882.514H910.058C907.92 882.514 906.188 880.781 906.188 878.643V791.699C906.188 789.561 907.92 787.828 910.058 787.828H1075.14C1077.28 787.828 1079.01 789.561 1079.01 791.699V878.643C1079.01 880.781 1077.28 882.514 1075.14 882.514Z" fill="#6A8EE3"/>
<path d="M1052.72 644.7H839.281C835.49 644.7 832.416 641.627 832.416 637.835V537.342C832.416 533.55 835.49 530.477 839.281 530.477H1052.72C1056.51 530.477 1059.58 533.55 1059.58 537.342V637.835C1059.58 641.627 1056.51 644.7 1052.72 644.7Z" fill="#678DE2"/>
<path d="M1044.18 636.074H837.542C834.12 636.074 831.346 633.3 831.346 629.879V532.137C831.346 528.715 834.12 525.941 837.542 525.941H1044.18C1047.6 525.941 1050.37 528.715 1050.37 532.137V629.879C1050.37 633.3 1047.6 636.074 1044.18 636.074Z" fill="#9DB5ED"/>
<path d="M1668.19 655.551H1420.82C1416.14 655.551 1412.34 651.757 1412.34 647.076V536.818C1412.34 532.138 1416.14 528.344 1420.82 528.344H1668.19C1672.87 528.344 1676.66 532.138 1676.66 536.818V647.076C1676.66 651.757 1672.87 655.551 1668.19 655.551Z" fill="#B1C4F0"/>
<path d="M992.985 1034.26C1018.62 1034.26 1039.4 1013.57 1039.4 988.044C1039.4 962.52 1018.62 941.828 992.985 941.828C967.351 941.828 946.57 962.52 946.57 988.044C946.57 1013.57 967.351 1034.26 992.985 1034.26Z" fill="#4A77DD"/>
<path d="M1061.19 581.475L1055.83 581.531L1055.88 586.877L1061.25 586.82L1061.19 581.475Z" fill="#A4BAEE"/>
<path d="M1072.41 586.775L1072.35 581.429L1083.48 581.315L1083.54 586.661L1072.41 586.775ZM1094.67 586.545L1094.61 581.199L1105.74 581.086L1105.8 586.432L1094.67 586.545ZM1116.93 586.318L1116.87 580.972L1128 580.857L1128.05 586.203L1116.93 586.318ZM1139.18 586.088L1139.13 580.742L1150.26 580.628L1150.32 585.975L1139.18 586.088ZM1161.44 585.86L1161.39 580.514L1172.52 580.399L1172.57 585.745L1161.44 585.86ZM1183.7 585.63L1183.65 580.284L1194.78 580.169L1194.83 585.515L1183.7 585.63ZM1205.96 585.402L1205.91 580.056L1217.04 579.941L1217.09 585.288L1205.96 585.402Z" fill="#A4BAEE"/>
<path d="M1230.99 587.85L1230.93 585.148L1228.22 585.176L1228.16 579.83L1236.19 579.746L1236.36 587.734L1230.99 587.85Z" fill="#A4BAEE"/>
<path d="M1232.37 650.744L1232.14 640.26L1237.51 640.146L1237.74 650.629L1232.37 650.744ZM1231.91 629.777L1231.68 619.292L1237.05 619.178L1237.28 629.663L1231.91 629.777ZM1231.45 608.809L1231.22 598.326L1236.59 598.211L1236.82 608.694L1231.45 608.809Z" fill="#A4BAEE"/>
<path d="M1238.02 661.107L1232.65 661.223L1232.77 666.569L1238.14 666.453L1238.02 661.107Z" fill="#A4BAEE"/>
<path d="M1529.49 576.705L1529.46 582.051L1534.83 582.086L1534.86 576.74L1529.49 576.705Z" fill="#A4BAEE"/>
<path d="M1534.15 684.422L1528.79 684.391L1528.85 674.16L1534.22 674.191L1534.15 684.422ZM1534.28 663.959L1528.91 663.927L1528.97 653.695L1534.34 653.726L1534.28 663.959ZM1534.41 643.495L1529.04 643.464L1529.1 633.232L1534.47 633.263L1534.41 643.495ZM1534.53 623.032L1529.16 623.001L1529.22 612.768L1534.59 612.8L1534.53 623.032ZM1534.66 602.568L1529.29 602.537L1529.35 592.305L1534.72 592.336L1534.66 602.568Z" fill="#A4BAEE"/>
<path d="M1526.01 702.666L1526 697.32L1528.71 697.315L1528.72 694.621L1534.09 694.652L1534.04 702.65L1526.01 702.666Z" fill="#A4BAEE"/>
<path d="M1277.55 703.153L1277.54 697.807L1287.9 697.787L1287.91 703.133L1277.55 703.153ZM1298.26 703.113L1298.25 697.766L1308.6 697.746L1308.61 703.092L1298.26 703.113ZM1318.96 703.072L1318.95 697.726L1329.31 697.706L1329.32 703.052L1318.96 703.072ZM1339.67 703.032L1339.66 697.686L1350.01 697.665L1350.02 703.011L1339.67 703.032ZM1360.37 702.993L1360.36 697.647L1370.71 697.626L1370.72 702.972L1360.37 702.993ZM1381.08 702.951L1381.07 697.605L1391.42 697.586L1391.43 702.932L1381.08 702.951ZM1401.78 702.911L1401.77 697.565L1412.12 697.545L1412.13 702.892L1401.78 702.911ZM1422.49 702.871L1422.48 697.525L1432.83 697.505L1432.84 702.851L1422.49 702.871ZM1443.19 702.831L1443.18 697.484L1453.53 697.464L1453.54 702.81L1443.19 702.831ZM1463.89 702.79L1463.88 697.444L1474.24 697.423L1474.25 702.77L1463.89 702.79ZM1484.6 702.751L1484.59 697.405L1494.94 697.384L1494.95 702.73L1484.6 702.751ZM1505.3 702.711L1505.29 697.365L1515.65 697.344L1515.66 702.69L1505.3 702.711Z" fill="#A4BAEE"/>
<path d="M1267.22 697.778L1261.85 697.789L1261.86 703.135L1267.23 703.124L1267.22 697.778Z" fill="#A4BAEE"/>
<path d="M986.436 928.018L986.359 917.328L991.728 917.29L991.805 927.98L986.436 928.018ZM986.281 906.636L986.204 895.944L991.573 895.906L991.649 906.598L986.281 906.636ZM986.126 885.252L986.048 874.56L991.417 874.522L991.495 885.214L986.126 885.252ZM985.97 863.868L985.893 853.178L991.262 853.14L991.339 863.83L985.97 863.868ZM985.816 842.486L985.738 831.794L991.107 831.756L991.185 842.448L985.816 842.486ZM985.66 821.102L985.582 810.41L990.951 810.372L991.029 821.064L985.66 821.102ZM985.505 799.718L985.427 789.028L990.797 788.99L990.873 799.68L985.505 799.718ZM985.35 778.336L985.272 767.644L990.641 767.605L990.719 778.298L985.35 778.336ZM985.195 756.952L985.117 746.26L990.486 746.222L990.564 756.914L985.195 756.952ZM985.04 735.568L984.962 724.878L990.331 724.84L990.409 735.53L985.04 735.568ZM984.884 714.186L984.807 703.493L990.176 703.455L990.253 714.147L984.884 714.186ZM1172.33 697.803H1161.6V692.457H1172.33V697.803ZM1150.86 697.803H1140.12V692.457H1150.86V697.803ZM1129.38 697.803H1118.64V692.457H1129.38V697.803ZM1107.91 697.803H1097.17V692.457H1107.91V697.803ZM1086.43 697.803H1075.69V692.457H1086.43V697.803ZM1064.95 697.803H1054.22V692.457H1064.95V697.803ZM1043.48 697.803H1032.74V692.457H1043.48V697.803ZM1022 697.803H1011.26V692.457H1022V697.803ZM1000.53 697.803H989.788V692.457H1000.53V697.803Z" fill="#A4BAEE"/>
<path d="M1035.56 978.106L1035.53 972.76L1046.27 972.7L1046.3 978.046L1035.56 978.106ZM1057.03 977.989L1057 972.643L1067.74 972.583L1067.77 977.929L1057.03 977.989ZM1078.51 977.873L1078.48 972.527L1089.22 972.468L1089.25 977.814L1078.51 977.873ZM1099.99 977.756L1099.96 972.41L1110.69 972.35L1110.72 977.696L1099.99 977.756ZM1121.46 977.639L1121.43 972.293L1132.17 972.234L1132.2 977.58L1121.46 977.639ZM1142.94 977.523L1142.91 972.177L1153.64 972.118L1153.67 977.464L1142.94 977.523ZM1164.41 977.406L1164.38 972.06L1173.83 972.008L1173.86 977.354L1164.41 977.406Z" fill="#A4BAEE"/>
<path d="M1621.01 1230.96C1617.94 1232.16 1618.05 1234.68 1621.01 1230.96V1230.96Z" fill="#809FE7"/>
<path d="M1920.3 1091.52H1666.19C1642.4 1194.5 1626.61 1223.91 1621.01 1230.96C1623.66 1229.91 1628.68 1229.85 1636.28 1235.66L1935.48 1233.46C1936.21 1230.54 1940.62 1164.74 1920.3 1091.52Z" fill="#809FE7"/>
<path d="M1630.42 1102.59C1630.42 1102.59 1832.81 1174.35 1956.22 1149.74L1941.34 1124.29C1941.34 1124.29 1749.43 1100.09 1746.07 1099.25C1742.72 1098.42 1630.42 1102.59 1630.42 1102.59Z" fill="#BCCDF2"/>
<path d="M1637.39 1086.05L1622.62 1100.76C1622.62 1100.76 1644.78 1108.9 1652.01 1108.9C1659.23 1108.9 1678.88 1104.83 1678.88 1104.83C1678.88 1104.83 1675.42 1100.76 1665.68 1098.1C1655.93 1095.44 1637.39 1086.05 1637.39 1086.05Z" fill="#B5C8F1"/>
<path fill-rule="evenodd" clip-rule="evenodd" d="M1662.06 1112.18L1651.38 1167.88C1651.38 1167.88 1827.48 1207.88 1934.33 1166.57L1932.68 1153.55C1932.68 1153.55 1751.31 1145.35 1662.06 1112.18Z" fill="#6C90E3"/>
<path d="M1383.66 694.456C1386.24 693.429 1390.76 696.356 1393.61 699.155L1437.97 744.847L1446.12 726.123C1447.61 721.62 1452.74 719.275 1457.2 721.25C1461.08 722.971 1462.82 727.541 1461.49 731.562L1457.75 742.867C1456.32 747.209 1456.12 751.862 1457.17 756.31C1458.33 761.186 1461.96 765.185 1461.38 770.161L1462.75 778.653L1563.15 870.911L1661.49 795.382L1718.33 859.734L1591.38 962.913C1588.9 964.903 1586.22 966.486 1583.45 967.758C1568.36 977.506 1546.25 979.144 1533.51 965.618L1418.06 817.658C1418.06 817.658 1407.9 814.945 1395.68 804.655C1388.37 798.497 1382.22 791.225 1378.45 786.36L1369.6 778.16C1366.55 775.339 1366.38 770.551 1369.21 767.52L1370.62 766.016C1372.93 763.54 1376.55 763.006 1379.46 764.417L1378.2 763.251C1374.81 760.109 1374.62 754.774 1377.77 751.397L1378 751.152C1380.74 748.23 1385.11 747.703 1388.44 749.646C1385.13 746.494 1384.96 741.231 1388.09 737.884L1388.32 737.638C1391.47 734.261 1396.83 734.069 1400.22 737.211L1403.82 740.545L1380.14 705.321C1377.39 701.469 1377.75 696.812 1383.66 694.456Z" fill="#D0DCF6"/>
<path d="M1370.6 777.083L1385.87 791.234C1388.35 793.515 1392.19 793.37 1394.48 790.926L1395.88 789.424C1396.99 788.246 1397.56 786.702 1397.5 785.079C1397.45 783.793 1396.92 782.648 1396.15 781.657L1394.18 779.568L1380.3 766.707C1379.7 766.152 1379.67 765.226 1380.22 764.63C1380.78 764.037 1381.7 763.99 1382.31 764.556L1397.58 778.706C1398.1 779.185 1398.53 779.726 1398.91 780.296L1399.89 781.337C1401.24 782.591 1403.02 783.242 1404.87 783.175C1406.74 783.109 1408.45 782.331 1409.94 780.741C1411.2 779.395 1411.85 777.631 1411.79 775.78C1411.73 773.959 1410.95 772.287 1409.65 771.041C1409.14 770.724 1408.65 770.394 1408.2 769.977L1393.37 756.238C1392.77 755.684 1392.74 754.757 1393.3 754.162C1393.85 753.569 1394.77 753.536 1395.38 754.088L1410.21 767.826C1412.99 770.431 1417.41 770.271 1420.26 767.228C1422.87 764.434 1422.71 760.049 1419.9 757.451L1404.81 743.472C1404.22 742.918 1404.19 741.99 1404.74 741.396C1405.3 740.802 1406.21 740.754 1406.83 741.321L1421.92 755.3C1425.91 759.003 1426.14 765.25 1422.19 769.476C1420.38 771.416 1417.95 772.385 1415.49 772.513C1416.55 775.757 1420.63 784.727 1434.7 791.227C1435.62 791.688 1435.94 792.657 1435.55 793.518C1435.14 794.382 1434.11 794.757 1433.24 794.357C1431.68 793.635 1430.24 792.886 1428.9 792.118C1421 787.586 1416.74 782.387 1414.41 778.369C1414 780.013 1413.19 781.579 1411.87 782.988C1408.88 786.184 1404.26 786.924 1400.44 785.147C1400.48 787.49 1399.64 789.715 1398.05 791.426L1396.64 792.931C1393.72 796.048 1389.07 796.638 1385.51 794.594C1384.93 794.262 1384.38 793.859 1383.86 793.387L1368.59 779.234C1367.99 778.68 1367.96 777.753 1368.52 777.158C1369.07 776.565 1369.99 776.53 1370.6 777.083Z" fill="#B8C9F2"/>
<path d="M1593.75 847.283L1663.79 793.082L1718.33 859.729L1622.04 938.193C1616.43 931.443 1589.92 881.385 1593.75 847.283Z" fill="#B8C9F2"/>
<path d="M1745.7 859.344C1724.4 887.199 1686 928.105 1635.09 943.746L1592.29 828.668C1592.29 828.668 1647.23 771.725 1694.12 757.321C1723.83 748.191 1729.56 768.041 1742.17 781.338C1762.49 802.755 1763.62 835.903 1745.7 859.344Z" fill="#517CDE"/>
<path d="M1601.25 821.051C1617.97 858.027 1634.7 895.003 1651.43 931.979C1652.18 933.645 1655.16 932.822 1654.4 931.135C1637.67 894.159 1620.95 857.184 1604.22 820.208C1603.47 818.541 1600.48 819.364 1601.25 821.051Z" fill="#9DB5ED"/>
<path d="M1627.49 1095.91L1956.22 1149.73C1956.22 1149.73 1948.34 1077.73 1952.56 1033.13C1954.25 1015.32 1955.71 995.06 1956.54 973.246C1957.38 951.582 1957.56 928.402 1956.68 904.535L1956.68 904.493C1955.43 870.097 1951.97 834.319 1945.01 799.764C1940.49 777.188 1912.52 759.542 1881.29 744.689C1872.67 740.593 1864.65 737.133 1857.46 734.249C1836.04 725.646 1822.05 722.163 1822.05 722.163C1822.05 722.163 1797.32 719.575 1759.79 730.459C1757.43 731.142 1755.08 731.847 1752.76 732.561C1712.26 744.963 1679.61 761.013 1681 772.413C1681.8 778.99 1676.63 813.247 1679.86 856.084C1681.61 879.129 1681.69 903.922 1682.74 928.878C1682.74 928.878 1682.75 928.91 1682.75 928.953C1682.81 930.443 1682.87 931.933 1682.93 933.434C1685.46 997.878 1641.67 1092.86 1627.49 1095.91Z" fill="#BCCDF2"/>
<path d="M1785.74 770.482C1820.44 769.43 1846.01 746.704 1857.46 734.249C1836.04 725.646 1822.05 722.163 1822.05 722.163C1822.05 722.163 1797.33 719.575 1759.79 730.459C1757.43 731.142 1755.08 731.847 1752.76 732.561C1750.59 747.01 1751.86 771.51 1785.74 770.482Z" fill="#D0DCF6"/>
<path d="M1853.43 753.008C1835.74 765.472 1816.86 778.042 1795.21 782.183C1776.62 785.736 1756.4 782.754 1741.79 770.143C1740.67 769.179 1742.39 767.658 1743.5 768.612C1758.07 781.186 1778.74 783.547 1797.04 779.462C1817.37 774.928 1835.14 763.111 1851.89 751.307C1853.09 750.464 1854.63 752.158 1853.43 753.008Z" fill="#B1C4F0"/>
<path d="M1679.96 793.181C1687.23 796.438 1694.73 799.206 1702.33 801.595C1745.45 815.185 1792.24 820.346 1837.26 821.922C1874.29 823.214 1911.34 821.028 1947.95 815.635C1947.05 810.317 1946.07 805.023 1945.02 799.763C1944.39 796.627 1943.27 793.601 1941.75 790.675C1927.76 792.666 1913.68 794.134 1899.55 795.11C1854.1 798.259 1808.26 796.364 1763.29 788.916C1736.62 784.497 1707.46 779.316 1683.1 766.273C1681.5 768.426 1680.77 770.487 1681 772.412C1681.33 775.108 1680.65 782.47 1679.96 793.181Z" fill="#B1C4F0"/>
<path d="M1679.04 840.844C1679.2 845.776 1679.47 850.867 1679.86 856.082C1680.21 860.644 1680.49 865.273 1680.72 869.956C1686.8 872.509 1693.02 874.746 1699.31 876.724C1742.42 890.326 1789.22 895.487 1834.24 897.063C1874.99 898.478 1915.78 895.695 1955.97 889.045C1955.51 880.548 1954.89 871.99 1954.1 863.416C1935.05 866.656 1915.84 868.924 1896.54 870.25C1851.08 873.388 1805.24 871.505 1760.28 864.056C1733.22 859.574 1703.61 854.31 1679.04 840.844Z" fill="#B1C4F0"/>
<path d="M1681.54 946.657C1682.17 946.906 1682.79 947.145 1683.41 947.384C1687.65 949.016 1691.96 950.506 1696.29 951.867C1739.4 965.457 1786.21 970.629 1831.22 972.194C1871.99 973.62 1912.77 970.837 1952.97 964.188C1954.26 963.976 1955.57 963.754 1956.87 963.532C1957.12 955.034 1957.25 946.336 1957.26 937.47C1955.61 937.778 1953.95 938.064 1952.28 938.351C1932.83 941.709 1913.22 944.033 1893.51 945.392C1848.05 948.531 1802.21 946.647 1757.26 939.198C1739.48 936.259 1720.59 932.968 1702.77 927.24C1695.77 925.005 1688.94 922.379 1682.39 919.25C1682.5 922.456 1682.6 925.662 1682.75 928.878C1682.75 928.878 1682.75 928.878 1682.75 928.889C1682.75 928.889 1682.75 928.91 1682.74 928.953C1682.74 929.275 1682.69 930.758 1682.54 933.22C1682.38 936.285 1682.07 940.877 1681.54 946.657Z" fill="#B1C4F0"/>
<path d="M1669.28 1017.85C1673.53 1019.83 1677.88 1021.62 1682.29 1023.25C1685.91 1024.6 1689.58 1025.85 1693.26 1027.01C1736.37 1040.6 1783.18 1045.77 1828.2 1047.34C1869.65 1048.78 1911.14 1045.88 1952 1038.98C1952.12 1038.97 1952.23 1038.95 1952.35 1038.93C1952.43 1036.99 1952.5 1035.06 1952.56 1033.13C1953.18 1026.6 1953.76 1019.75 1954.31 1012.6C1953.89 1012.68 1953.47 1012.76 1953.05 1012.82C1932.36 1016.54 1911.48 1019.09 1890.49 1020.54C1845.03 1023.68 1799.2 1021.79 1754.23 1014.34C1731.01 1010.5 1705.91 1006.07 1683.72 996.387C1680.78 995.103 1677.89 993.72 1675.07 992.238C1673.49 1000.44 1671.57 1009.06 1669.28 1017.85Z" fill="#B1C4F0"/>
<path d="M1952.06 1088.27V1096.02C1952.05 1102.22 1952.04 1108.44 1952 1114.63C1912.97 1120.78 1868.19 1123.84 1828.96 1122.47C1783.94 1120.91 1737.15 1115.74 1694.03 1102.15C1678.1 1097.12 1662.56 1090.47 1648.83 1081.08C1648.26 1080.54 1643.58 1077.66 1643.05 1077.13C1646.66 1069.78 1651.66 1063 1653.85 1054.74C1680.82 1073.6 1723.88 1084.31 1755 1089.47C1797.22 1096.48 1840.22 1098.56 1882.96 1096.18C1885.73 1096.03 1888.48 1095.87 1891.25 1095.68C1910.82 1094.31 1930.29 1092.02 1949.6 1088.7C1950.42 1088.57 1951.24 1088.42 1952.06 1088.27Z" fill="#B1C4F0"/>
<path d="M1859.39 1043.7C1882.91 1050.65 1912.08 1041.09 1918.51 1021.22L1967.96 879.581L1880.11 854.223L1822.45 992.917C1816.03 1012.79 1835.88 1036.76 1859.39 1043.7Z" fill="#D0DCF6"/>
<path d="M1935.8 972.714C1935.8 972.714 1925.09 954.116 1898.95 940.422C1871.72 926.157 1852.87 918.955 1852.87 918.955L1878.87 858.766L1965.84 883.2L1935.8 972.714Z" fill="#B8C9F2"/>
<path d="M1530.5 1108.32L1555.87 1090.81C1557.8 1089.47 1560.28 1088.82 1562.85 1088.97L1600.76 1091.14L1600.69 1091.06L1677 1097.03L1834.66 979.824C1853.06 967.147 1885.25 971.897 1901.24 988.709L1901.23 988.71C1917.22 1005.52 1923.15 1030.5 1904.75 1043.18L1719.14 1146.66C1681.25 1172.12 1674.25 1160.79 1658.66 1156.09L1658.96 1166.58C1659.09 1171.09 1655.9 1174.99 1651.01 1176.29L1635.12 1180.52C1632.08 1181.32 1628.66 1180.69 1626.07 1178.85L1620.78 1175.08C1617.09 1172.45 1614.99 1168.52 1615.16 1164.55L1615.47 1157.21L1611.9 1165.2L1602.9 1154.86C1600.23 1151.79 1598.98 1148.02 1599.42 1144.35L1600.5 1135.34L1595.94 1146.21L1585.99 1136.51C1582.23 1132.84 1580.7 1127.92 1581.9 1123.37L1584.32 1114.22L1562.39 1111.01L1540.42 1120.8C1537.76 1121.99 1534.46 1121.79 1531.8 1120.29C1526.76 1117.45 1526.1 1111.36 1530.5 1108.32Z" fill="#D0DCF6"/>
<path d="M1948.38 794.095C1966.84 823.891 1971.41 887.735 1967.78 940.666L1842.78 923.668C1842.78 923.668 1836.68 870.97 1840.03 822.231C1842.15 791.336 1857.01 776.295 1874 769.349C1901.38 758.161 1932.85 769.019 1948.38 794.095Z" fill="#517CDE"/>
<path d="M1842.08 911.088C1886.27 910.644 1925.06 923.382 1969.25 922.938C1971.25 922.918 1967.4 919.445 1965.4 919.465C1921.21 919.909 1886.17 907.548 1841.98 907.992C1839.98 908.012 1840.08 911.108 1842.08 911.088Z" fill="#9DB5ED"/>
<path d="M1861.71 629.678C1861.71 629.678 1887.2 556.397 1842.51 540.255C1817.95 531.385 1812.16 633.092 1861.71 629.678Z" fill="#3F6FDB"/>
<path d="M1700.19 551.969C1700.19 551.969 1687.87 591.851 1708.2 610.776C1708.2 610.776 1713.93 613.132 1716.34 612.654C1718.75 612.175 1732.74 611.896 1732.3 608.488C1731.87 605.08 1727.69 587.94 1726.58 582.419C1725.48 576.898 1720.38 563.934 1718.07 561.148C1715.75 558.363 1700.19 551.969 1700.19 551.969Z" fill="#3F6FDB"/>
<path d="M1761.87 654.313L1759.84 740.389C1759.84 740.389 1769.44 745.185 1798.14 748.064C1822.27 750.485 1836.75 742.191 1836.75 742.191L1839.03 645.816L1761.87 654.313Z" fill="#D0DCF6"/>
<path d="M1759.82 740.813L1815.49 694.707L1760.4 716.099L1759.82 740.813Z" fill="#B8C9F2"/>
<path d="M1709.46 567.625L1706.8 680.36C1706.68 685.308 1708.99 690.045 1713 692.993L1743.24 715.245C1747.47 718.377 1753.05 719.132 1757.93 717.195L1815.71 694.776C1821.45 692.547 1825.34 687.063 1825.49 680.867L1828.1 570.405L1709.46 567.625Z" fill="#D0DCF6"/>
<g opacity="0.32">
<path d="M1708.12 624.414L1707.07 668.813C1719.38 669.101 1729.6 659.394 1729.89 647.136C1730.18 634.877 1720.43 624.702 1708.12 624.414Z" fill="#ACC1EF"/>
</g>
<path d="M1752.95 649.378L1735.77 648.976C1735.29 648.964 1734.83 648.748 1734.51 648.383C1734.2 648.017 1734.05 647.535 1734.11 647.057L1740.24 598.987C1740.36 598.053 1741.22 597.388 1742.16 597.511C1743.09 597.629 1743.76 598.482 1743.64 599.417L1737.75 645.611L1753.03 645.969C1753.98 645.991 1754.73 646.773 1754.7 647.714C1754.68 648.656 1753.9 649.4 1752.95 649.378Z" fill="#9FB7ED"/>
<path d="M1818.55 644.989C1818.18 660.506 1830.51 673.381 1846.1 673.747C1861.68 674.112 1874.61 661.829 1874.98 646.312C1875.35 630.795 1863.01 617.92 1847.43 617.555C1831.84 617.19 1818.91 629.473 1818.55 644.989Z" fill="#D0DCF6"/>
<path d="M1763.98 590.852C1763.95 597.321 1785.33 602.045 1786.56 596.165C1788.6 586.405 1764.04 580.607 1763.98 590.852Z" fill="#2B5FD7"/>
<path d="M1706.98 593.815C1709.84 599.046 1729.18 593.407 1727.55 588.12C1724.85 579.346 1702.46 585.528 1706.98 593.815Z" fill="#2B5FD7"/>
<g opacity="0.32">
<path d="M1794.94 669.39C1807.26 669.39 1817.25 659.445 1817.25 647.178C1817.25 634.91 1807.26 624.965 1794.94 624.965C1782.62 624.965 1772.63 634.91 1772.63 647.178C1772.63 659.445 1782.62 669.39 1794.94 669.39Z" fill="#ACC1EF"/>
</g>
<path d="M1765.19 615.941C1765.19 620.424 1767.32 624.057 1769.94 624.058C1772.56 624.059 1774.68 620.426 1774.69 615.945C1774.69 611.463 1772.56 607.829 1769.94 607.828C1767.32 607.827 1765.19 611.459 1765.19 615.941Z" fill="#3B6BDA"/>
<path d="M1718.37 614.812C1718.37 619.295 1720.49 622.928 1723.11 622.929C1725.73 622.93 1727.86 619.297 1727.86 614.816C1727.86 610.334 1725.74 606.7 1723.12 606.699C1720.5 606.698 1718.37 610.331 1718.37 614.812Z" fill="#3B6BDA"/>
<path d="M1750.55 678.644C1746.58 678.551 1742.05 677.335 1737.28 673.981C1736.51 673.438 1736.32 672.374 1736.87 671.605C1737.41 670.836 1738.48 670.652 1739.25 671.195C1752.09 680.211 1762.47 671.538 1762.9 671.164C1763.61 670.551 1764.7 670.627 1765.31 671.337C1765.93 672.047 1765.86 673.119 1765.15 673.738C1765.06 673.812 1759.12 678.844 1750.55 678.644Z" fill="#9FB7ED"/>
<path d="M1840.3 662.196C1839.79 662.184 1839.29 661.948 1838.96 661.51C1836.66 658.429 1835.22 654.428 1834.7 649.619C1833.14 635.41 1846.63 630.089 1853.98 629.262C1854.91 629.152 1855.76 629.827 1855.87 630.764C1855.98 631.699 1855.3 632.543 1854.36 632.649C1853.61 632.736 1836.53 634.881 1838.1 649.249C1838.56 653.446 1839.77 656.885 1841.71 659.474C1842.27 660.228 1842.12 661.297 1841.36 661.859C1841.04 662.095 1840.67 662.205 1840.3 662.196Z" fill="#9FB7ED"/>
<path d="M1836.36 651.138C1836.03 651.13 1835.71 651.032 1835.43 650.837C1834.65 650.302 1834.45 649.241 1834.99 648.465C1841.02 639.75 1849.43 642.099 1853.02 644.56C1853.8 645.092 1854 646.154 1853.47 646.93C1852.93 647.705 1851.87 647.903 1851.09 647.374C1850.31 646.846 1843.3 642.474 1837.81 650.401C1837.47 650.893 1836.91 651.151 1836.36 651.138Z" fill="#9FB7ED"/>
<path d="M1829.87 577.188C1830.57 572.114 1836.34 550.631 1836.52 545.516C1836.78 537.896 1837.04 534.286 1834.99 526.873C1831.86 515.547 1811.13 504.178 1800.16 502.695C1789.7 501.284 1778.98 502.621 1768.79 505.116C1761.81 506.826 1754.99 509.136 1748.34 511.838C1718.56 523.925 1694.21 522.709 1691.95 514.266C1689.2 526.933 1695.69 532.832 1703.51 533.993C1690.99 533.211 1687.03 525.546 1687.03 525.546C1687.03 525.546 1694.88 579.296 1717.21 578.956C1739.54 578.614 1771.45 563.844 1784.23 573.181C1797.01 582.518 1815.95 582.953 1829.87 577.188Z" fill="#4F7ADE"/>
<path d="M1831.4 540.079C1830.39 539.581 1840.53 501.534 1850.45 501.767C1860.37 501.999 1840.7 530.608 1840.7 530.608C1840.7 530.608 1855.24 513.06 1862.62 517.705C1869.99 522.349 1843.24 545.947 1831.4 540.079Z" fill="#3F6FDB"/>
<path d="M1814.87 580.585C1814.87 580.585 1810.39 627.895 1824.94 636.561C1824.94 636.561 1823.72 622.413 1838.72 619.011C1853.85 615.577 1839.54 604.83 1838.68 599.913C1837.81 594.996 1832.95 571.868 1832.95 571.868L1803.66 562.367L1814.87 580.585Z" fill="#4F7ADE"/>
<path d="M1727.54 518.461C1727.54 518.461 1733.16 533.865 1741.74 539.432C1750.33 545 1739.93 552.183 1742.1 560.551C1744.27 568.919 1749.85 573.299 1749.85 573.299L1763.92 570.784C1763.92 570.784 1753.62 563.082 1755.18 556.059C1756.73 549.037 1757.33 538.385 1752.55 534.967C1747.77 531.55 1740.83 514.777 1740.83 514.777C1740.83 514.777 1733.3 517.264 1727.54 518.461Z" fill="#5881E0"/>
<path d="M1751.7 510.552C1751.7 510.552 1764.67 523.833 1764.63 536.1C1764.6 548.367 1764.25 548.464 1764.25 548.464C1764.25 548.464 1763.02 553.981 1764.62 558.891C1766.22 563.801 1771.02 569.413 1771.02 569.413L1775.14 569.53C1775.14 569.53 1766.23 558.806 1766.72 554.354C1767.2 549.901 1769.27 535.628 1765.61 526.407C1761.94 517.185 1756.04 508.98 1756.04 508.98L1751.7 510.552Z" fill="#5881E0"/>
<path d="M1836.14 540.605C1836.14 540.605 1876.53 558.69 1844.69 615.724C1844.69 615.724 1833.64 604.693 1832.54 599.525C1831.43 594.358 1818.16 572.991 1820.46 569.617C1822.75 566.244 1836.14 540.605 1836.14 540.605Z" fill="#4F7ADE"/>
<path d="M2021.68 1246H401.206C389.31 1246 379.666 1236.35 379.666 1224.46V1222.92C379.666 1211.02 389.31 1201.38 401.206 1201.38H2021.68C2033.58 1201.38 2043.22 1211.02 2043.22 1222.92V1224.46C2043.22 1236.35 2033.58 1246 2021.68 1246Z" fill="#6A8EE3"/>
<path d="M1179.07 763.253H1308.12C1310.6 763.253 1312.62 761.242 1312.62 758.762V629.964C1312.62 627.483 1310.6 625.473 1308.12 625.473H1179.07C1176.59 625.473 1174.58 627.483 1174.58 629.964V758.762C1174.58 761.242 1176.59 763.253 1179.07 763.253Z" fill="#4A77DD"/>
<path d="M1173.51 758.796H1302.56C1305.04 758.796 1307.05 756.785 1307.05 754.304V625.507C1307.05 623.026 1305.04 621.016 1302.56 621.016H1173.51C1171.03 621.016 1169.02 623.026 1169.02 625.507V754.304C1169.02 756.785 1171.03 758.796 1173.51 758.796Z" fill="#6389E2"/>
<path d="M1225.56 719.758L1249.58 720.868C1250.58 720.915 1251.42 720.174 1251.47 719.214C1251.51 718.254 1250.74 717.439 1249.74 717.393L1225.72 716.283C1224.73 716.237 1223.88 716.978 1223.84 717.937C1223.79 718.897 1224.56 719.712 1225.56 719.758Z" fill="#BACBF2"/>
<path d="M1223.54 724.41C1223.58 723.45 1224.43 722.71 1225.42 722.756L1249.44 723.866C1250.44 723.912 1251.21 724.728 1251.17 725.687C1250.83 733.008 1244.35 738.676 1236.73 738.325C1229.11 737.972 1223.19 731.73 1223.54 724.41Z" fill="#BACBF2"/>
<path d="M1202.59 671.341C1202 683.887 1208.48 695.99 1219.46 702.923C1222.42 704.789 1224.16 707.986 1224.01 711.287C1223.97 712.139 1224.67 712.876 1225.55 712.917L1250.23 714.057C1250.67 714.077 1251.08 713.926 1251.4 713.663C1251.7 713.378 1251.9 712.981 1251.92 712.577C1252.07 709.233 1254.05 706.272 1257.24 704.648C1269.03 698.661 1276.59 686.993 1276.97 674.202C1277.54 655.701 1262.4 639.227 1243.24 637.466C1232.98 636.521 1223.06 639.564 1215.32 646.016C1207.57 652.488 1203.04 661.479 1202.59 671.341Z" fill="#9BB3EC"/>
<path d="M1202.59 671.341C1202 683.887 1208.48 695.99 1219.46 702.923C1222.42 704.789 1224.16 707.986 1224.01 711.287C1223.97 712.139 1224.67 712.876 1225.55 712.917L1250.23 714.057C1250.67 714.077 1251.08 713.926 1251.4 713.663C1251.7 713.378 1251.9 712.981 1251.92 712.577C1252.07 709.233 1254.05 706.272 1257.24 704.648C1269.03 698.661 1276.59 686.993 1276.97 674.202C1277.54 655.701 1262.4 639.227 1243.24 637.466C1232.98 636.521 1223.06 639.564 1215.32 646.016C1207.57 652.488 1203.04 661.479 1202.59 671.341Z" fill="#D2DDF7"/>
<path d="M1220 682.797C1221.12 683.638 1222.87 684.146 1224.89 684.239C1225.82 684.282 1226.8 684.242 1227.78 684.116L1228.25 684.053L1228.46 684.468C1229.17 685.824 1229.78 687.432 1230.3 689.207C1232.27 696.15 1231.86 703.004 1231.46 709.624C1231.38 710.901 1231.3 712.05 1231.25 713.179L1233.16 713.268C1233.21 712.118 1233.29 710.968 1233.34 709.797C1233.75 703.327 1234.21 696.004 1232.12 688.736C1231.67 687.114 1231.11 685.616 1230.49 684.306L1230.18 683.651L1230.9 683.428C1232.84 682.835 1234.7 681.96 1236.4 680.822C1237.34 680.204 1238.24 679.52 1239.03 678.809L1239.54 678.363L1239.98 678.853C1240.7 679.634 1241.51 680.375 1242.41 681.1C1244.02 682.391 1245.77 683.433 1247.64 684.203L1248.34 684.491L1247.98 685.114C1247.23 686.361 1246.54 687.802 1245.93 689.375C1243.21 696.421 1242.95 703.752 1242.76 710.211C1242.73 711.405 1242.68 712.555 1242.62 713.705L1244.53 713.794C1244.58 712.664 1244.61 711.513 1244.65 710.341C1244.87 703.627 1245.1 696.765 1247.7 690.012C1248.38 688.292 1249.14 686.748 1249.98 685.464L1250.22 685.069L1250.68 685.176C1251.67 685.392 1252.62 685.521 1253.55 685.565C1255.59 685.659 1257.36 685.314 1258.55 684.579C1259.86 683.785 1260.38 682.614 1260.01 681.359C1259.6 679.825 1258.27 678.824 1256.54 678.744C1254.32 678.642 1251.83 680.042 1249.74 682.571L1249.43 682.941L1248.97 682.77C1247.1 682.085 1245.3 681.042 1243.63 679.706C1242.73 678.981 1241.9 678.195 1241.18 677.373L1240.82 676.993L1241.15 676.581C1243.6 673.578 1244.65 670.211 1243.94 667.809C1243.42 666.12 1242 665.051 1240.16 664.966C1238.3 664.88 1236.79 665.814 1236.11 667.448C1235.18 669.774 1235.91 673.223 1238.07 676.44L1238.36 676.88L1237.97 677.225C1237.18 677.978 1236.28 678.683 1235.32 679.322C1233.55 680.5 1231.64 681.372 1229.71 681.881L1229.24 682.009L1228.97 681.612C1227.12 678.901 1224.77 677.277 1222.55 677.175C1220.82 677.095 1219.41 677.969 1218.85 679.458C1218.37 680.672 1218.8 681.887 1220 682.797ZM1251.32 683.518L1252.32 682.582C1253.71 681.259 1255.26 680.519 1256.45 680.575C1257.34 680.616 1257.98 681.073 1258.19 681.85C1258.36 682.52 1257.74 682.897 1257.54 683.037C1256.67 683.552 1255.24 683.806 1253.55 683.728C1253.28 683.715 1253 683.702 1252.71 683.667L1251.32 683.518ZM1239.14 674.545C1237.74 672.111 1237.28 669.656 1237.91 668.105C1238.26 667.183 1239.01 666.748 1240.08 666.797C1241.14 666.846 1241.83 667.347 1242.12 668.3C1242.58 669.901 1241.89 672.302 1240.27 674.597L1239.67 675.466L1239.14 674.545ZM1220.62 680.092C1220.92 679.359 1221.58 678.963 1222.47 679.004C1223.67 679.059 1225.13 679.938 1226.4 681.384L1227.31 682.408L1225.91 682.428C1225.62 682.437 1225.35 682.424 1225.09 682.412C1223.4 682.335 1221.98 681.948 1221.16 681.356C1220.97 681.197 1220.36 680.764 1220.62 680.092Z" fill="#FBFCFE"/>
<path d="M944.382 551.617H851.985C851.018 551.617 850.234 552.401 850.234 553.368V563.531C850.234 564.499 851.018 565.282 851.985 565.282H944.383C945.35 565.282 946.134 564.498 946.134 563.531V553.368C946.134 552.401 945.35 551.617 944.382 551.617Z" fill="#E0E7F9"/>
<path d="M944.695 572.977H852.298C851.331 572.977 850.547 573.761 850.547 574.728V584.891C850.547 585.858 851.331 586.642 852.298 586.642H944.695C945.662 586.642 946.446 585.858 946.446 584.891V574.728C946.446 573.761 945.662 572.977 944.695 572.977Z" fill="#E0E7F9"/>
<path d="M945.658 598.055H853.261C852.294 598.055 851.51 598.839 851.51 599.806V609.969C851.51 610.936 852.294 611.72 853.261 611.72H945.658C946.625 611.72 947.409 610.936 947.409 609.969V599.806C947.41 598.839 946.626 598.055 945.658 598.055Z" fill="#E0E7F9"/>
<path d="M1007.89 576.644L1011.01 571.709L1004.21 564.845L999.266 567.947C997.425 566.868 995.47 566.058 993.459 565.516L992.187 559.808L982.533 559.777L981.227 565.477C979.212 566.006 977.252 566.804 975.405 567.871L970.48 564.737L963.635 571.558L966.731 576.512C965.654 578.358 964.847 580.318 964.307 582.334L958.613 583.608L958.584 593.284L964.271 594.595C964.798 596.615 965.595 598.579 966.66 600.431L963.534 605.367L970.34 612.231L975.282 609.128C977.123 610.207 979.078 611.017 981.09 611.558L982.362 617.267L992.016 617.297L993.322 611.597C995.337 611.068 997.296 610.271 999.144 609.203L1004.07 612.338L1010.91 605.517L1007.82 600.563C1008.89 598.717 1009.7 596.758 1010.24 594.741L1015.94 593.467L1015.96 583.791L1010.28 582.48C1009.75 580.461 1008.95 578.496 1007.89 576.644ZM994.266 595.589C990.209 599.63 983.653 599.609 979.621 595.542C975.589 591.476 975.608 584.903 979.664 580.863C983.721 576.822 990.277 576.843 994.309 580.909C998.342 584.976 998.322 591.548 994.266 595.589Z" fill="white"/>
<path d="M1022 556.081L1024.1 552.777L1019.54 548.181L1016.23 550.259C1015 549.536 1013.69 548.994 1012.34 548.632L1011.49 544.809L1005.03 544.789L1004.15 548.606C1002.8 548.96 1001.49 549.493 1000.25 550.208L996.957 548.109L992.374 552.677L994.447 555.993C993.726 557.229 993.185 558.541 992.824 559.892L989.011 560.745L988.992 567.223L992.799 568.101C993.153 569.453 993.686 570.768 994.399 572.008L992.306 575.313L996.863 579.909L1000.17 577.831C1001.4 578.554 1002.71 579.096 1004.06 579.459L1004.91 583.281L1011.37 583.301L1012.25 579.485C1013.6 579.131 1014.91 578.596 1016.15 577.882L1019.44 579.981L1024.03 575.414L1021.96 572.097C1022.68 570.861 1023.22 569.549 1023.58 568.199L1027.39 567.346L1027.41 560.868L1023.6 559.99C1023.25 558.637 1022.72 557.322 1022 556.081ZM1012.88 568.766C1010.17 571.472 1005.78 571.458 1003.08 568.735C1000.38 566.012 1000.39 561.611 1003.11 558.906C1005.82 556.2 1010.21 556.214 1012.91 558.937C1015.61 561.66 1015.6 566.06 1012.88 568.766Z" fill="white"/>
<path d="M1071.11 783.805H906.019C903.881 783.805 902.148 785.538 902.148 787.675V874.62C902.148 876.758 903.881 878.491 906.019 878.491H1071.11C1073.24 878.491 1074.98 876.758 1074.98 874.62V787.675C1074.98 785.538 1073.24 783.805 1071.11 783.805Z" fill="#A8BDEF"/>
<path d="M953.753 842.324C958.129 842.324 961.677 838.792 961.677 834.434C961.677 830.076 958.129 826.543 953.753 826.543C949.376 826.543 945.828 830.076 945.828 834.434C945.828 838.792 949.376 842.324 953.753 842.324Z" fill="#E9EEFB"/>
<path d="M990.827 842.606C995.203 842.606 998.751 839.073 998.751 834.715C998.751 830.357 995.203 826.824 990.827 826.824C986.45 826.824 982.902 830.357 982.902 834.715C982.902 839.073 986.45 842.606 990.827 842.606Z" fill="#E9EEFB"/>
<path d="M1027.05 842.891C1031.43 842.891 1034.98 839.358 1034.98 835C1034.98 830.642 1031.43 827.109 1027.05 827.109C1022.68 827.109 1019.13 830.642 1019.13 835C1019.13 839.358 1022.68 842.891 1027.05 842.891Z" fill="#E9EEFB"/>
<path d="M988.578 1032.61C1014.21 1032.61 1034.99 1011.92 1034.99 986.395C1034.99 960.871 1014.21 940.18 988.578 940.18C962.944 940.18 942.164 960.871 942.164 986.395C942.164 1011.92 962.944 1032.61 988.578 1032.61Z" fill="#517CDE"/>
<path d="M1016.53 962.786L978.918 999.468L960.354 981.793C958.179 979.722 954.728 979.803 952.649 981.993C950.576 984.18 950.664 987.638 952.849 989.716L979.009 1014.63L1024.13 970.618C1026.29 968.513 1026.33 965.054 1024.23 962.893C1022.13 960.727 1018.68 960.684 1016.53 962.786Z" fill="white"/>
<path d="M1660.43 519.57H1412.79C1408.19 519.57 1404.45 523.305 1404.45 527.911V638.436C1404.45 643.043 1408.19 646.777 1412.79 646.777H1660.43C1665.04 646.777 1668.77 643.043 1668.77 638.436V527.911C1668.77 523.305 1665.04 519.57 1660.43 519.57Z" fill="#D2DDF7"/>
<path d="M1635.46 603.281H1570.98C1569.71 603.281 1568.69 604.302 1568.69 605.564C1568.69 606.826 1569.71 607.847 1570.98 607.847H1635.46C1636.73 607.847 1637.75 606.826 1637.75 605.564C1637.75 604.302 1636.73 603.281 1635.46 603.281Z" fill="#C3D2F4"/>
<path d="M1601.93 616.117H1572.41C1571.15 616.117 1570.12 617.138 1570.12 618.401C1570.12 619.662 1571.15 620.683 1572.41 620.683H1601.93C1603.2 620.683 1604.22 619.663 1604.22 618.401C1604.22 617.138 1603.2 616.117 1601.93 616.117Z" fill="#C3D2F4"/>
<path d="M1626.86 616.117H1611.39C1610.12 616.117 1609.1 617.138 1609.1 618.401C1609.1 619.662 1610.12 620.683 1611.39 620.683H1626.86C1628.13 620.683 1629.16 619.663 1629.16 618.401C1629.16 617.138 1628.13 616.117 1626.86 616.117Z" fill="#C3D2F4"/>
<path d="M1559.56 599.398H1539.82C1539.17 599.398 1538.64 599.923 1538.64 600.571V620.22C1538.64 620.869 1539.17 621.393 1539.82 621.393H1559.56C1560.21 621.393 1560.73 620.869 1560.73 620.22V600.571C1560.73 599.923 1560.21 599.398 1559.56 599.398ZM1558.38 619.047H1541V601.744H1558.38V619.047Z" fill="#C3D2F4"/>
<path d="M1550.6 607.269L1546.28 602.968L1541.23 607.998L1551.2 617.926L1563.67 602.366L1558.08 597.93L1550.6 607.269Z" fill="#C3D2F4"/>
<path d="M1644.25 516.277H1624.77V588.233H1644.25V516.277Z" fill="#D5DFF7"/>
<path d="M1644.25 541.387H1624.77V588.046H1644.25V541.387Z" fill="#84A3E8"/>
<path d="M1611.87 531.082H1592.4V588.238H1611.87V531.082Z" fill="#D5DFF7"/>
<path d="M1581.21 552.512H1561.73V588.234H1581.21V552.512Z" fill="#84A3E8"/>
<path d="M1551.48 540.262H1532.01V588.232H1551.48V540.262Z" fill="#D5DFF7"/>
<path d="M1611.87 552.816H1592.4V588.045H1611.87V552.816Z" fill="#84A3E8"/>
<path d="M1551.46 569.676H1531.99V588.04H1551.46V569.676Z" fill="#84A3E8"/>
<path d="M1493.8 555.457H1433.07C1429.43 555.457 1426.48 558.411 1426.48 562.054V562.525C1426.48 566.169 1429.43 569.122 1433.07 569.122H1493.8C1497.44 569.122 1500.39 566.169 1500.39 562.525V562.054C1500.39 558.411 1497.44 555.457 1493.8 555.457Z" fill="#EFF3FC"/>
<path d="M1494.04 576.816H1433.32C1429.67 576.816 1426.72 579.77 1426.72 583.414V583.884C1426.72 587.528 1429.67 590.482 1433.32 590.482H1494.04C1497.68 590.482 1500.63 587.528 1500.63 583.884V583.414C1500.63 579.77 1497.68 576.816 1494.04 576.816Z" fill="#EFF3FC"/>
<path d="M1494.78 601.895H1434.06C1430.41 601.895 1427.46 604.848 1427.46 608.492V608.963C1427.46 612.607 1430.41 615.56 1434.06 615.56H1494.78C1498.42 615.56 1501.38 612.607 1501.38 608.963V608.492C1501.38 604.848 1498.42 601.895 1494.78 601.895Z" fill="#EFF3FC"/>
<path d="M1291.94 931.156C1285.94 926.137 1276.45 923.444 1263.47 923.07C1251.29 922.774 1243.36 921.621 1239.68 919.613C1235.99 917.605 1234.15 914.26 1234.15 909.576C1234.15 904.819 1235.95 900.897 1239.54 897.81C1243.13 894.726 1247.86 893.182 1253.73 893.182C1258.78 893.182 1263.18 893.982 1266.93 895.579C1273.33 898.307 1291.49 915.231 1295.65 903.547C1299.29 893.3 1282.1 884.967 1271.71 881.641C1266.71 880.042 1261.81 879.242 1257 879.242C1245.21 879.242 1236.04 881.957 1229.52 887.384C1222.99 892.812 1219.73 900.432 1219.73 910.245C1219.73 920.282 1223.07 927.941 1229.75 933.219C1236.43 938.498 1246.14 941.137 1258.88 941.137H1264.03C1271.83 941.137 1277.34 942.252 1280.56 944.482C1283.77 946.713 1285.38 950.468 1285.38 955.746C1285.38 960.95 1283.38 965.152 1279.39 968.348C1275.39 971.545 1270.08 973.143 1263.47 973.143C1257.29 973.143 1251.63 971.936 1246.52 969.519C1240.28 966.578 1233.25 961.408 1226.39 962.224C1221.81 962.769 1218.95 966.249 1219.77 970.834C1220.09 972.637 1220.34 974.627 1221.72 975.575C1231.21 982.113 1244.19 984.906 1252.33 986.359C1256.69 987.139 1260.66 987.53 1264.22 987.53C1275.45 987.53 1284.38 984.519 1291 978.496C1297.62 972.474 1300.93 964.445 1300.93 954.408C1300.93 943.925 1297.93 936.174 1291.94 931.156Z" fill="#DBE4F8"/>
<path d="M1260.53 860.457H1260.39C1256.51 860.457 1253.37 864.066 1253.37 868.517V1005.92C1253.37 1010.37 1256.51 1013.98 1260.39 1013.98H1260.53C1264.41 1013.98 1267.55 1010.37 1267.55 1005.92V868.517C1267.56 864.066 1264.41 860.457 1260.53 860.457Z" fill="#DBE4F8"/>
<path d="M1525.28 1178L1533.87 1202.84H1748.62L1740.03 1178H1525.28Z" fill="#517CDE"/>
<path d="M1492.16 981.835C1486.45 965.328 1468.22 951.824 1451.64 951.824H1166.57C1150 951.824 1141.1 965.328 1146.81 981.835L1212.86 1172.82C1218.56 1189.33 1236.8 1202.83 1253.37 1202.83H1538.44C1555.02 1202.83 1563.91 1189.33 1558.21 1172.82L1492.16 981.835Z" fill="#517CDE"/>
<path d="M1330.33 1075.8C1340.46 1071.68 1345.12 1059.59 1340.73 1048.8C1336.34 1038.02 1324.57 1032.61 1314.44 1036.73C1304.31 1040.85 1299.65 1052.94 1304.04 1063.73C1308.43 1074.52 1320.2 1079.92 1330.33 1075.8Z" fill="white"/>
<path d="M1233.02 593.273C1241.09 593.273 1247.63 586.718 1247.63 578.632C1247.63 570.547 1241.09 563.992 1233.02 563.992C1224.96 563.992 1218.42 570.547 1218.42 578.632C1218.42 586.718 1224.96 593.273 1233.02 593.273Z" fill="#9DB5ED"/>
<path d="M1530.19 715.648C1538.25 715.648 1544.79 709.093 1544.79 701.007C1544.79 692.922 1538.25 686.367 1530.19 686.367C1522.12 686.367 1515.58 692.922 1515.58 701.007C1515.58 709.093 1522.12 715.648 1530.19 715.648Z" fill="#B1C4F0"/>
<path d="M993.771 712.319C1001.84 712.319 1008.38 705.765 1008.38 697.679C1008.38 689.594 1001.84 683.039 993.771 683.039C985.705 683.039 979.166 689.594 979.166 697.679C979.166 705.765 985.705 712.319 993.771 712.319Z" fill="#D2DDF7"/>
<path d="M720.343 782.756L691.616 780.563C691.616 780.563 685.1 806.15 654.997 809.806C624.894 813.461 610.118 778.918 610.118 778.918L576.436 779.832C576.436 779.832 586.347 870.851 588.55 881.817C590.752 892.783 584.922 1126.14 584.922 1126.14L753.749 1126.36C753.749 1126.36 759.256 827.351 759.256 824.427C759.256 821.503 720.343 782.756 720.343 782.756Z" fill="#809FE7"/>
<path d="M738.768 886.344L707.02 1100.29L719.827 1106.22H874.158L906.094 891.005L893.099 886.344L738.768 886.344Z" fill="#C3D2F4"/>
<path d="M707.02 1100.29L719.827 1106.22L751.763 891.004L738.768 886.344L707.02 1100.29Z" fill="#B3C6F1"/>
<path d="M738.768 886.344L751.762 891.005H906.094L893.098 886.344L738.768 886.344Z" fill="#E9EEFB"/>
<path d="M688.958 909.753C686.094 911.399 685.113 915.045 686.766 917.898L717.704 971.254L728.075 965.292L697.138 911.935C695.485 909.084 691.822 908.107 688.958 909.753Z" fill="#D2DDF7"/>
<path d="M701.646 958.012L684.252 992.367L639.24 996.625L650.887 1060.22C666.855 1052.27 720.34 1021.88 720.34 1021.88L730.365 954.321H713.337C705.638 952.617 701.646 958.012 701.646 958.012Z" fill="#D0DCF6"/>
<path d="M708.9 961.968L726.009 982.693L728.041 981.031L710.932 960.305L708.9 961.968Z" fill="#B8C9F2"/>
<path d="M712.764 963.673L713.364 966.223L729.691 962.409L729.09 959.859L712.764 963.673Z" fill="#B8C9F2"/>
<path d="M719.076 971.385L719.762 973.914L728.792 971.485L728.106 968.957L719.076 971.385Z" fill="#B8C9F2"/>
<path d="M903.496 986.102C895.73 980.338 870.144 974.128 857.46 981.715C844.775 989.303 867.818 990.352 867.818 990.352C867.818 990.352 859.27 996.371 864.602 1003.53C864.602 1003.53 857.068 1009.65 864.745 1015.93C864.745 1015.93 861.298 1024.14 868.766 1025.65C887.832 1029.51 890.665 1039.31 897.657 1034.88C904.65 1030.45 906.081 1010.95 906.081 1010.95C906.081 1010.95 911.262 991.866 903.496 986.102Z" fill="#D0DCF6"/>
<path d="M867.396 989.112L868.239 991.593C868.298 991.573 874.213 989.629 882.194 990.168C890.214 990.708 907.009 998.81 907.178 998.891L908.329 996.536C907.622 996.193 890.902 988.129 882.371 987.555C873.835 986.981 867.655 989.025 867.396 989.112Z" fill="#B8C9F2"/>
<path d="M864.213 1002.28L864.992 1004.78C865.1 1004.74 875.878 1001.46 883.363 1002.85C890.96 1004.27 905.308 1012.02 905.452 1012.1L906.711 1009.8C906.108 1009.48 891.853 1001.77 883.847 1000.28C875.727 998.768 864.679 1002.13 864.213 1002.28Z" fill="#B8C9F2"/>
<path d="M864.322 1014.69L865.165 1017.17C883.773 1010.9 902.662 1025.35 902.851 1025.5L904.472 1023.44C903.658 1022.8 884.292 1007.96 864.322 1014.69Z" fill="#B8C9F2"/>
<path d="M554.413 958.258L549.713 1004.53L639.24 996.625C639.24 996.625 557.64 990.493 554.413 958.258Z" fill="#6C90E3"/>
<path d="M489.596 1125.97H516.576C549.714 1119.88 652.061 1062.39 652.061 1062.39C553.515 1100.84 491.876 1110.01 491.876 1110.01L489.596 1125.97Z" fill="#6C90E3"/>
<path d="M652.061 809.806C620.856 808.709 610.118 778.918 610.118 778.918L583.375 779.886L668.213 873.044L718.507 782.756L691.617 780.563C691.617 780.563 683.265 810.903 652.061 809.806Z" fill="white"/>
<path d="M639.24 996.626L652.06 1062.39L669.681 1057.28L656.833 994.039L639.24 996.626Z" fill="white"/>
<path d="M489.595 1125.97L484.842 1151.77L787.248 1149.39L782.017 1126.09L489.595 1125.97Z" fill="white"/>
<path d="M1043.48 1055.66C1041.98 1052.89 1038.82 1052.03 1036.37 1053.73C1033.95 1055.44 1033.19 1059.07 1034.69 1061.83L1106.98 1195.69C1108.36 1198.25 1111.18 1199.18 1113.51 1197.97C1113.71 1197.87 1113.9 1197.75 1114.09 1197.62C1116.51 1195.91 1117.27 1192.29 1115.77 1189.52L1043.48 1055.66Z" fill="#809FE7"/>
<path d="M1132.7 1031.92C1129.94 1031.15 1127.14 1033.08 1126.46 1036.24L1093.61 1188.93C1092.98 1191.84 1094.38 1194.78 1096.77 1195.83C1096.97 1195.92 1097.18 1195.99 1097.39 1196.05C1100.16 1196.83 1102.96 1194.89 1103.64 1191.73L1136.49 1039.05C1137.17 1035.89 1135.48 1032.71 1132.7 1031.92Z" fill="#A8BDEF"/>
<path d="M1106.91 1029.5C1104.06 1029.48 1101.73 1032.11 1101.72 1035.36L1101.02 1192.58C1101 1195.57 1102.96 1198.06 1105.5 1198.44C1105.71 1198.47 1105.93 1198.49 1106.15 1198.49C1109 1198.51 1111.33 1195.89 1111.34 1192.63L1112.04 1035.42C1112.06 1032.17 1109.77 1029.53 1106.91 1029.5Z" fill="#9DB5ED"/>
<path d="M1062.54 1201.46H1124.38L1130.76 1106.88H1056.15L1062.54 1201.46Z" fill="#84A3E8"/>
<path d="M767.607 886.111L779.997 886.385L773.114 866.098L767.607 886.111Z" fill="#6C90E3"/>
<path d="M1633.6 1166.69L1636.12 1167.67C1636.35 1167.09 1641.95 1153.48 1657.29 1156.54L1657.82 1153.89C1640.22 1150.39 1633.66 1166.52 1633.6 1166.69Z" fill="#B8C9F2"/>
<path d="M1620.6 1141.98C1615.89 1148.17 1614.57 1154.02 1614.52 1154.26L1617.17 1154.84C1617.21 1154.62 1622.25 1132.86 1647.66 1130.64L1647.42 1127.95C1633.14 1129.2 1624.95 1136.27 1620.6 1141.98Z" fill="#B8C9F2"/>
<path d="M1603.4 1123.72C1598.51 1129.75 1597.52 1135.81 1597.48 1136.07L1600.16 1136.49C1600.17 1136.43 1601.11 1130.78 1605.59 1125.31C1611.57 1118.01 1620.73 1114.44 1632.83 1114.7L1632.89 1112C1616.64 1111.65 1607.89 1118.18 1603.4 1123.72Z" fill="#B8C9F2"/>
</g>
<defs>
<clipPath id="clip0_74_5627">
<rect width="2439.76" height="1626.51" fill="white"/>
</clipPath>
</defs>
</svg>
