<svg width="2440" height="1627" viewBox="0 0 2440 1627" fill="none" xmlns="http://www.w3.org/2000/svg">
<g clip-path="url(#clip0_74_5212)">
<path d="M1004.32 1204.99C1223.98 1204.99 1402.05 1194.71 1402.05 1182.03C1402.05 1169.34 1223.98 1159.06 1004.32 1159.06C784.668 1159.06 606.602 1169.34 606.602 1182.03C606.602 1194.71 784.668 1204.99 1004.32 1204.99Z" fill="#E6EDFA"/>
<path d="M1221.29 399.973C1221.29 399.973 1301.82 491.293 1454.78 495.223C1369.74 404.82 1221.29 399.973 1221.29 399.973Z" fill="#4A77DD" stroke="#2057D5" stroke-width="0.489256" stroke-miterlimit="10"/>
<path d="M1450.31 403.824H531.086V1018.35H1450.31V403.824Z" fill="#2057D5"/>
<path d="M1443.74 401.645H531.086V1011.78H1443.74V401.645Z" fill="#4472DC"/>
<path d="M1402.87 444.754H571.955V968.674H1402.87V444.754Z" fill="#F2F5FC"/>
<path d="M571.957 968.674H578.53V451.327H1402.87V444.754H571.957V968.674Z" fill="#658BE2"/>
<path d="M571.955 968.672H1402.87V961.684H578.57L571.955 968.672Z" fill="#ACC1EF"/>
<path d="M1088.37 1018.35H886.459V1153.77H1088.37V1018.35Z" fill="#2057D5"/>
<path d="M1088.37 1018.35H886.459V1075.34H1088.37V1018.35Z" fill="#517CDE"/>
<path d="M1237.12 1165.08C1230.27 1153.26 1217.65 1145.99 1203.99 1145.99H774.891C762.616 1145.99 751.084 1151.87 743.88 1161.81L736.562 1171.9C730.697 1179.99 736.477 1191.32 746.469 1191.32H1231.1C1240.53 1191.32 1246.42 1181.1 1241.69 1172.94L1237.12 1165.08Z" fill="#2057D5"/>
<path d="M571.955 968.674L1402.87 444.754H571.955V968.674Z" fill="white"/>
<path d="M912.704 892.301L893.874 906.12V892.301H891.336V921.006H893.874V907.187L912.704 921.006V910.727L926.709 921.006V892.301L912.704 902.58V892.301Z" fill="#4472DC"/>
<path d="M1087.53 906.12L1068.7 892.301V902.58L1054.69 892.301V921.006L1068.7 910.727V921.006L1087.53 907.187V921.006H1090.07V892.301H1087.53V906.12Z" fill="#4472DC"/>
<path d="M1030.17 911.073C1035.48 891.1 1023.59 870.607 1003.61 865.303C983.639 859.998 963.147 871.889 957.842 891.862C952.537 911.836 964.428 932.328 984.401 937.633C1004.37 942.938 1024.87 931.046 1030.17 911.073Z" fill="#658BE2"/>
<path d="M987.389 883.359H979.863V919.523H987.389V883.359Z" fill="white"/>
<path d="M1008.08 883.359H1000.56V919.523H1008.08V883.359Z" fill="white"/>
<path d="M1090.06 842.039H891.336V845.941H1090.06V842.039Z" fill="#84A3E8"/>
<path d="M1042.89 838.207C1039.7 838.207 1037.11 840.796 1037.11 843.991C1037.11 847.185 1039.7 849.774 1042.89 849.774C1046.09 849.774 1048.67 847.185 1048.67 843.991C1048.67 840.796 1046.09 838.207 1042.89 838.207Z" fill="#5A83E0"/>
<path d="M1600.66 382.719L1379.55 384.425C1378.05 384.437 1376.85 385.658 1376.86 387.153C1376.87 388.648 1378.1 389.85 1379.59 389.839L1597.99 388.154L1598.7 479.373C1598.71 480.868 1599.93 482.07 1601.42 482.059C1602.92 482.048 1604.12 480.826 1604.11 479.331L1603.39 385.405C1603.37 383.91 1602.15 382.707 1600.66 382.719Z" fill="#B3C6F1"/>
<path d="M1400.44 294.882C1392.26 291.545 1384.41 291.844 1382.89 295.55C1381.38 299.256 1386.79 304.966 1394.97 308.304C1403.15 311.641 1411.01 311.342 1412.52 307.636C1414.03 303.929 1408.63 298.219 1400.44 294.882Z" fill="#A8BDEF" stroke="#2057D5" stroke-width="0.489256" stroke-miterlimit="10"/>
<path d="M1186.97 233.086L1365.63 383.725L1599.12 393.418L1420.46 242.779L1186.97 233.086Z" fill="#5C84E0"/>
<path d="M1186.97 233.087L1420.46 242.78L1424.25 233.036L1190.76 223.344L1186.97 233.087Z" fill="#4F7ADE"/>
<path d="M1420.46 242.779L1599.12 393.418L1602.91 383.674L1424.25 233.035L1420.46 242.779Z" fill="#7093E4"/>
<path d="M1614.03 473.5L1588.68 473.696C1585.22 473.723 1582.44 476.55 1582.46 480.012C1582.49 483.475 1585.32 486.259 1588.78 486.233L1614.13 486.037C1617.59 486.011 1620.38 483.183 1620.35 479.72C1620.32 476.258 1617.49 473.473 1614.03 473.5Z" fill="#8BA8E9"/>
<path d="M1588.77 486.231L1576.11 531.229L1627.5 530.833L1614.14 486.035L1588.77 486.231Z" fill="#B3C6F1"/>
<path d="M1393.55 311.522C1331.47 286.197 1271.7 287.568 1263.35 297.49C1263.03 297.874 1262.78 298.27 1262.61 298.678L1262.62 298.681L1221.29 399.975C1221.29 399.975 1369.74 404.822 1454.78 495.225L1496.11 393.926C1496.6 392.716 1496.52 391.098 1495.91 389.136C1490.94 373.254 1450.93 334.931 1393.55 311.522Z" fill="#799AE6"/>
<mask id="mask0_74_5212" style="mask-type:luminance" maskUnits="userSpaceOnUse" x="594" y="206" width="767" height="613">
<path d="M1360.99 206.879H594.377V818.751H1360.99V206.879Z" fill="white"/>
</mask>
<g mask="url(#mask0_74_5212)">
<path d="M943.092 675.616C943.092 675.616 979.436 974.538 980.283 984.787C981.13 995.036 967.104 1124.33 967.104 1124.33L1057.53 1144.53C1057.53 1144.53 1075.07 1054.95 1079.56 980.844C1084.05 906.734 1049.09 668.219 1049.09 668.219L943.092 675.616Z" fill="#2B5FD7" stroke="#2057D5" stroke-width="0.521317" stroke-miterlimit="10"/>
<path d="M853.291 797.144C849.349 854.698 853.291 1152.72 853.291 1152.72H962.109L972.037 704.104L876.886 703.605C876.886 703.605 857.233 739.591 853.291 797.144Z" fill="#3466D9" stroke="#2057D5" stroke-width="0.489256" stroke-miterlimit="10"/>
<path d="M1246.76 693.355C1244.37 691.229 1241.13 689.509 1236.96 688.953C1239.8 690.761 1243.18 692.217 1246.76 693.355Z" fill="#D7E1F7"/>
<path d="M1265.36 682.692C1263.05 681.901 1260.44 681.156 1257.53 680.477C1260.06 681.32 1262.69 682.06 1265.36 682.692Z" fill="#D7E1F7"/>
<path d="M1292.42 668.645C1283.55 666.577 1273.58 665.645 1273.58 665.645C1273.58 665.645 1283.38 667.958 1292.42 668.645Z" fill="#D7E1F7"/>
<path d="M1263.38 638.727C1281.62 638.597 1290.08 623.711 1281.22 622.891C1272.36 622.072 1222.99 618.699 1222.99 618.699C1222.99 618.699 1186.71 665.31 1206.83 686.721C1226.95 708.132 1247.83 709.865 1251.41 704.624C1252.67 702.788 1251.24 697.351 1246.76 693.352C1243.18 692.214 1239.8 690.758 1236.96 688.95C1241.13 689.506 1244.37 691.226 1246.76 693.352C1260.92 697.854 1278.27 697.379 1278.96 694.013C1279.71 690.416 1275.36 686.122 1265.36 682.693C1262.69 682.061 1260.06 681.321 1257.53 680.478C1260.44 681.157 1263.05 681.902 1265.36 682.693C1285.57 687.484 1307.88 686.016 1305.94 675.486C1305.38 672.477 1299.22 670.227 1292.42 668.643C1283.38 667.956 1273.58 665.643 1273.58 665.643C1273.58 665.643 1283.55 666.575 1292.42 668.643C1299.14 669.153 1305.45 668.767 1307.02 665.869C1313.3 654.26 1284.56 646.029 1263.38 638.727Z" fill="#D7E1F7"/>
<path d="M1256.37 647.107C1253.53 649.397 1250.34 651.233 1246.94 652.535C1245.24 653.194 1243.5 653.72 1241.72 654.221C1239.95 654.741 1238.17 655.215 1236.39 655.71C1234.61 656.177 1232.83 656.647 1231.03 657.058C1230.14 657.267 1229.24 657.472 1228.33 657.634C1227.88 657.718 1227.42 657.794 1226.97 657.853C1226.51 657.916 1226.05 657.981 1225.59 657.966C1226.51 658.076 1227.45 657.982 1228.37 657.9C1229.29 657.811 1230.21 657.68 1231.13 657.544C1232.96 657.247 1234.77 656.879 1236.58 656.475C1238.39 656.07 1240.18 655.611 1241.97 655.142C1243.75 654.673 1245.56 654.138 1247.31 653.477C1250.8 652.12 1254.07 650.18 1256.88 647.703C1259.64 645.196 1262.02 642.186 1263.38 638.727C1261.67 642.012 1259.14 644.76 1256.37 647.107Z" fill="#C1D0F3"/>
<path d="M1278.74 665.351C1276.37 664.877 1274 664.415 1271.62 664.011C1269.24 663.601 1266.85 663.226 1264.44 662.949C1266.76 663.638 1269.11 664.229 1271.46 664.784C1273.81 665.345 1276.17 665.849 1278.54 666.34C1280.91 666.813 1283.28 667.275 1285.67 667.679C1288.05 668.089 1290.44 668.465 1292.85 668.743C1290.52 668.055 1288.17 667.465 1285.82 666.909C1283.47 666.347 1281.11 665.844 1278.74 665.351Z" fill="#C1D0F3"/>
<path d="M1253.75 678.453C1251.54 677.778 1249.32 677.114 1247.09 676.507C1244.86 675.894 1242.61 675.315 1240.34 674.832C1242.49 675.717 1244.67 676.506 1246.86 677.261C1249.04 678.021 1251.25 678.726 1253.45 679.419C1255.67 680.093 1257.88 680.756 1260.12 681.363C1262.35 681.976 1264.59 682.555 1266.86 683.04C1264.71 682.156 1262.54 681.368 1260.35 680.613C1258.16 679.851 1255.96 679.146 1253.75 678.453Z" fill="#C1D0F3"/>
<path d="M1236.99 689.039C1235.22 688.307 1233.45 687.586 1231.65 686.92C1229.86 686.248 1228.05 685.609 1226.2 685.062C1227.88 685.997 1229.61 686.839 1231.35 687.647C1233.08 688.461 1234.84 689.222 1236.6 689.97C1238.37 690.701 1240.15 691.422 1241.94 692.088C1243.74 692.76 1245.55 693.399 1247.39 693.946C1245.71 693.013 1243.98 692.172 1242.25 691.363C1240.51 690.548 1238.75 689.788 1236.99 689.039Z" fill="#C1D0F3"/>
<path d="M1105.66 556.681C1089.07 519.977 1054.12 474.402 1048.36 473.607C1021.24 469.865 1031.89 581.857 1031.89 581.857L1062.6 633.147C1071.09 647.325 1084.46 657.914 1100.21 662.923L1204.43 696.072L1227.9 618.55L1143.56 590.754C1126.71 585.202 1112.97 572.845 1105.66 556.681Z" fill="#809FE7"/>
<path d="M947.375 440.098C965.838 464.573 994.976 471.002 997.502 442.309C997.502 442.309 972.31 434.904 947.375 440.098Z" fill="#6C90E3"/>
<path d="M992.356 439.471C974.779 440.16 966.821 437.647 963.322 435.656C962.074 437.989 960.415 440.575 958.231 443.552C930.245 446.435 905.231 459.183 887.203 478.188C904.644 489.121 931.925 496.647 962.782 497.621C1001.14 498.832 1034.64 489.589 1050.85 475.158C1024.73 462.843 1011.56 451.432 993.901 446.1C992.914 444.216 992.46 441.91 992.356 439.471Z" fill="#D7E1F7"/>
<path d="M974.349 419.07L966.628 421.476C966.918 425.982 966.294 430.1 963.322 435.657C966.821 437.647 974.779 440.16 992.356 439.472C992.118 433.873 993.733 427.566 995.041 424.004C988.746 423.435 974.349 419.07 974.349 419.07Z" fill="#C1D0F3"/>
<path d="M979.403 729.366C978.462 729.869 977.47 730.269 976.44 730.509C975.93 730.658 975.401 730.699 974.877 730.773C974.349 730.787 973.819 730.831 973.289 730.773C972.22 730.735 971.185 730.433 970.139 730.137C970.383 730.253 970.631 730.366 970.882 730.474C971.133 730.58 971.378 730.71 971.645 730.775L972.439 730.994C972.703 731.077 972.981 731.086 973.253 731.136C973.798 731.25 974.353 731.209 974.908 731.221C975.458 731.159 976.014 731.117 976.55 730.97C977.627 730.708 978.661 730.275 979.587 729.679C980.511 729.085 981.365 728.374 982.041 727.52C981.631 727.876 981.216 728.22 980.765 728.516C980.329 728.83 979.871 729.108 979.403 729.366Z" fill="#2057D5"/>
<path d="M1052.59 642.337C1053.99 606.024 1051.59 482.771 1048.36 473.609C1046.66 468.814 1029.35 460.345 1013.25 453.371C1006.75 450.56 1000.46 447.997 995.469 446C993.188 449.835 989.163 455.695 984.404 458.757C978.228 454.208 955.013 443.557 948.872 440.774L947.228 440.723C947.228 440.723 938.914 444.506 927.652 449.709L927.652 449.714C904.508 460.42 868.921 477.15 867.493 479.476C865.37 482.928 877.861 597.064 877.861 597.064C877.861 597.064 879.28 648.347 879.23 649.924C879.119 653.44 869.593 668.241 874.556 670.412C877.199 671.566 932.86 677.512 974.82 678.878C1011.73 680.085 1035.42 676.904 1039.47 675.617C1048.1 672.866 1057.19 665.121 1055.41 661.043C1053.63 656.958 1052.2 652.518 1052.59 642.337Z" fill="#809FE7"/>
<path d="M913.461 571.584C913.461 571.584 918.653 516.82 867.492 479.473C867.492 479.473 810.389 600.342 804.774 618.786C799.16 637.23 924.896 703.604 924.896 703.604L958.063 657.344L882.243 609.656L913.461 571.584Z" fill="#6C90E3"/>
<path d="M923.262 703.553L939.623 711.367L974.818 666.616L958.062 657.344L923.262 703.553Z" fill="#6C90E3"/>
<path d="M975.65 488.926C975.65 488.926 960.481 574.884 954.543 607.535C957.556 619.709 977.342 652.04 977.342 652.04C977.342 652.04 984.801 653.408 1002.84 607.928C1001.75 558.824 989.829 492.281 989.602 489.366L975.65 488.926Z" fill="#3D6DDA"/>
<path d="M997.685 446.672C997.685 446.672 996.947 448.191 995.651 450.363C993.371 454.198 989.346 460.059 984.586 463.12C985.269 473.459 996.861 482.727 1000.18 481.32C1003.49 479.912 1009.54 469.441 1013.43 457.74C1013.43 457.74 1013.43 457.735 1013.43 457.734C1008.44 448.299 997.685 446.672 997.685 446.672Z" fill="#6C90E3"/>
<path d="M947.559 444.461C947.559 444.461 933.415 444.97 927.836 454.071V454.078C930.991 466.001 958.598 485.01 965.967 483.004C969.444 482.062 983.259 473.396 984.587 463.12C978.411 458.57 955.197 447.919 949.056 445.137C948.102 444.702 947.559 444.461 947.559 444.461Z" fill="#6C90E3"/>
<path d="M984.402 458.756C971.577 458.477 967.125 463.999 967.031 467.015C966.936 470.031 972.229 491.499 974.094 492.187C975.96 492.875 988.686 495.826 991.383 490.123C994.079 484.42 998.205 475.8 998.205 475.8C1001.41 465.71 997.227 459.035 984.402 458.756Z" fill="#4674DC"/>
<path d="M971.16 679.145L970.139 789.861C970.139 789.861 985.245 775.741 982.835 740.327C980.909 712.005 983.853 680.595 983.853 680.595L971.16 679.145Z" fill="#3466D9" stroke="#2057D5" stroke-width="0.489256" stroke-miterlimit="10"/>
<path d="M997.597 711.399C1001.48 709.73 1005.77 705.191 1000.24 698.554C980.284 677.641 957.961 676.805 957.961 676.805C957.961 676.805 911.301 715.597 928.39 739.524C945.478 763.451 966.721 762.378 973.805 759.63C980.888 756.881 982.836 750.89 982.836 750.89C982.836 750.89 985.293 750.292 989.855 749.824C999.569 747.233 1000.32 740.474 998.522 735.948C1001.78 735.424 1006.29 732.611 1008.98 727.925C1011.66 723.239 1001.82 714.818 997.597 711.399Z" fill="#D7E1F7"/>
<path d="M976.532 746.741C975.417 746.072 974.275 745.448 973.103 744.874C971.925 744.308 970.729 743.776 969.449 743.379C970.402 744.32 971.436 745.125 972.489 745.896C973.548 746.66 974.637 747.374 975.753 748.041C976.869 748.709 978.011 749.333 979.184 749.907C980.361 750.472 981.558 751.006 982.836 751.404C981.883 750.464 980.848 749.66 979.795 748.888C978.736 748.124 977.647 747.411 976.532 746.741Z" fill="#C1D0F3"/>
<path d="M991.104 731.613L988.537 730.17C986.814 729.229 985.06 728.345 983.283 727.504C981.505 726.664 979.701 725.871 977.826 725.211C979.4 726.426 981.046 727.508 982.718 728.543C984.39 729.577 986.086 730.568 987.813 731.502L990.42 732.871C991.302 733.304 992.172 733.759 993.067 734.167C994.846 735.006 996.649 735.799 998.523 736.461C996.948 735.248 995.302 734.167 993.63 733.131C992.802 732.6 991.947 732.118 991.104 731.613Z" fill="#C1D0F3"/>
<path d="M991.123 707.025C989.978 706.317 988.805 705.655 987.602 705.043C986.394 704.438 985.166 703.866 983.854 703.43C984.832 704.407 985.894 705.248 986.976 706.057C988.063 706.858 989.181 707.61 990.327 708.315C991.473 709.021 992.644 709.683 993.848 710.295C995.057 710.9 996.285 711.473 997.596 711.91C996.616 710.935 995.554 710.095 994.472 709.285C993.386 708.484 992.268 707.733 991.123 707.025Z" fill="#C1D0F3"/>
<path d="M874.528 613.062L905.746 574.99C905.746 574.99 918.655 516.82 867.493 479.473C867.493 479.473 785.782 583.738 778.693 619.528C771.649 655.095 887.345 719.28 901.136 726.792L900.897 727.113L917.258 734.927L967.103 670.023L950.347 660.75L874.528 613.062Z" fill="#809FE7"/>
<path d="M943.526 383.444C927.699 373.926 921.227 389.111 924.558 400.471C927.693 412.172 941.442 409.696 941.442 409.696C941.442 409.696 944.287 419.339 956.066 427.989C967.844 436.638 993.445 442.037 1013.38 425.542C1033.32 409.047 1022.57 358.819 1022.57 358.819C1004.7 311.165 928.157 344.79 943.526 383.444Z" fill="#D7E1F7"/>
<path d="M1019.56 379.313C1017.59 379.331 1016.01 381.115 1016.03 383.298C1016.05 385.479 1017.67 387.233 1019.64 387.214C1021.61 387.195 1023.19 385.412 1023.17 383.229C1023.15 381.048 1021.53 379.294 1019.56 379.313Z" fill="#4170DB" stroke="#2057D5" stroke-width="0.489256" stroke-miterlimit="10"/>
<path d="M991.759 381.813C989.788 381.831 988.208 383.602 988.229 385.767C988.25 387.932 989.864 389.672 991.834 389.653C993.804 389.634 995.385 387.864 995.364 385.699C995.344 383.534 993.729 381.794 991.759 381.813Z" fill="#4170DB" stroke="#2057D5" stroke-width="0.489256" stroke-miterlimit="10"/>
<path d="M1022.36 369.978C1019.25 369.522 1016.09 370.08 1013.35 371.636C1012.56 372.088 1013.27 373.317 1014.07 372.864C1016.45 371.514 1019.27 370.952 1021.98 371.35C1022.36 371.406 1022.74 371.255 1022.85 370.853C1022.94 370.518 1022.74 370.035 1022.36 369.978Z" fill="#2057D5"/>
<path d="M998.254 372.197C993.738 371.311 989.075 371.92 984.937 373.938C984.115 374.339 984.835 375.566 985.656 375.166C989.428 373.327 993.758 372.761 997.876 373.569C998.771 373.744 999.154 372.373 998.254 372.197Z" fill="#2057D5"/>
<path d="M1018.08 396.664C1017.94 396.822 1017.78 396.967 1017.62 397.107C1017.78 397.294 1017.93 397.484 1018.08 397.67C1018.08 397.335 1018.08 397 1018.08 396.664Z" fill="#2057D5"/>
<path d="M1010.71 386.212C1010.15 385.491 1009.15 386.505 1009.71 387.219C1012.31 390.547 1014.95 393.841 1017.62 397.107C1017.78 396.967 1017.94 396.822 1018.08 396.664C1018.08 397 1018.08 397.335 1018.08 397.67C1017.93 397.484 1017.78 397.294 1017.62 397.107C1015.82 398.712 1013.29 399.293 1011.55 401.027C1010.9 401.675 1011.91 402.681 1012.56 402.033C1014.44 400.155 1017.26 399.646 1019.09 397.671C1019.37 397.368 1019.34 396.972 1019.09 396.665C1016.25 393.215 1013.46 389.731 1010.71 386.212Z" fill="#2057D5"/>
<path d="M1001.53 406.734C1001.53 406.734 999.833 412.862 1004.03 415.055C1008.22 417.248 1012.72 408.144 1012.72 408.144C1009.19 410.05 1004.48 409.457 1001.53 406.734Z" fill="white"/>
<path d="M966.303 317.708C935.47 319.646 935.39 338.475 935.39 338.475C928.467 337.644 919.33 356.196 919.33 373.524C919.33 390.852 923.062 418.259 944.482 415.824C943.789 413.605 943.79 411.215 941.442 409.695C928.468 409.257 922.744 395.322 926.252 388.039C931.254 377.656 943.525 383.443 943.525 383.443C943.525 383.443 945.358 398.284 949.234 402.714C950.361 384.743 956.855 350.936 956.855 350.936C956.855 350.936 972.77 362.012 981.908 362.012C991.045 362.012 980.566 355.366 980.566 355.366C980.566 355.366 999.352 362.289 1007.13 361.181C1014.9 360.073 1004.61 354.258 1004.61 354.258C1004.61 354.258 1048.64 362.565 1040.89 349.275C1033.13 335.983 997.138 315.77 966.303 317.708Z" fill="#4170DB"/>
<path d="M881.73 749.212C875.828 763.992 869.171 787.295 870.977 814.375C874.399 865.698 870.747 1114.72 870.709 1117.23L873.236 1117.27C873.273 1114.76 876.926 865.631 873.498 814.208C871.727 787.633 878.257 764.746 884.046 750.224C890.331 734.462 897.127 724.874 897.195 724.779L895.14 723.309C894.856 723.705 888.129 733.189 881.73 749.212Z" fill="#3466D9"/>
<path d="M1033.3 679.336C1033.61 681.372 1064.2 883.558 1062.17 938.802C1060.13 994.108 1045.68 1108.38 1045.54 1109.53L1048.04 1109.85C1048.19 1108.7 1062.65 994.314 1064.69 938.895C1066.74 883.416 1036.11 680.995 1035.8 678.957L1033.3 679.336Z" fill="#3466D9"/>
<path d="M997.501 442.309C997.501 442.309 996.764 443.828 995.467 446C993.187 449.835 989.161 455.695 984.402 458.757C985.086 469.096 996.677 478.364 999.993 476.957C1003.31 475.549 1009.36 465.078 1013.25 453.378C1013.25 453.378 1013.25 453.371 1013.24 453.371C1008.26 443.937 997.501 442.309 997.501 442.309Z" fill="#809FE7"/>
<path d="M947.374 440.098C947.374 440.098 933.231 440.606 927.651 449.708L927.65 449.714C930.806 461.637 958.413 480.646 965.782 478.641C969.259 477.698 983.074 469.032 984.402 458.757C978.226 454.207 955.012 443.556 948.87 440.774C947.917 440.339 947.374 440.098 947.374 440.098Z" fill="#809FE7"/>
</g>
<path d="M1052.71 593.621C1052.58 588.622 1052.31 583.631 1052.07 578.638C1051.95 576.141 1051.77 573.648 1051.61 571.154C1051.44 568.66 1051.3 566.164 1051.11 563.672C1050.71 558.689 1050.32 553.705 1049.84 548.729L1049.09 541.268L1048.7 537.539L1048.26 533.816C1047.09 523.887 1045.74 513.973 1043.89 504.141L1046.3 534.008C1046.69 538.984 1047.11 543.956 1047.47 548.933L1048.05 556.395L1048.59 563.859C1048.97 568.834 1049.35 573.81 1049.68 578.789L1050.23 586.254C1050.39 588.744 1050.56 591.233 1050.74 593.722L1051.8 608.663C1052.19 613.643 1052.49 618.629 1052.95 623.611C1053.06 618.612 1053.08 613.612 1053.04 608.613C1052.96 603.615 1052.91 598.615 1052.71 593.621Z" fill="#6C90E3"/>
<path d="M1423.97 1300.66L1777.01 1403.42L2095.27 1196.96L1735.62 1136.08L1423.97 1300.66Z" fill="#E6EDFA"/>
<path d="M1397.22 1273.76L1769.7 1383.31L2076.44 1193.42L1703.96 1113.08L1397.22 1273.76Z" fill="#6A8EE3"/>
<path d="M2061.83 1076.57L1755.09 1237.24C1755.09 1237.24 1779.55 1266.98 1784.3 1288.37C1798.91 1354.1 1768.15 1383.78 1768.15 1383.78L2076.44 1193.42C2076.44 1193.42 2091.05 1171.51 2091.05 1142.3C2091.04 1098.48 2061.83 1076.57 2061.83 1076.57Z" fill="#84A3E8"/>
<path d="M2011.35 1103.15L1984.07 1117.2C1994.04 1128.55 2015.94 1151.6 2015.94 1184.89C2015.94 1211.14 2005.73 1232.21 2001.22 1240.25L2031.68 1221.4C2031.68 1221.4 2046.28 1199.49 2046.28 1170.27C2046.28 1126.45 2011.35 1103.15 2011.35 1103.15Z" fill="#6A8EE3"/>
<path d="M1755.09 1237.24L1425.2 1142.71C1425.2 1142.71 1448.34 1156.91 1448.34 1208.03C1448.34 1237.24 1426.43 1266.46 1426.43 1266.46L1770.02 1369.73C1770.02 1369.73 1791.61 1332.19 1785.14 1297.19C1778.68 1262.19 1755.09 1237.24 1755.09 1237.24Z" fill="#D5DFF7"/>
<path d="M1393.33 1138.88L1755.09 1237.24L2061.83 1076.57L1700.08 978.207L1393.33 1138.88Z" fill="#B5C8F1"/>
<path d="M1653.12 1093.13L1788.24 1129.87L1852.43 1096.08L1717.31 1059.35L1653.12 1093.13Z" fill="white" stroke="#2057D5" stroke-width="0.489256" stroke-miterlimit="10"/>
<path d="M1674.1 1091.18L1786.51 1121.74L1831.45 1098.04L1719.03 1067.48L1674.1 1091.18Z" fill="#5C84E0" stroke="#2057D5" stroke-width="0.489256" stroke-miterlimit="10"/>
<path d="M1541.05 1037.97L1818.68 1209.83L2155.79 1110.68L1878.17 965.258L1541.05 1037.97Z" fill="#5E86E1"/>
<path d="M1831.9 1077.63L1554.27 932.207C1554.27 932.207 1527.83 952.037 1527.83 991.699C1527.83 1018.14 1541.05 1037.97 1541.05 1037.97L1818.68 1209.83C1818.68 1209.83 1792.24 1183.39 1805.46 1123.9C1809.76 1104.54 1831.9 1077.63 1831.9 1077.63Z" fill="#7093E4"/>
<path d="M1599.96 956.27C1599.96 956.27 1568.34 977.359 1568.34 1017.02C1568.34 1043.46 1581.56 1063.29 1581.56 1063.29L1609.12 1080.35C1605.04 1073.08 1595.81 1054.01 1595.81 1030.25C1595.81 1000.12 1615.62 979.255 1624.65 968.988L1599.96 956.27Z" fill="white" stroke="#2057D5" stroke-width="0.489256" stroke-miterlimit="10"/>
<path d="M1752.74 1033.05C1752.74 1033.05 1716.11 1057.49 1716.11 1103.44C1716.11 1134.07 1731.43 1157.05 1731.43 1157.05L1763.36 1176.82C1758.64 1168.39 1747.93 1146.3 1747.93 1118.77C1747.93 1083.85 1770.89 1059.68 1781.35 1047.79L1752.74 1033.05Z" fill="#C5D3F4"/>
<path d="M2130.47 992.074L1831.9 1077.63C1831.9 1077.63 1810.54 1100.22 1804.69 1131.89C1798.85 1163.57 1812.07 1196.62 1812.07 1196.62L2129.35 1104.07C2129.35 1104.07 2109.52 1077.63 2109.52 1051.19C2109.52 1004.92 2130.47 992.074 2130.47 992.074Z" fill="#E6EDFA"/>
<path d="M1554.27 932.207L1831.9 1077.63L2159.31 988.607L1881.69 843.184L1554.27 932.207Z" fill="#7799E5"/>
<path d="M1758.49 996.642L1781.84 1008.94L2006.59 946.327L1983.79 934.41L1758.49 996.642Z" fill="#C5D3F4"/>
<path d="M1806.76 1021.72L1829.79 1033.71L2054.51 970.036L2033.31 957.793L1806.76 1021.72Z" fill="#C5D3F4"/>
<path d="M520.19 1342.04C652.594 1342.04 759.929 1321.48 759.929 1296.13C759.929 1270.77 652.594 1250.22 520.19 1250.22C387.786 1250.22 280.451 1270.77 280.451 1296.13C280.451 1321.48 387.786 1342.04 520.19 1342.04Z" fill="#E6EDFA"/>
<path d="M723.859 708.965H717.48C714.908 708.965 712.822 711.05 712.822 713.623V787.453C712.822 790.026 714.908 792.111 717.48 792.111H723.859C726.432 792.111 728.517 790.026 728.517 787.453V713.623C728.517 711.05 726.432 708.965 723.859 708.965Z" fill="#89A6E9"/>
<path d="M323.451 708.965H317.072C314.499 708.965 312.414 711.05 312.414 713.623V871.372C312.414 873.945 314.499 876.03 317.072 876.03H323.451C326.023 876.03 328.109 873.945 328.109 871.372V713.623C328.109 711.05 326.023 708.965 323.451 708.965Z" fill="#89A6E9"/>
<path d="M682.554 574.973H357.825C337.079 574.973 320.262 591.79 320.262 612.536V1274.93C320.262 1295.68 337.079 1312.49 357.825 1312.49H682.554C703.3 1312.49 720.117 1295.68 720.117 1274.93V612.536C720.117 591.79 703.3 574.973 682.554 574.973Z" fill="#9BB3EC"/>
<path d="M696.913 635.863H343.467C339.515 635.863 336.316 639.062 336.316 643.008V1247.22C336.316 1251.16 339.515 1254.36 343.467 1254.36H696.913C700.86 1254.36 704.058 1251.16 704.058 1247.22V643.008C704.058 639.062 700.86 635.863 696.913 635.863Z" fill="#E0E7F9"/>
<path d="M557.345 1269.45H483.032C478.59 1269.45 474.988 1273.05 474.988 1277.49V1288.09C474.988 1292.53 478.59 1296.14 483.032 1296.14H557.345C561.788 1296.14 565.389 1292.53 565.389 1288.09V1277.49C565.389 1273.05 561.788 1269.45 557.345 1269.45Z" fill="#799AE6"/>
<path d="M542.814 596.52H467.693C465.12 596.52 463.035 598.605 463.035 601.177V607.316C463.035 609.889 465.121 611.974 467.693 611.974H542.814C545.387 611.974 547.472 609.889 547.472 607.316V601.177C547.472 598.605 545.387 596.52 542.814 596.52Z" fill="#799AE6"/>
<path d="M572.687 596.52H566.308C563.736 596.52 561.65 598.605 561.65 601.177V607.316C561.65 609.889 563.736 611.974 566.308 611.974H572.687C575.259 611.974 577.345 609.889 577.345 607.316V601.177C577.345 598.605 575.259 596.52 572.687 596.52Z" fill="#799AE6"/>
<path d="M696.913 635.859H343.467C339.515 635.859 336.316 639.058 336.316 643.005V696.634H704.058V643.005C704.058 639.058 700.86 635.859 696.913 635.859Z" fill="#6389E2"/>
<path d="M440.531 647.578H392.191C389.72 647.578 387.717 649.582 387.717 652.052V680.439C387.717 682.91 389.72 684.914 392.191 684.914H440.531C443.002 684.914 445.005 682.91 445.005 680.439V652.052C445.005 649.581 443.002 647.578 440.531 647.578Z" fill="#5A83E0"/>
<path d="M684.588 656.59H478.121C476.216 656.59 474.672 658.135 474.672 660.04V672.453C474.672 674.358 476.217 675.903 478.121 675.903H684.587C686.492 675.903 688.037 674.358 688.037 672.453V660.04C688.037 658.135 686.492 656.59 684.588 656.59Z" fill="white"/>
<path d="M424.13 665.594L409.389 656.571C408.879 656.259 408.225 656.625 408.225 657.223V675.269C408.225 675.866 408.879 676.233 409.389 675.921L424.13 666.898C424.617 666.6 424.617 665.892 424.13 665.594Z" fill="white"/>
<path d="M377.176 656.512H344.795V660.829H377.176V656.512Z" fill="white"/>
<path d="M377.176 664.086H344.795V668.403H377.176V664.086Z" fill="white"/>
<path d="M377.176 671.66H344.795V675.978H377.176V671.66Z" fill="white"/>
<path d="M449.471 720.969H364.681C360.348 720.969 356.834 724.482 356.834 728.816V778.607C356.834 782.941 360.348 786.455 364.681 786.455H449.471C453.805 786.455 457.318 782.941 457.318 778.607V728.816C457.318 724.482 453.805 720.969 449.471 720.969Z" fill="#4674DC"/>
<path d="M420.703 752.569L394.849 736.743C393.955 736.195 392.807 736.838 392.807 737.887V769.54C392.807 770.587 393.955 771.231 394.849 770.684L420.703 754.857C421.558 754.334 421.558 753.092 420.703 752.569Z" fill="white"/>
<path d="M449.471 810.223H364.681C360.348 810.223 356.834 813.736 356.834 818.07V867.861C356.834 872.195 360.348 875.709 364.681 875.709H449.471C453.805 875.709 457.318 872.195 457.318 867.861V818.07C457.318 813.736 453.805 810.223 449.471 810.223Z" fill="#7799E5"/>
<path d="M420.703 841.819L394.849 825.992C393.955 825.445 392.807 826.089 392.807 827.137V858.79C392.807 859.837 393.955 860.481 394.849 859.934L420.703 844.108C421.558 843.584 421.558 842.342 420.703 841.819Z" fill="white"/>
<path d="M573.473 750.75H466.846V754.676H573.473V750.75Z" fill="#B5C8F1"/>
<path d="M635.901 720.973H466.846V724.899H635.901V720.973Z" fill="#B5C8F1"/>
<path d="M623.825 730.898H466.846V734.824H623.825V730.898Z" fill="#B5C8F1"/>
<path d="M635.901 740.824H466.846V744.75H635.901V740.824Z" fill="#B5C8F1"/>
<path d="M635.901 760.676H466.846V764.602H635.901V760.676Z" fill="#B5C8F1"/>
<path d="M616.991 770.602H467.131V774.527H616.991V770.602Z" fill="#B5C8F1"/>
<path d="M603.833 780.527H466.846V784.453H603.833V780.527Z" fill="#B5C8F1"/>
<path d="M573.473 840.195H466.846V844.121H573.473V840.195Z" fill="#B5C8F1"/>
<path d="M635.901 810.418H466.846V814.344H635.901V810.418Z" fill="#B5C8F1"/>
<path d="M623.825 820.344H466.846V824.269H623.825V820.344Z" fill="#B5C8F1"/>
<path d="M635.901 830.27H466.846V834.195H635.901V830.27Z" fill="#B5C8F1"/>
<path d="M635.901 850.121H466.846V854.047H635.901V850.121Z" fill="#B5C8F1"/>
<path d="M616.991 860.047H467.131V863.972H616.991V860.047Z" fill="#B5C8F1"/>
<path d="M603.833 869.969H466.846V873.894H603.833V869.969Z" fill="#B5C8F1"/>
<path d="M449.471 899.457H364.681C360.348 899.457 356.834 902.971 356.834 907.304V957.095C356.834 961.429 360.348 964.943 364.681 964.943H449.471C453.805 964.943 457.318 961.429 457.318 957.095V907.304C457.318 902.971 453.805 899.457 449.471 899.457Z" fill="#5E86E1"/>
<path d="M420.703 931.057L394.849 915.231C393.955 914.683 392.807 915.327 392.807 916.375V948.028C392.807 949.076 393.955 949.719 394.849 949.172L420.703 933.346C421.558 932.823 421.558 931.58 420.703 931.057Z" fill="white"/>
<path d="M449.471 988.711H364.681C360.348 988.711 356.834 992.224 356.834 996.558V1046.35C356.834 1050.68 360.348 1054.2 364.681 1054.2H449.471C453.805 1054.2 457.318 1050.68 457.318 1046.35V996.558C457.318 992.225 453.805 988.711 449.471 988.711Z" fill="#90ABEA"/>
<path d="M420.703 1020.31L394.849 1004.48C393.955 1003.93 392.807 1004.58 392.807 1005.63V1037.28C392.807 1038.33 393.955 1038.97 394.849 1038.42L420.703 1022.6C421.558 1022.07 421.558 1020.83 420.703 1020.31Z" fill="white"/>
<path d="M573.473 929.641H466.846V933.566H573.473V929.641Z" fill="#B5C8F1"/>
<path d="M635.901 899.863H466.846V903.789H635.901V899.863Z" fill="#B5C8F1"/>
<path d="M623.825 909.789H466.846V913.715H623.825V909.789Z" fill="#B5C8F1"/>
<path d="M635.901 919.715H466.846V923.64H635.901V919.715Z" fill="#B5C8F1"/>
<path d="M635.901 939.562H466.846V943.488H635.901V939.562Z" fill="#B5C8F1"/>
<path d="M616.991 949.488H467.131V953.414H616.991V949.488Z" fill="#B5C8F1"/>
<path d="M603.833 959.414H466.846V963.34H603.833V959.414Z" fill="#B5C8F1"/>
<path d="M573.473 1019.09H466.846V1023.01H573.473V1019.09Z" fill="#B5C8F1"/>
<path d="M635.901 989.309H466.846V993.234H635.901V989.309Z" fill="#B5C8F1"/>
<path d="M623.825 999.234H466.846V1003.16H623.825V999.234Z" fill="#B5C8F1"/>
<path d="M635.901 1009.16H466.846V1013.09H635.901V1009.16Z" fill="#B5C8F1"/>
<path d="M635.901 1029.01H466.846V1032.94H635.901V1029.01Z" fill="#B5C8F1"/>
<path d="M616.991 1038.94H467.131V1042.86H616.991V1038.94Z" fill="#B5C8F1"/>
<path d="M603.833 1048.86H466.846V1052.79H603.833V1048.86Z" fill="#B5C8F1"/>
<path d="M449.471 1077.95H364.681C360.348 1077.95 356.834 1081.47 356.834 1085.8V1135.59C356.834 1139.93 360.348 1143.44 364.681 1143.44H449.471C453.805 1143.44 457.318 1139.93 457.318 1135.59V1085.8C457.318 1081.47 453.805 1077.95 449.471 1077.95Z" fill="#4674DC"/>
<path d="M420.703 1109.55L394.849 1093.73C393.955 1093.18 392.807 1093.82 392.807 1094.87V1126.52C392.807 1127.57 393.955 1128.22 394.849 1127.67L420.703 1111.84C421.558 1111.32 421.558 1110.08 420.703 1109.55Z" fill="white"/>
<path d="M449.471 1167.2H364.681C360.348 1167.2 356.834 1170.71 356.834 1175.05V1224.84C356.834 1229.17 360.348 1232.68 364.681 1232.68H449.471C453.805 1232.68 457.318 1229.17 457.318 1224.84V1175.05C457.318 1170.71 453.805 1167.2 449.471 1167.2Z" fill="#7799E5"/>
<path d="M420.703 1198.8L394.849 1182.97C393.955 1182.42 392.807 1183.07 392.807 1184.11V1215.77C392.807 1216.81 393.955 1217.46 394.849 1216.91L420.703 1201.08C421.558 1200.56 421.558 1199.32 420.703 1198.8Z" fill="white"/>
<path d="M573.473 1108.53H466.846V1112.46H573.473V1108.53Z" fill="#B5C8F1"/>
<path d="M635.901 1078.75H466.846V1082.68H635.901V1078.75Z" fill="#B5C8F1"/>
<path d="M623.825 1088.68H466.846V1092.61H623.825V1088.68Z" fill="#B5C8F1"/>
<path d="M635.901 1098.61H466.846V1102.53H635.901V1098.61Z" fill="#B5C8F1"/>
<path d="M635.901 1118.46H466.846V1122.38H635.901V1118.46Z" fill="#B5C8F1"/>
<path d="M616.991 1128.38H467.131V1132.31H616.991V1128.38Z" fill="#B5C8F1"/>
<path d="M603.833 1138.3H466.846V1142.23H603.833V1138.3Z" fill="#B5C8F1"/>
<path d="M573.473 1197.98H466.846V1201.9H573.473V1197.98Z" fill="#B5C8F1"/>
<path d="M635.901 1168.2H466.846V1172.12H635.901V1168.2Z" fill="#B5C8F1"/>
<path d="M623.825 1178.12H466.846V1182.05H623.825V1178.12Z" fill="#B5C8F1"/>
<path d="M635.901 1188.05H466.846V1191.98H635.901V1188.05Z" fill="#B5C8F1"/>
<path d="M635.901 1207.9H466.846V1211.82H635.901V1207.9Z" fill="#B5C8F1"/>
<path d="M616.991 1217.82H467.131V1221.75H616.991V1217.82Z" fill="#B5C8F1"/>
<path d="M603.833 1227.75H466.846V1231.68H603.833V1227.75Z" fill="#B5C8F1"/>
<path d="M686.694 720.973H666.764V1231.6H686.694V720.973Z" fill="white"/>
<path d="M686.694 739.613H666.764V824.155H686.694V739.613Z" fill="#90ABEA"/>
<path d="M686.691 720.969H666.764V740.896H686.691V720.969Z" fill="#4674DC"/>
<path d="M677.073 726.819C676.915 726.56 676.54 726.56 676.382 726.819L671.607 734.62C671.442 734.889 671.636 735.236 671.953 735.236H681.503C681.82 735.236 682.014 734.889 681.849 734.62L677.073 726.819Z" fill="white"/>
<path d="M686.691 1211.75H666.764V1231.67H686.691V1211.75Z" fill="#4674DC"/>
<path d="M681.501 1217.4H671.951C671.634 1217.4 671.44 1217.75 671.605 1218.02L676.38 1225.82C676.538 1226.08 676.913 1226.08 677.071 1225.82L681.846 1218.02C682.011 1217.75 681.818 1217.4 681.501 1217.4Z" fill="white"/>
<path opacity="0.28" d="M963.569 774.117H614.891C593.922 774.117 576.924 791.115 576.924 812.084V1056.65C576.924 1077.62 593.922 1094.62 614.891 1094.62H963.569C984.538 1094.62 1001.54 1077.62 1001.54 1056.65V812.084C1001.54 791.115 984.538 774.117 963.569 774.117Z" fill="#2057D5"/>
<path d="M955.526 768.754H606.847C585.882 768.754 568.883 785.753 568.883 806.723V823.537H993.494V806.723C993.494 785.754 976.495 768.754 955.526 768.754Z" fill="#B3C6F1"/>
<path d="M568.883 1051.29C568.883 1072.26 585.882 1089.26 606.847 1089.26H955.526C976.495 1089.26 993.494 1072.26 993.494 1051.29V823.535H568.883V1051.29Z" fill="white"/>
<path d="M868.659 881.188H701.76C693.228 881.188 686.312 888.103 686.312 896.635V994.644C686.312 1003.18 693.228 1010.09 701.76 1010.09H868.659C877.19 1010.09 884.106 1003.18 884.106 994.644V896.635C884.106 888.103 877.19 881.188 868.659 881.188Z" fill="#5A83E0"/>
<path d="M812.034 943.385L761.14 912.232C759.381 911.155 757.121 912.422 757.121 914.485V976.79C757.121 978.854 759.381 980.12 761.14 979.043L812.034 947.891C813.716 946.859 813.716 944.415 812.034 943.385Z" fill="white"/>
<path d="M969.829 837.129H671.667C664.845 837.129 659.314 842.659 659.314 849.481C659.314 856.303 664.845 861.833 671.667 861.833H969.829C976.651 861.833 982.181 856.303 982.181 849.481C982.181 842.659 976.65 837.129 969.829 837.129Z" fill="#D7E1F7"/>
<path d="M671.961 842.406C669.472 841.269 666.494 842.31 665.324 844.728C664.153 847.144 665.225 850.035 667.715 851.172C668.831 851.682 670.046 851.754 671.152 851.459C671.39 851.396 671.623 851.316 671.849 851.219C672.913 850.765 673.82 849.951 674.353 848.851C675.522 846.434 674.449 843.542 671.961 842.406ZM673.519 848.47C672.563 850.444 670.139 851.293 668.106 850.364C666.072 849.435 665.199 847.081 666.156 845.107C667.112 843.133 669.536 842.285 671.569 843.214C673.603 844.143 674.476 846.496 673.519 848.47Z" fill="#7395E5"/>
<path d="M671.569 843.213C669.536 842.284 667.112 843.131 666.156 845.106C665.199 847.08 666.072 849.434 668.105 850.363C670.138 851.292 672.563 850.444 673.519 848.469C674.475 846.495 673.603 844.142 671.569 843.213Z" fill="#D7E1F7"/>
<path d="M671.847 851.219C671.622 851.315 671.389 851.396 671.15 851.458L674.572 858.484C674.61 858.562 674.674 858.62 674.748 858.654C674.844 858.698 674.959 858.702 675.062 858.654C675.246 858.57 675.324 858.357 675.238 858.178L671.847 851.219Z" fill="#7395E5"/>
<path d="M670.296 843.388C669.593 843.292 669.014 843.358 668.989 843.36C668.915 843.369 668.86 843.427 668.854 843.496C668.853 843.506 668.853 843.517 668.855 843.527C668.865 843.609 668.942 843.668 669.026 843.658C669.049 843.655 671.246 843.415 672.108 844.626C672.157 844.694 672.253 844.711 672.323 844.664C672.393 844.617 672.411 844.523 672.362 844.455C671.959 843.888 671.243 843.519 670.296 843.388Z" fill="#7395E5"/>
<path d="M621.773 837.129C615.004 837.129 609.518 842.616 609.518 849.383V849.578C609.518 856.346 615.004 861.833 621.772 861.833C628.54 861.833 634.027 856.346 634.027 849.578V849.383C634.028 842.615 628.541 837.129 621.773 837.129Z" fill="#D7E1F7"/>
<path d="M615.85 844.453L625.911 849.459V849.51L615.85 854.514V856.276L627.697 850.199V848.769L615.85 842.691V844.453Z" fill="#7395E5"/>
<path d="M592.542 837.129C585.774 837.129 580.287 842.616 580.287 849.383V849.578C580.287 856.346 585.774 861.833 592.542 861.833C599.311 861.833 604.797 856.346 604.797 849.578V849.383C604.797 842.615 599.311 837.129 592.542 837.129Z" fill="#D7E1F7"/>
<path d="M586.619 850.199L598.467 856.276V854.514L588.406 849.51V849.459L598.467 844.453V842.691L586.619 848.769V850.199Z" fill="#7395E5"/>
<path d="M746.139 1054.18L736.707 1061.1V1054.18H735.436V1068.56H736.707V1061.64L746.139 1068.56V1063.41L753.156 1068.56V1054.18L746.139 1059.33V1054.18Z" fill="#84A3E8"/>
<path d="M833.714 1061.1L824.282 1054.18V1059.33L817.266 1054.18V1068.56L824.282 1063.41V1068.56L833.714 1061.64V1068.56H834.985V1054.18H833.714V1061.1Z" fill="#84A3E8"/>
<path d="M786.851 1040.02C776.499 1040.02 768.107 1048.41 768.107 1058.76C768.107 1069.11 776.5 1077.5 786.851 1077.5C797.203 1077.5 805.596 1069.11 805.596 1058.76C805.595 1048.41 797.203 1040.02 786.851 1040.02Z" fill="#84A3E8"/>
<path d="M783.553 1049.7H779.783V1067.82H783.553V1049.7Z" fill="white"/>
<path d="M793.92 1049.7H790.15V1067.82H793.92V1049.7Z" fill="white"/>
<path d="M915.36 1025.88H658.342V1029.41H915.36V1025.88Z" fill="#B5C8F1"/>
<path d="M835.806 1022.42C832.918 1022.42 830.576 1024.76 830.576 1027.65C830.576 1030.54 832.918 1032.88 835.806 1032.88C838.694 1032.88 841.035 1030.54 841.035 1027.65C841.036 1024.76 838.694 1022.42 835.806 1022.42Z" fill="#5A83E0"/>
<path opacity="0.28" d="M2022.54 513.789H1723.89C1705.93 513.789 1691.37 528.349 1691.37 546.308V755.788C1691.37 773.748 1705.93 788.308 1723.89 788.308H2022.54C2040.5 788.308 2055.06 773.749 2055.06 755.788V546.308C2055.06 528.348 2040.5 513.789 2022.54 513.789Z" fill="#2057D5"/>
<path d="M2015.65 509.195H1717C1699.04 509.195 1684.48 523.756 1684.48 541.717V556.119H2048.17V541.717C2048.17 523.756 2033.61 509.195 2015.65 509.195Z" fill="#B3C6F1"/>
<path d="M1684.48 751.197C1684.48 769.158 1699.04 783.714 1717 783.714H2015.65C2033.61 783.714 2048.17 769.158 2048.17 751.197V556.117H1684.48L1684.48 751.197Z" fill="#F0F3F7"/>
<path d="M1800.65 603.445H1722.48C1718.48 603.445 1715.24 606.685 1715.24 610.68V656.584C1715.24 660.58 1718.48 663.819 1722.48 663.819H1800.65C1804.65 663.819 1807.88 660.58 1807.88 656.584V610.68C1807.88 606.684 1804.65 603.445 1800.65 603.445Z" fill="#5A83E0"/>
<path d="M1774.13 632.576L1750.29 617.985C1749.47 617.48 1748.41 618.073 1748.41 619.039V648.222C1748.41 649.188 1749.47 649.781 1750.29 649.276L1774.13 634.685C1774.92 634.203 1774.92 633.058 1774.13 632.576Z" fill="white"/>
<path d="M1800.65 684.707H1722.48C1718.48 684.707 1715.24 687.946 1715.24 691.942V737.846C1715.24 741.842 1718.48 745.081 1722.48 745.081H1800.65C1804.65 745.081 1807.88 741.842 1807.88 737.846V691.942C1807.88 687.946 1804.65 684.707 1800.65 684.707Z" fill="#5A83E0"/>
<path d="M1774.13 713.838L1750.29 699.246C1749.47 698.742 1748.41 699.335 1748.41 700.302V729.483C1748.41 730.45 1749.47 731.043 1750.29 730.539L1774.13 715.947C1774.92 715.465 1774.92 714.32 1774.13 713.838Z" fill="white"/>
<path d="M2027.9 567.766H1772.52C1766.68 567.766 1761.94 572.502 1761.94 578.345C1761.94 584.188 1766.68 588.925 1772.52 588.925H2027.9C2033.75 588.925 2038.48 584.188 2038.48 578.345C2038.48 572.503 2033.75 567.766 2027.9 567.766Z" fill="#D7E1F7"/>
<path d="M1772.77 572.285C1770.64 571.311 1768.09 572.204 1767.09 574.274C1766.08 576.343 1767 578.82 1769.13 579.794C1770.09 580.231 1771.13 580.292 1772.08 580.039C1772.28 579.985 1772.48 579.916 1772.67 579.834C1773.59 579.445 1774.36 578.747 1774.82 577.806C1775.82 575.736 1774.9 573.259 1772.77 572.285ZM1774.11 577.48C1773.29 579.171 1771.21 579.897 1769.47 579.101C1767.73 578.306 1766.98 576.29 1767.8 574.599C1768.62 572.908 1770.69 572.182 1772.44 572.978C1774.18 573.773 1774.93 575.789 1774.11 577.48Z" fill="#7799E5"/>
<path d="M1772.44 572.979C1770.69 572.183 1768.62 572.91 1767.8 574.6C1766.98 576.291 1767.73 578.307 1769.47 579.102C1771.21 579.898 1773.29 579.172 1774.11 577.481C1774.93 575.79 1774.18 573.774 1772.44 572.979Z" fill="#D7E1F7"/>
<path d="M1772.68 579.836C1772.48 579.919 1772.28 579.988 1772.08 580.041L1775.01 586.059C1775.04 586.126 1775.1 586.176 1775.16 586.205C1775.24 586.242 1775.34 586.246 1775.43 586.205C1775.59 586.132 1775.65 585.95 1775.58 585.797L1772.68 579.836Z" fill="#7799E5"/>
<path d="M1771.34 573.127C1770.74 573.044 1770.25 573.101 1770.23 573.103C1770.16 573.11 1770.12 573.16 1770.11 573.22C1770.11 573.229 1770.11 573.238 1770.11 573.246C1770.12 573.317 1770.18 573.367 1770.26 573.359C1770.28 573.357 1772.16 573.151 1772.9 574.188C1772.94 574.246 1773.02 574.261 1773.08 574.221C1773.14 574.181 1773.16 574.1 1773.11 574.042C1772.77 573.555 1772.16 573.239 1771.34 573.127Z" fill="#7799E5"/>
<path d="M1729.79 567.766C1723.99 567.766 1719.29 572.465 1719.29 578.262V578.429C1719.29 584.226 1723.99 588.926 1729.79 588.926C1735.58 588.926 1740.28 584.226 1740.28 578.429V578.262C1740.28 572.465 1735.58 567.766 1729.79 567.766Z" fill="#D7E1F7"/>
<path d="M1724.71 574.033L1733.33 578.319V578.363L1724.71 582.65V584.159L1734.86 578.953V577.729L1724.71 572.523V574.033Z" fill="#7799E5"/>
<path d="M1704.75 567.766C1698.95 567.766 1694.25 572.465 1694.25 578.262V578.429C1694.25 584.226 1698.95 588.926 1704.75 588.926H1704.75C1710.55 588.926 1715.25 584.226 1715.25 578.429V578.262C1715.25 572.465 1710.55 567.766 1704.75 567.766Z" fill="#D7E1F7"/>
<path d="M1699.67 578.953L1709.82 584.159V582.65L1701.2 578.363V578.319L1709.82 574.033V572.523L1699.67 577.729V578.953Z" fill="#7799E5"/>
<path d="M1945.14 630.895H1816.67V634.514H1945.14V630.895Z" fill="#E0E7F9"/>
<path d="M2020.36 603.445H1816.67V607.064H2020.36V603.445Z" fill="#E0E7F9"/>
<path d="M2005.81 612.594H1816.67V616.213H2005.81V612.594Z" fill="#E0E7F9"/>
<path d="M2020.36 621.746H1816.67V625.365H2020.36V621.746Z" fill="#E0E7F9"/>
<path d="M2020.36 640.047H1816.67V643.666H2020.36V640.047Z" fill="#E0E7F9"/>
<path d="M1997.58 649.195H1817.01V652.815H1997.58V649.195Z" fill="#E0E7F9"/>
<path d="M1981.72 658.348H1816.67V661.967H1981.72V658.348Z" fill="#E0E7F9"/>
<path d="M1945.14 713.078H1816.67V716.697H1945.14V713.078Z" fill="#E0E7F9"/>
<path d="M2020.36 685.629H1816.67V689.248H2020.36V685.629Z" fill="#E0E7F9"/>
<path d="M2005.81 694.781H1816.67V698.4H2005.81V694.781Z" fill="#E0E7F9"/>
<path d="M2020.36 703.93H1816.67V707.549H2020.36V703.93Z" fill="#E0E7F9"/>
<path d="M2020.36 722.23H1816.67V725.85H2020.36V722.23Z" fill="#E0E7F9"/>
<path d="M1997.58 731.383H1817.01V735.002H1997.58V731.383Z" fill="#E0E7F9"/>
<path d="M1981.72 740.531H1816.67V744.151H1981.72V740.531Z" fill="#E0E7F9"/>
<path d="M1249.22 1419.63C1377.44 1419.63 1481.38 1393.5 1481.38 1361.26C1481.38 1329.02 1377.44 1302.89 1249.22 1302.89C1121 1302.89 1017.06 1329.02 1017.06 1361.26C1017.06 1393.5 1121 1419.63 1249.22 1419.63Z" fill="#E6EDFA"/>
<path d="M1156.08 1183.58C1156.08 1183.58 1284.94 1287.41 1439.92 1299.52C1396.33 1237.52 1254.37 1154.81 1156.08 1183.58Z" fill="#3063D8"/>
<path d="M1541.98 713.699C1541.98 713.699 1559.89 772.024 1551.85 787.635C1551.85 787.635 1576.02 805.791 1605.56 785.204C1635.11 764.616 1611.13 704.555 1611.13 704.555L1541.98 713.699Z" fill="#3F6FDB"/>
<path d="M1581.54 831.133C1572.69 825.683 1561.35 823.367 1552.06 824.91C1540.35 826.857 1531.44 834.722 1523.28 842.784C1519.44 846.577 1515.6 850.369 1511.76 854.161C1493.05 872.648 1474.34 891.136 1455.63 909.623C1451.35 913.853 1447.06 918.082 1442.78 922.312L1370.59 843.829L1316.11 886.446L1403.99 982.624C1422.29 1002.66 1453.53 1003.6 1473.01 984.717L1487.37 970.792C1499.04 959.479 1510.71 948.166 1522.38 936.853C1523.98 934.14 1527.79 931.616 1530.06 929.412C1532.96 926.601 1535.86 923.79 1538.76 920.979C1544.56 915.357 1550.36 909.735 1556.16 904.113C1564.23 896.285 1572.38 888.539 1580.51 880.768C1587.35 874.225 1595 866.226 1595.96 856.145C1596.95 845.75 1590.03 836.365 1581.54 831.133Z" fill="#D7E1F7"/>
<path d="M1259.6 808.853L1371.4 953.02L1455.84 865.272L1344.05 721.105L1259.6 808.853Z" fill="#4A77DD"/>
<path d="M1289.19 791.511C1280.36 798.185 1271.64 803.911 1263.23 808.835C1304.2 854.4 1345.16 899.965 1386.13 945.531L1470.58 857.783L1358.78 713.617C1344.61 737.146 1322.63 766.236 1289.19 791.511Z" fill="#BCCDF2"/>
<path d="M1278.55 805.531C1273.15 806.949 1267.82 808.035 1262.58 808.834C1303.04 858.252 1343.51 907.672 1383.97 957.09L1478.77 880.658L1386 723.578C1367.15 751.153 1332.39 791.403 1278.55 805.531Z" fill="#CEDAF6"/>
<path d="M1285.5 808.395C1280.09 809.813 1274.77 810.899 1269.53 811.698C1309.99 861.116 1350.45 910.536 1390.92 959.954L1485.72 883.522L1392.95 726.441C1374.1 754.017 1339.34 794.267 1285.5 808.395Z" fill="#E4EBFA"/>
<path d="M1264.14 815.398C1302.44 864.546 1340.75 913.694 1379.05 962.844C1424.59 962.323 1470.13 961.804 1515.67 961.284C1471.58 912.822 1427.49 864.36 1383.4 815.898C1343.64 815.73 1303.89 815.564 1264.14 815.398Z" fill="#5A83E0"/>
<path d="M1174.17 1194.36L1133.52 1232.81L1198.39 1293.9L1271.4 1224.91L1287.36 1209.83L1206.68 1163.59L1174.17 1194.36Z" fill="#D7E1F7"/>
<path d="M1174.17 1194.36L1271.4 1224.91L1287.36 1209.83L1206.68 1163.59L1174.17 1194.36Z" fill="#C1D0F3"/>
<path d="M1102.11 1207.08L1050.62 1203.88C1047.56 1203.67 1045.94 1207.42 1048.16 1209.52L1173.92 1328.69L1221.18 1278.82L1148.52 1209.97L1102.11 1207.08Z" fill="#B3C6F1"/>
<path d="M1188.94 1268.15C1179.63 1259.33 1164.93 1259.72 1156.11 1269.03C1147.29 1278.34 1147.69 1293.03 1156.99 1301.85C1166.3 1310.67 1181 1310.28 1189.82 1300.97C1198.64 1291.66 1198.24 1276.97 1188.94 1268.15Z" fill="white"/>
<path d="M1050.62 1203.88C1047.56 1203.67 1045.94 1207.42 1048.16 1209.52L1094.91 1253.82C1106.64 1234.13 1104.52 1216.25 1102.1 1207.08L1050.62 1203.88Z" fill="#D2DDF7"/>
<path d="M1047.16 1207.55L1038.03 1217.18L1165.29 1337.77L1174.43 1328.13L1047.16 1207.55Z" fill="#8BA8E9"/>
<path d="M1116.25 1207.15C1115.78 1207.46 1115.65 1208.09 1115.96 1208.55C1116.03 1208.65 1122.48 1218.64 1117.3 1231.54C1117.09 1232.06 1117.34 1232.64 1117.86 1232.85C1117.98 1232.9 1118.11 1232.93 1118.23 1232.93C1118.63 1232.93 1119.01 1232.69 1119.17 1232.29C1124.74 1218.42 1117.94 1207.88 1117.65 1207.44C1117.34 1206.97 1116.71 1206.84 1116.25 1207.15Z" fill="white"/>
<path d="M1130.8 1208.77C1130.34 1209.08 1130.21 1209.7 1130.52 1210.17C1130.58 1210.27 1137.03 1220.25 1131.85 1233.16C1131.64 1233.67 1131.89 1234.26 1132.41 1234.47C1132.54 1234.52 1132.66 1234.54 1132.79 1234.54C1133.19 1234.54 1133.57 1234.3 1133.73 1233.91C1139.3 1220.03 1132.5 1209.5 1132.2 1209.05C1131.89 1208.59 1131.27 1208.46 1130.8 1208.77Z" fill="white"/>
<path d="M1335.18 1250.58L1326.45 1328.97L1412.04 1333.54L1414.96 1290.55L1418.15 1243.78L1337.17 1232.67L1335.18 1250.58Z" fill="#D7E1F7"/>
<path d="M1335.18 1250.58L1414.96 1290.55L1418.15 1243.78L1337.17 1232.67L1335.18 1250.58Z" fill="#C1D0F3"/>
<path d="M1287.38 1329.59L1247.58 1359.23C1245.21 1360.98 1246.35 1364.74 1249.29 1364.91L1415.69 1374.29L1419.41 1308.3L1323.28 1302.88L1287.38 1329.59Z" fill="#B3C6F1"/>
<path d="M1389.1 1320.49C1376.78 1319.8 1366.23 1329.22 1365.54 1341.54C1364.84 1353.85 1374.26 1364.4 1386.58 1365.09C1398.9 1365.79 1409.44 1356.37 1410.14 1344.05C1410.83 1331.73 1401.41 1321.19 1389.1 1320.49Z" fill="white"/>
<path d="M1287.39 1329.59L1247.58 1359.23C1245.21 1360.98 1246.35 1364.74 1249.29 1364.9L1311.15 1368.39C1307.52 1346.64 1294.85 1334.83 1287.39 1329.59Z" fill="#D2DDF7"/>
<path d="M1247.33 1364.11L1246.61 1376.87L1414.99 1386.36L1415.71 1373.61L1247.33 1364.11Z" fill="#8BA8E9"/>
<path d="M1299.04 1320.16C1298.5 1320.01 1297.94 1320.31 1297.78 1320.85C1297.63 1321.38 1297.93 1321.94 1298.47 1322.1C1298.58 1322.13 1309.52 1325.5 1313.7 1338.13C1313.84 1338.55 1314.24 1338.82 1314.66 1338.82C1314.77 1338.82 1314.88 1338.81 1314.98 1338.77C1315.51 1338.6 1315.8 1338.02 1315.62 1337.49C1311.09 1323.82 1299.53 1320.3 1299.04 1320.16Z" fill="white"/>
<path d="M1310.73 1312.31C1310.19 1312.15 1309.63 1312.46 1309.48 1312.99C1309.32 1313.53 1309.63 1314.09 1310.16 1314.25C1310.27 1314.28 1321.21 1317.64 1325.4 1330.28C1325.54 1330.7 1325.93 1330.97 1326.36 1330.97C1326.46 1330.97 1326.57 1330.95 1326.67 1330.92C1327.2 1330.74 1327.49 1330.17 1327.32 1329.64C1322.78 1315.97 1311.22 1312.45 1310.73 1312.31Z" fill="white"/>
<path d="M1677.72 1013.66C1677.43 1010.95 1676.08 988.707 1674.02 988.157L1559.32 957.52C1559.32 957.52 1558.34 962.76 1553.7 968.798C1547.32 977.121 1534.02 986.959 1506.84 986.722C1486.42 986.54 1466.05 984.675 1445.78 982.295C1425.98 979.966 1406.49 975.544 1386.68 973.452C1373.41 972.047 1359.78 972.012 1346.77 975.291C1334.21 978.464 1324.32 985.407 1315.14 994.372C1305.74 1003.56 1296.76 1013.19 1287.93 1022.94C1266.8 1046.28 1246.55 1070.43 1226.6 1094.78C1209.2 1116.03 1192.06 1137.48 1175.12 1159.08C1174.11 1160.36 1155.88 1183.41 1156.08 1183.57C1156.08 1183.58 1234.05 1191.85 1302.85 1219.96C1332.59 1232.11 1360.84 1247.56 1383.89 1261.61C1417.42 1282.04 1439.92 1299.51 1439.92 1299.51C1439.92 1299.51 1433.6 1124.4 1437.93 1126.09C1469.54 1138.4 1502.68 1147.14 1536.48 1150.5C1573.85 1154.22 1620.71 1158.8 1652.25 1133.66C1680.28 1111.32 1680.28 1073.29 1679.47 1040.57C1679.24 1031.58 1678.66 1022.61 1677.72 1013.66Z" fill="#3D6DDA"/>
<path d="M1677.72 1013.66C1677.43 1010.95 1676.08 988.707 1674.02 988.157L1559.32 957.52C1559.32 957.52 1475.21 1001.39 1470.58 1007.43C1470.91 1007 1481.92 1009 1483.11 1009.08C1488.7 1009.46 1494.32 1009.53 1499.92 1009.53C1513.98 1009.53 1528.04 1008.98 1542.09 1008.59C1557.52 1008.16 1572.96 1007.8 1588.39 1008.27C1603.25 1008.73 1619.72 1009.22 1633.68 1014.79C1647.79 1020.43 1649.83 1038.4 1651.18 1051.48C1652.09 1060.23 1652.39 1069.09 1651.48 1077.85C1649.68 1095.15 1642.47 1111.37 1627.98 1121.63C1606.38 1136.92 1576.75 1137.4 1551.44 1135.54C1441.52 1127.47 1437.39 1092.25 1429.13 1080.35C1420.88 1068.45 1404.88 1068.43 1415.2 1113.08C1425.52 1157.73 1427.43 1256.6 1383.9 1261.61C1417.42 1282.04 1439.92 1299.51 1439.92 1299.51C1439.92 1299.51 1433.6 1124.4 1437.93 1126.09C1469.54 1138.4 1502.68 1147.14 1536.48 1150.5C1573.85 1154.22 1620.71 1158.8 1652.25 1133.66C1680.28 1111.32 1680.28 1073.29 1679.47 1040.57C1679.24 1031.58 1678.66 1022.61 1677.72 1013.66Z" fill="#3D6DDA"/>
<path d="M1670.33 905.083C1670.63 888.975 1671.27 857.53 1658.93 830.702C1638.62 786.521 1581.5 774.426 1544.55 806.039C1538.74 811.012 1532.68 816.982 1526.75 824.102C1500.9 855.116 1499.22 881.47 1499.8 899.849C1500.37 918.228 1496.31 1004.44 1496.31 1004.44L1676.08 996.977C1676.08 996.977 1669.76 936.097 1670.33 905.083Z" fill="#809FE7"/>
<path d="M1565 832.062C1522.15 824.957 1482.63 921.31 1482.41 923.308L1560.56 961.05C1560.56 961.05 1576.54 924.862 1590.31 897.555C1604.07 870.248 1607.85 839.166 1565 832.062Z" fill="#7799E5"/>
<path d="M1572.72 829.802C1562.69 827.076 1551.16 828.06 1542.68 832.171C1532 837.348 1525.68 847.415 1520.13 857.454C1517.52 862.178 1514.91 866.898 1512.3 871.622C1509.61 876.493 1506.92 881.364 1504.23 886.235C1496.19 900.788 1488.15 915.345 1480.11 929.898C1478.12 933.498 1476.13 937.097 1474.14 940.696C1471.24 945.965 1468.32 951.233 1465.41 956.502L1375.59 890.671C1375.59 890.671 1354.2 854.252 1344.69 848.425C1335.19 842.603 1335.16 870.566 1335.16 870.566C1335.16 870.566 1302.38 861.547 1286.15 839.613C1269.92 817.678 1273.42 855.277 1280.78 864.438C1280.78 864.438 1276.27 870.072 1280.3 882.101C1280.3 882.101 1273.41 889.153 1278.15 895.295C1278.15 895.295 1276.52 901.099 1281.78 905.517C1286.64 909.601 1302.11 934.93 1340.03 937.514L1445.26 1025.32C1468.48 1039.36 1498.71 1031.44 1512.05 1007.81L1521.9 990.388C1527.87 979.815 1533.84 969.241 1539.82 958.666C1541.84 955.09 1543.86 951.513 1545.88 947.936C1546.64 944.882 1549.58 941.383 1551.13 938.625C1553.12 935.112 1555.11 931.595 1557.09 928.078C1561.07 921.044 1565.04 914.015 1569.01 906.981C1569.2 906.642 1569.4 906.304 1569.59 905.965C1574.93 896.516 1580.36 887.113 1585.77 877.701C1590.48 869.491 1595.55 859.654 1593.62 849.716C1591.63 839.461 1582.34 832.418 1572.72 829.802Z" fill="#D7E1F7"/>
<path d="M1317.15 884.22L1281.8 864.867C1281.8 864.867 1299.86 881.768 1317.15 884.22Z" fill="#C1D0F3"/>
<path d="M1310.96 898.411L1281.02 883.059C1281.02 883.059 1294.44 893.38 1310.96 898.411Z" fill="#C1D0F3"/>
<path d="M1304.38 914.54L1278.96 895.832C1278.96 895.832 1291.99 911.443 1304.38 914.54Z" fill="#C1D0F3"/>
<path d="M1480.11 929.897L1539.82 958.665C1541.84 955.089 1543.86 951.512 1545.88 947.935C1546.64 944.88 1549.58 941.382 1551.13 938.624C1553.12 935.111 1555.11 931.594 1557.09 928.077C1561.07 921.043 1565.04 914.014 1569.01 906.98C1569.2 906.641 1569.4 906.303 1569.59 905.964L1504.23 886.234C1496.19 900.787 1488.15 915.345 1480.11 929.897Z" fill="#C1D0F3"/>
<path d="M1594.66 771.313L1587.8 769.176C1587.8 769.176 1575.01 773.056 1569.41 773.562C1570.19 775.664 1571.08 778.847 1571.53 782.202C1572.08 786.295 1571.97 790.646 1570.19 793.633C1578.75 797.786 1597.42 795.412 1601.68 790.131C1598.47 785.781 1596.64 782.592 1595.65 779.823C1594.56 776.816 1594.47 774.299 1594.66 771.313Z" fill="#D7E1F7"/>
<path d="M1594.66 771.313L1587.8 769.176C1587.8 769.176 1575.01 773.056 1569.41 773.562C1570.19 775.664 1571.08 778.847 1571.53 782.202C1579.03 783.895 1589.77 782.703 1595.65 779.823C1594.56 776.816 1594.47 774.299 1594.66 771.313Z" fill="#C1D0F3"/>
<path d="M1615.37 729.58C1629.43 694.241 1559.45 663.499 1543.11 707.067C1543.11 707.067 1533.28 752.986 1551.51 768.067C1569.74 783.147 1593.14 778.212 1603.91 770.304C1614.68 762.396 1617.28 753.58 1617.28 753.58C1617.28 753.58 1629.85 755.844 1632.72 745.147C1635.76 734.76 1629.84 720.878 1615.37 729.58Z" fill="#D7E1F7"/>
<path d="M1545.86 725.809C1544.06 725.792 1542.58 727.395 1542.56 729.39C1542.55 731.384 1543.99 733.015 1545.79 733.033C1547.59 733.05 1549.07 731.447 1549.09 729.452C1549.11 727.457 1547.66 725.826 1545.86 725.809Z" fill="#4170DB" stroke="#2057D5" stroke-width="0.530336" stroke-miterlimit="10"/>
<path d="M1571.28 728.094C1569.48 728.077 1568 729.667 1567.98 731.647C1567.97 733.626 1569.41 735.244 1571.21 735.261C1573.01 735.279 1574.49 733.688 1574.51 731.709C1574.53 729.73 1573.08 728.111 1571.28 728.094Z" fill="#4170DB" stroke="#2057D5" stroke-width="0.530336" stroke-miterlimit="10"/>
<path d="M1551.6 718.686C1549.06 717.247 1546.15 716.737 1543.27 717.159C1542.86 717.219 1542.63 717.741 1542.73 718.107C1542.86 718.549 1543.27 718.707 1543.68 718.646C1546.13 718.286 1548.67 718.8 1550.82 720.017C1551.68 720.509 1552.46 719.177 1551.6 718.686Z" fill="#2057D5"/>
<path d="M1577.58 720.793C1573.76 718.934 1569.47 718.373 1565.31 719.19C1564.33 719.38 1564.75 720.867 1565.72 720.677C1569.45 719.944 1573.38 720.458 1576.8 722.125C1577.69 722.557 1578.47 721.228 1577.58 720.793Z" fill="#2057D5"/>
<path d="M1547.3 742.676C1547.47 742.472 1547.63 742.265 1547.8 742.061C1547.63 741.912 1547.46 741.756 1547.3 741.586C1547.3 741.949 1547.3 742.313 1547.3 742.676Z" fill="#2057D5"/>
<path d="M1553.87 732.03C1551.35 735.247 1548.8 738.433 1546.21 741.585C1545.94 741.917 1545.9 742.346 1546.21 742.676C1547.88 744.481 1550.46 744.949 1552.18 746.665C1552.88 747.366 1553.97 746.276 1553.27 745.574C1551.71 744.017 1549.44 743.472 1547.8 742.06C1547.63 742.265 1547.47 742.472 1547.3 742.676C1547.3 742.312 1547.3 741.949 1547.3 741.585C1547.46 741.756 1547.63 741.911 1547.8 742.06C1550.22 739.108 1552.61 736.129 1554.96 733.121C1555.56 732.347 1554.48 731.248 1553.87 732.03Z" fill="#2057D5"/>
<path d="M1561.8 750.337C1559.32 752.583 1555.46 753.066 1552.5 751.505C1551.63 751.042 1550.85 752.372 1551.73 752.836C1555.31 754.731 1559.88 754.152 1562.89 751.427C1563.62 750.759 1562.53 749.671 1561.8 750.337Z" fill="#2057D5"/>
<path d="M1624.86 688.261C1624.78 677.533 1600.72 665.021 1570 671.846C1539.29 678.67 1535.16 704.657 1534.73 712.269C1542.09 712.936 1551.21 714.107 1551.21 714.107L1553.2 707.02L1553.29 714.282L1561.08 714.632L1558.8 701.584L1564.67 715.157H1597.13L1602.54 701.584C1602.55 702.558 1622.12 766.473 1598.29 792.788C1621.19 796.004 1646.39 789.704 1647.96 757.155C1648.86 738.651 1638.43 679.108 1624.86 688.261Z" fill="#6188E1"/>
<path d="M1563.07 826.363C1520.22 819.259 1480.7 915.612 1480.48 917.61L1558.63 955.352C1558.63 955.352 1574.61 919.164 1588.38 891.856C1602.14 864.549 1605.92 833.467 1563.07 826.363Z" fill="#809FE7"/>
</g>
<defs>
<clipPath id="clip0_74_5212">
<rect width="2439.76" height="1626.51" fill="white"/>
</clipPath>
</defs>
</svg>
